<?xml version="1.0" encoding="utf-8"?>
<!-- Generator: Adobe Illustrator 27.5.0, SVG Export Plug-In . SVG Version: 6.00 Build 0)  -->
<svg version="1.1" xmlns="http://www.w3.org/2000/svg" xmlns:xlink="http://www.w3.org/1999/xlink" x="0px" y="0px"
	 viewBox="0 0 500 500" style="enable-background:new 0 0 500 500;" xml:space="preserve">
<g id="BACKGROUND">
	<g>
		<g>
			<g style="opacity:0.41;">
				<g>
					<g>
						<path style="fill:#E1E2FE;" d="M478.851,296.7c0.428-7.371,0.236-14.775-0.594-22.107
							c-3.903-34.45-21.577-66.935-47.59-89.856c-9.281-8.177-19.84-15.503-25.88-26.297c-10.171-18.178-9.4-39.069-22.024-57.017
							c-12.638-17.969-31.055-31.982-51.824-39.179c-61.926-21.458-148.625,13.48-140.819,88.091
							c0.028,0.268,0.058,0.657,0.091,1.149c1.038,15.498-11.126,28.529-26.607,28.896c-57.135,1.356-106.316,45.407-116.84,101.207
							c-6.768,35.885,4.314,75.218,30.564,100.604c19.595,18.95,45.885,29.36,72.188,36.513
							c52.739,14.343,108.237,17.349,162.615,11.865c50.901-5.134,104.594-19.767,137.513-58.928
							C467.207,350.75,477.267,323.96,478.851,296.7z"/>
					</g>
				</g>
			</g>
			<g style="opacity:0.31;">
				
					<ellipse transform="matrix(0.9252 -0.3796 0.3796 0.9252 -0.2997 85.6974)" style="fill:#E1E2FE;" cx="217.158" cy="43.609" rx="13.293" ry="13.293"/>
			</g>
			<g style="opacity:0.31;">
				<circle style="fill:#E1E2FE;" cx="469.695" cy="199.152" r="6.859"/>
			</g>
			<g style="opacity:0.31;">
				
					<ellipse transform="matrix(0.6639 -0.7478 0.7478 0.6639 -2.8827 140.3211)" style="fill:#E1E2FE;" cx="154.659" cy="73.367" rx="9.191" ry="9.191"/>
			</g>
			<g style="opacity:0.31;">
				<circle style="fill:#E1E2FE;" cx="48.677" cy="406.698" r="20.927"/>
			</g>
		</g>
	</g>
	<g>
		<g>
			<path style="opacity:0.47;fill:#ECF1F7;" d="M476.499,93.226c5.966-11.62,1.381-25.877-10.239-31.842
				c-11.62-5.965-33.95-5.526-39.916,6.094c-5.966,11.62,11.919,21.593,19.211,32.429
				C455.727,115.022,470.534,104.847,476.499,93.226z"/>
			<path style="opacity:0.47;fill:#E1E2FE;" d="M422.703,439.102c8.408,5.428,19.623,3.013,25.051-5.395s6.784-25.465-1.624-30.893
				c-8.408-5.428-17.364,7.452-26.178,12.191C407.659,421.615,414.295,433.674,422.703,439.102z"/>
			<path style="opacity:0.47;fill:#E1E2FE;" d="M79.536,28.634c-9.248-8.588-23.706-8.053-32.294,1.195
				c-8.588,9.248-14.02,30.131-4.772,38.719c9.248,8.588,23.201-5.438,35.187-9.386C94.375,53.655,88.784,37.222,79.536,28.634z"/>
		</g>
		<g>
			<path style="opacity:0.47;fill:#E1E2FE;" d="M453.792,350.179c8.163-17.533,11.41-36.983,7.199-57.519
				c-4.65-22.678-18.769-40.101-13.87-64.294c2.984-14.736,3.731-28.387,5.244-42.968c3.107-29.94-16.332-56.321-40.448-70.566
				c-19.587-11.57-42.55-15.911-65.069-15.603c-20.268,0.278-40.5,4.021-60.14,9.053c-18.927,4.85-37.432,11.24-57.271,9.224
				c-16.5-1.677-31.36-8.81-46.726-14.129c-36.685-12.699-81.124-14.49-114.67,4.842c-21.529,12.407-36.598,32.555-43.281,54.217
				c-5.341,17.311-6.019,33.5-2.016,51.175c3.705,16.355,9.455,32.391,9.289,49.363c-0.169,17.319-9.077,32.78-5.568,50.594
				c2.482,12.601,10.042,23.658,18.778,33.071c24.036,25.898,57.604,41.539,92.145,48.983c45.984,9.911,92.863,0.447,138.444,10.312
				c29.889,6.469,59.487,18.952,90.607,14.07c19.44-3.049,37.54-12.544,52.479-25.351
				C433.577,382.088,445.952,367.018,453.792,350.179z"/>
			<g>
				<path style="opacity:0.81;fill:#E1E2FE;" d="M411.839,322.589c1.27-14.292-3.55-29.02,0.479-43.174
					c4.824-16.945,18.787-29.638,24.479-46.275c8.411-24.584,8.007-52.131-2.207-76.087c-4.923-11.545-12.114-22.274-21.934-29.695
					c-15.139-11.439-34.975-13.948-53.63-12.497c-27.764,2.159-57.06,14.179-84.975,10.901
					c-15.404-1.809-20.108-18.481-28.064-29.479c-8.998-12.439-21.252-22.208-34.799-28.712
					c-24.952-11.978-54.898-13.112-80.4-2.251c-27.227,11.596-50.958,39.913-49.398,71.938c0.722,14.815,6.652,29.53,3.907,44.087
					c-3.446,18.269-17.211,34.917-27.186,49.802c-11.016,16.439-17.685,36.043-18.993,56.043c-0.015,0.227-0.029,0.453-0.042,0.68
					c-2.045,34.503,19.717,65.971,52.551,76.769c0,0,69.859,22.975,69.862,22.976c70.886,23.313,141.711,22.542,206.888-11.672
					c14.104-7.404,37.069-29.463,41.799-44.674C411.068,328.4,411.58,325.504,411.839,322.589z"/>
			</g>
		</g>
	</g>
	<circle style="opacity:0.58;fill:#3E479B;" cx="467.651" cy="381.579" r="4.5"/>
	<circle style="opacity:0.58;fill:#3E479B;" cx="259.775" cy="30.861" r="4.5"/>
	<circle style="opacity:0.58;fill:#3E479B;" cx="97.207" cy="423.078" r="4.5"/>
	<circle style="opacity:0.58;fill:#EF929C;" cx="381.238" cy="442.001" r="3.5"/>
	<circle style="opacity:0.58;fill:#EF929C;" cx="452.131" cy="460.07" r="4.5"/>
	<circle style="opacity:0.58;fill:#3E479B;" cx="76.392" cy="82.558" r="1.5"/>
	<path style="opacity:0.58;fill:#EF929C;" d="M396.863,62.756c-0.623,2.919-3.495,4.779-6.413,4.156
		c-2.919-0.623-4.779-3.495-4.156-6.413c0.623-2.919,3.495-4.779,6.413-4.156C395.625,56.966,397.486,59.837,396.863,62.756z"/>
	<path style="opacity:0.58;fill:#EF929C;" d="M108.072,35.804c-0.244,1.145-1.37,1.874-2.515,1.63
		c-1.145-0.244-1.874-1.37-1.63-2.515c0.244-1.145,1.37-1.874,2.515-1.63C107.587,33.533,108.317,34.659,108.072,35.804z"/>
	<path style="opacity:0.58;fill:#3E479B;" d="M445.83,29.02c-0.208,0.973-1.165,1.593-2.138,1.385s-1.593-1.165-1.385-2.138
		c0.208-0.973,1.165-1.593,2.138-1.385C445.418,27.09,446.038,28.047,445.83,29.02z"/>
	<path style="opacity:0.58;fill:#3E479B;" d="M64.778,458.645c-0.208,0.973-1.165,1.593-2.138,1.385s-1.593-1.165-1.385-2.138
		c0.208-0.973,1.165-1.593,2.138-1.385C64.366,456.715,64.986,457.672,64.778,458.645z"/>
</g>
<g id="OBJECTS">
	<g>
		<g style="opacity:0.73;">
			<g>
				<path style="fill:#FFFFFF;" d="M127.907,199.048c-0.492,0-0.988-0.066-1.476-0.2l-8.4-2.298
					c-2.956-0.809-4.703-3.871-3.894-6.828l2.808-10.26c-5.138-2.652-9.68-6.174-13.526-10.49l-9.238,5.269
					c-1.29,0.736-2.788,0.924-4.22,0.533c-1.432-0.392-2.626-1.318-3.361-2.607l-4.314-7.565c-1.519-2.662-0.588-6.063,2.074-7.581
					l9.238-5.269c-1.756-5.508-2.476-11.21-2.143-16.982l-10.26-2.808c-2.955-0.809-4.702-3.871-3.894-6.827l2.298-8.4
					c0.809-2.956,3.872-4.702,6.828-3.894l10.26,2.808c2.652-5.138,6.174-9.68,10.49-13.526l-5.269-9.238
					c-0.736-1.29-0.925-2.789-0.533-4.22c0.392-1.432,1.318-2.625,2.607-3.361l7.565-4.315c2.663-1.519,6.063-0.587,7.581,2.074
					l5.269,9.238c5.507-1.757,11.211-2.476,16.982-2.143l2.808-10.26c0.809-2.956,3.872-4.703,6.827-3.894l8.4,2.298
					c2.955,0.809,4.703,3.871,3.894,6.828l-2.808,10.26c5.138,2.652,9.68,6.174,13.526,10.49l9.238-5.269
					c1.289-0.736,2.788-0.925,4.22-0.533c1.432,0.392,2.625,1.318,3.361,2.607l4.315,7.565c0.736,1.29,0.925,2.789,0.533,4.22
					c-0.392,1.432-1.318,2.626-2.607,3.361l-9.238,5.269c1.756,5.508,2.476,11.209,2.143,16.982l10.26,2.808
					c1.432,0.392,2.625,1.317,3.361,2.607c0.735,1.289,0.924,2.788,0.533,4.22l-2.298,8.401c-0.809,2.956-3.871,4.702-6.828,3.894
					l-10.26-2.808c-2.653,5.139-6.174,9.68-10.49,13.526l5.269,9.238c0.735,1.29,0.924,2.788,0.533,4.22
					c-0.392,1.432-1.318,2.626-2.608,3.361l-7.564,4.314c-1.29,0.736-2.789,0.924-4.22,0.533c-1.432-0.392-2.626-1.318-3.361-2.608
					l-5.269-9.238c-5.508,1.757-11.208,2.477-16.982,2.143l-2.808,10.26c-0.392,1.432-1.317,2.626-2.607,3.361
					C129.801,198.801,128.86,199.048,127.907,199.048z M104.084,165.139l0.806,0.952c4.013,4.745,8.884,8.523,14.48,11.23
					l1.123,0.543l-3.461,12.65c-0.18,0.659-0.093,1.349,0.246,1.942c0.338,0.594,0.888,1.02,1.547,1.2l8.4,2.298
					c0.658,0.181,1.349,0.093,1.942-0.245c0.593-0.338,1.02-0.888,1.2-1.547l3.462-12.65l1.243,0.104
					c6.196,0.519,12.311-0.253,18.18-2.294l1.178-0.409l6.496,11.39c0.339,0.594,0.888,1.02,1.547,1.2
					c0.661,0.182,1.35,0.094,1.942-0.245l7.565-4.315c0.594-0.339,1.02-0.888,1.2-1.547c0.18-0.659,0.093-1.349-0.245-1.942
					l-6.497-11.391l0.952-0.805c4.745-4.012,8.523-8.884,11.23-14.48l0.543-1.123l12.65,3.462c1.356,0.37,2.77-0.432,3.142-1.792
					l2.298-8.401c0.18-0.659,0.093-1.349-0.245-1.942c-0.338-0.593-0.888-1.02-1.547-1.2l-12.65-3.461l0.104-1.243
					c0.518-6.195-0.253-12.311-2.294-18.18l-0.41-1.178l11.391-6.497c0.594-0.338,1.02-0.888,1.2-1.546
					c0.18-0.659,0.093-1.349-0.245-1.942l-4.315-7.565c-0.339-0.594-0.888-1.02-1.547-1.2c-0.66-0.18-1.349-0.093-1.942,0.245
					l-11.39,6.497l-0.806-0.952c-4.013-4.745-8.884-8.523-14.48-11.23l-1.123-0.543l3.461-12.65c0.18-0.659,0.093-1.349-0.246-1.942
					c-0.338-0.593-0.888-1.019-1.547-1.2l-8.4-2.298c-1.357-0.373-2.77,0.432-3.142,1.792l-3.462,12.65l-1.243-0.104
					c-6.197-0.521-12.312,0.253-18.18,2.294l-1.178,0.41l-6.497-11.391c-0.338-0.594-0.888-1.02-1.546-1.2
					c-0.659-0.179-1.349-0.093-1.942,0.245l-7.565,4.315c-0.594,0.339-1.02,0.888-1.2,1.547c-0.18,0.659-0.093,1.349,0.245,1.942
					l6.497,11.39l-0.952,0.806c-4.745,4.013-8.523,8.884-11.23,14.48l-0.543,1.122l-12.65-3.461
					c-0.658-0.18-1.349-0.094-1.942,0.246c-0.593,0.338-1.02,0.888-1.2,1.547l-2.298,8.4c-0.18,0.659-0.093,1.349,0.245,1.942
					c0.338,0.593,0.888,1.02,1.547,1.2l12.65,3.461l-0.104,1.243c-0.518,6.194,0.253,12.311,2.294,18.18l0.409,1.178l-11.39,6.496
					c-0.594,0.339-1.02,0.888-1.2,1.547c-0.18,0.659-0.093,1.349,0.245,1.942l4.315,7.565c0.338,0.593,0.888,1.02,1.547,1.2
					c0.657,0.18,1.348,0.094,1.942-0.245L104.084,165.139z M138.762,162.492c-2.219,0-4.453-0.298-6.651-0.899l0,0
					c-6.455-1.766-11.836-5.94-15.151-11.753c-3.316-5.813-4.169-12.57-2.403-19.025c1.766-6.455,5.94-11.836,11.754-15.151
					c5.813-3.315,12.57-4.168,19.025-2.402c6.455,1.766,11.836,5.94,15.151,11.753c3.315,5.813,4.169,12.569,2.402,19.024
					c-1.766,6.455-5.94,11.836-11.753,15.151C147.302,161.376,143.059,162.491,138.762,162.492z M138.688,115.362
					c-3.782,0-7.517,0.982-10.891,2.906c-5.117,2.918-8.791,7.655-10.346,13.337c-1.555,5.682-0.804,11.629,2.115,16.746
					c2.919,5.117,7.655,8.792,13.337,10.346c5.681,1.554,11.629,0.803,16.746-2.115s8.792-7.655,10.346-13.337
					c1.555-5.682,0.804-11.629-2.115-16.746c-2.918-5.117-7.655-8.791-13.337-10.346
					C142.608,115.624,140.641,115.362,138.688,115.362z"/>
			</g>
		</g>
		<g style="opacity:0.69;">
			<path style="fill:#FFFFFF;" d="M371.08,171.986l-56.575,1.027c-1.635,0.03-2.984-1.004-3.008-2.304l-0.682-37.566
				c-0.024-1.301,1.287-2.383,2.922-2.412l56.575-1.027c1.635-0.03,2.984,1.004,3.008,2.305l0.682,37.566
				C374.026,170.874,372.716,171.956,371.08,171.986z M313.75,131.432c-1.248,0.023-2.25,0.784-2.233,1.698l0.682,37.566
				c0.017,0.913,1.045,1.638,2.293,1.615l56.575-1.027c1.248-0.023,2.25-0.784,2.233-1.697l-0.682-37.566
				c-0.017-0.913-1.046-1.638-2.293-1.615L313.75,131.432z"/>
			
				<rect x="311.264" y="137.875" transform="matrix(0.9998 -0.0182 0.0182 0.9998 -2.4533 6.2318)" style="fill:#FFFFFF;" width="61.44" height="0.702"/>
			<path style="fill:#FFFFFF;" d="M315.69,136.539c-0.729,0.013-1.333-0.569-1.347-1.299c-0.013-0.729,0.569-1.333,1.299-1.347
				c0.729-0.013,1.333,0.569,1.347,1.299C317.002,135.922,316.419,136.526,315.69,136.539z M315.655,134.596
				c-0.342,0.006-0.615,0.29-0.609,0.632c0.006,0.342,0.29,0.615,0.632,0.609c0.342-0.006,0.616-0.29,0.609-0.632
				C316.28,134.863,315.997,134.59,315.655,134.596z"/>
			<path style="fill:#FFFFFF;" d="M319.335,136.473c-0.729,0.013-1.333-0.569-1.346-1.299c-0.013-0.729,0.569-1.333,1.298-1.347
				c0.729-0.013,1.333,0.569,1.346,1.299C320.647,135.856,320.064,136.46,319.335,136.473z M319.3,134.53
				c-0.342,0.006-0.615,0.29-0.609,0.632c0.006,0.342,0.29,0.616,0.631,0.609c0.342-0.006,0.615-0.29,0.609-0.632
				C319.925,134.797,319.642,134.524,319.3,134.53z"/>
			<path style="fill:#FFFFFF;" d="M322.912,136.408c-0.729,0.013-1.333-0.569-1.347-1.299c-0.013-0.729,0.569-1.333,1.298-1.347
				c0.729-0.013,1.333,0.569,1.347,1.298C324.223,135.791,323.641,136.395,322.912,136.408z M322.876,134.465
				c-0.342,0.006-0.615,0.29-0.609,0.632c0.006,0.342,0.29,0.615,0.632,0.609c0.342-0.006,0.615-0.29,0.609-0.632
				C323.502,134.732,323.219,134.459,322.876,134.465z"/>
		</g>
		<g style="opacity:0.69;">
			<path style="fill:#FFFFFF;" d="M181.194,396.525l-56.575,1.027c-1.635,0.03-2.984-1.004-3.008-2.304l-0.682-37.566
				c-0.024-1.301,1.287-2.383,2.922-2.412l56.575-1.027c1.635-0.03,2.985,1.004,3.008,2.305l0.682,37.566
				C184.14,395.413,182.829,396.495,181.194,396.525z M123.863,355.971c-1.248,0.023-2.25,0.784-2.233,1.698l0.682,37.566
				c0.017,0.913,1.045,1.638,2.293,1.615l56.575-1.027c1.248-0.023,2.25-0.784,2.233-1.697l-0.682-37.566
				c-0.017-0.913-1.045-1.638-2.293-1.615L123.863,355.971z"/>
			
				<rect x="121.377" y="362.414" transform="matrix(0.9998 -0.0182 0.0182 0.9998 -6.5613 2.8213)" style="fill:#FFFFFF;" width="61.44" height="0.702"/>
			<path style="fill:#FFFFFF;" d="M125.803,361.078c-0.729,0.013-1.333-0.569-1.347-1.299c-0.013-0.729,0.569-1.333,1.299-1.346
				c0.729-0.013,1.333,0.569,1.347,1.298C127.115,360.46,126.533,361.065,125.803,361.078z M125.768,359.135
				c-0.342,0.006-0.615,0.29-0.609,0.632c0.006,0.342,0.29,0.615,0.632,0.609s0.616-0.29,0.609-0.632
				C126.394,359.402,126.11,359.129,125.768,359.135z"/>
			<path style="fill:#FFFFFF;" d="M129.449,361.012c-0.729,0.013-1.333-0.569-1.346-1.299c-0.013-0.729,0.569-1.333,1.298-1.347
				c0.729-0.013,1.333,0.569,1.347,1.299C130.76,360.394,130.178,360.998,129.449,361.012z M129.413,359.069
				c-0.342,0.006-0.615,0.29-0.609,0.632c0.006,0.342,0.29,0.616,0.631,0.609c0.342-0.006,0.615-0.29,0.609-0.632
				C130.039,359.336,129.755,359.062,129.413,359.069z"/>
			<path style="fill:#FFFFFF;" d="M133.025,360.947c-0.729,0.013-1.333-0.569-1.347-1.299c-0.013-0.729,0.569-1.333,1.299-1.347
				c0.729-0.013,1.333,0.569,1.347,1.299C134.337,360.329,133.754,360.934,133.025,360.947z M132.99,359.004
				c-0.342,0.006-0.615,0.29-0.609,0.632c0.006,0.342,0.29,0.615,0.632,0.609c0.342-0.006,0.616-0.29,0.609-0.632
				C133.615,359.271,133.332,358.997,132.99,359.004z"/>
		</g>
		<g style="opacity:0.55;">
			<g>
				<path style="fill:#FFFFFF;" d="M416.281,290.238l-5.853-4.692c1.945-3.627,3.053-7.546,3.346-11.499l7.455-0.821
					c1.408-0.155,2.424-1.422,2.269-2.83l-0.603-5.472c-0.155-1.408-1.422-2.424-2.83-2.269l-7.455,0.821
					c-1.146-3.795-3.081-7.379-5.768-10.496l4.692-5.853c0.886-1.105,0.708-2.719-0.397-3.605l-4.295-3.443
					c-1.105-0.886-2.719-0.708-3.605,0.397l-4.692,5.853c-3.627-1.945-7.546-3.053-11.499-3.346l-0.821-7.455
					c-0.155-1.408-1.422-2.424-2.83-2.269l-5.472,0.603c-1.408,0.155-2.424,1.422-2.269,2.83l0.821,7.455
					c-3.795,1.146-7.379,3.081-10.496,5.768l-5.853-4.692c-1.105-0.886-2.72-0.708-3.605,0.397l-3.443,4.295
					c-0.886,1.105-0.708,2.719,0.397,3.605l5.853,4.692c-1.945,3.627-3.053,7.546-3.346,11.499l-7.455,0.821
					c-1.408,0.155-2.424,1.422-2.269,2.83l0.603,5.472c0.155,1.408,1.422,2.424,2.83,2.269l7.455-0.821
					c1.146,3.795,3.081,7.379,5.768,10.496l-4.692,5.853c-0.886,1.105-0.708,2.719,0.397,3.605l4.295,3.443
					c1.105,0.886,2.72,0.708,3.605-0.397l4.692-5.853c3.627,1.945,7.546,3.053,11.499,3.346l0.821,7.455
					c0.155,1.408,1.422,2.424,2.83,2.269l5.472-0.603c1.408-0.155,2.424-1.422,2.269-2.83l-0.821-7.455
					c3.795-1.146,7.379-3.081,10.496-5.768l5.853,4.692c1.105,0.886,2.72,0.708,3.605-0.397l3.443-4.295
					C417.564,292.738,417.386,291.124,416.281,290.238z M375.565,283.497c-6.416-5.143-7.448-14.513-2.305-20.929
					c5.143-6.416,14.513-7.448,20.929-2.305c6.416,5.143,7.448,14.513,2.305,20.929C391.351,287.608,381.981,288.64,375.565,283.497
					z"/>
				<path style="fill:#FFFFFF;" d="M386.074,311.016c-0.693,0-1.361-0.233-1.911-0.674c-0.639-0.512-1.04-1.242-1.129-2.056
					l-0.776-7.045c-3.833-0.337-7.501-1.404-10.915-3.176l-4.435,5.531c-0.512,0.639-1.241,1.04-2.056,1.13
					c-0.814,0.091-1.613-0.144-2.252-0.654l-4.295-3.444c-0.639-0.512-1.04-1.241-1.13-2.056c-0.09-0.814,0.143-1.613,0.654-2.252
					l4.434-5.531c-2.471-2.947-4.312-6.296-5.475-9.963l-7.045,0.775c-0.814,0.088-1.613-0.143-2.252-0.655
					c-0.639-0.512-1.04-1.242-1.13-2.056l-0.602-5.472c-0.09-0.813,0.142-1.613,0.655-2.252c0.512-0.639,1.242-1.04,2.056-1.13
					l7.045-0.776c0.337-3.832,1.404-7.5,3.176-10.915l-5.531-4.435c-0.639-0.512-1.04-1.241-1.13-2.055
					c-0.09-0.814,0.143-1.614,0.655-2.252l3.443-4.295c0.512-0.639,1.241-1.04,2.056-1.13c0.806-0.093,1.613,0.143,2.252,0.655
					l5.531,4.434c2.948-2.472,6.296-4.312,9.963-5.476l-0.775-7.044c-0.186-1.68,1.031-3.197,2.711-3.382l5.472-0.603
					c1.684-0.177,3.196,1.031,3.382,2.711l0.776,7.045c3.831,0.337,7.499,1.405,10.915,3.176l4.435-5.531
					c1.056-1.319,2.989-1.53,4.308-0.475l4.295,3.443c0.639,0.512,1.04,1.242,1.13,2.056c0.09,0.814-0.143,1.613-0.655,2.252
					l-4.434,5.531c2.472,2.948,4.313,6.297,5.475,9.964l7.045-0.776c0.811-0.092,1.613,0.143,2.252,0.655
					c0.639,0.512,1.04,1.242,1.13,2.056l0.602,5.472c0.09,0.814-0.142,1.613-0.655,2.252c-0.512,0.639-1.242,1.04-2.056,1.13
					l-7.045,0.776c-0.337,3.831-1.404,7.499-3.176,10.915l5.531,4.435c0.639,0.512,1.04,1.241,1.13,2.056
					c0.09,0.814-0.143,1.613-0.656,2.252l-3.441,4.295c-1.059,1.318-2.991,1.529-4.309,0.476l-5.531-4.435
					c-2.947,2.472-6.295,4.312-9.964,5.476l0.776,7.045c0.09,0.814-0.143,1.613-0.655,2.252c-0.512,0.639-1.242,1.04-2.056,1.13
					l-5.472,0.603C386.302,311.01,386.188,311.016,386.074,311.016z M371.081,296.794l0.366,0.196
					c3.517,1.887,7.318,2.992,11.3,3.287l0.414,0.031l0.867,7.868c0.06,0.549,0.33,1.04,0.761,1.385
					c0.43,0.346,0.968,0.507,1.517,0.441l5.472-0.603c0.548-0.061,1.04-0.331,1.385-0.761c0.346-0.431,0.502-0.969,0.441-1.517
					l-0.867-7.868l0.398-0.12c3.822-1.155,7.293-3.063,10.315-5.669l0.314-0.271l6.178,4.953c0.887,0.709,2.189,0.567,2.903-0.32
					l3.441-4.295c0.346-0.431,0.503-0.97,0.442-1.518c-0.061-0.549-0.33-1.04-0.761-1.385v-0.001l-6.178-4.952l0.196-0.366
					c1.887-3.519,2.992-7.32,3.287-11.3l0.031-0.414l7.868-0.867c0.548-0.06,1.04-0.331,1.385-0.761
					c0.346-0.431,0.502-0.969,0.441-1.518l-0.603-5.472c-0.061-0.548-0.331-1.04-0.761-1.385c-0.431-0.345-0.967-0.507-1.518-0.441
					l-7.868,0.867l-0.12-0.398c-1.154-3.821-3.062-7.291-5.669-10.314l-0.271-0.314l4.953-6.178c0.345-0.431,0.501-0.969,0.44-1.518
					c-0.061-0.548-0.33-1.04-0.761-1.385l-4.295-3.443c-0.89-0.712-2.19-0.569-2.903,0.319l-4.952,6.178l-0.366-0.197
					c-3.518-1.886-7.32-2.993-11.3-3.288l-0.414-0.031l-0.867-7.868c-0.124-1.131-1.151-1.945-2.278-1.826l-5.472,0.603
					c-0.548,0.061-1.04,0.33-1.385,0.761c-0.346,0.43-0.502,0.969-0.441,1.518l0.865,7.868l-0.397,0.12
					c-3.821,1.154-7.291,3.061-10.314,5.668l-0.314,0.272l-6.178-4.952c-0.43-0.345-0.973-0.502-1.518-0.441
					c-0.549,0.06-1.04,0.331-1.385,0.761l-3.444,4.295c-0.345,0.431-0.501,0.969-0.44,1.517c0.061,0.549,0.33,1.04,0.761,1.385
					l6.178,4.953l-0.196,0.366c-1.887,3.518-2.992,7.319-3.287,11.3l-0.031,0.414l-7.868,0.867c-0.548,0.06-1.04,0.331-1.385,0.761
					c-0.346,0.431-0.502,0.969-0.441,1.518l0.603,5.472c0.061,0.548,0.331,1.04,0.761,1.385c0.431,0.345,0.968,0.502,1.518,0.441
					l7.868-0.865l0.12,0.397c1.154,3.821,3.062,7.291,5.668,10.314l0.272,0.315l-4.951,6.178c-0.346,0.431-0.502,0.97-0.441,1.518
					c0.061,0.549,0.33,1.04,0.761,1.385l4.295,3.444c0.431,0.344,0.969,0.504,1.518,0.44c0.549-0.06,1.04-0.33,1.385-0.761
					L371.081,296.794z M384.861,287.262c-3.377,0-6.775-1.103-9.609-3.374c-3.207-2.571-5.222-6.237-5.671-10.322
					c-0.45-4.086,0.718-8.103,3.288-11.31c2.571-3.207,6.237-5.222,10.322-5.672c4.092-0.454,8.103,0.719,11.31,3.288
					c6.621,5.308,7.689,15.013,2.384,21.633C393.849,285.291,389.374,287.262,384.861,287.262z M384.904,257.489
					c-0.531,0-1.066,0.029-1.603,0.089c-3.82,0.421-7.248,2.304-9.651,5.303c-4.963,6.191-3.964,15.265,2.227,20.226
					c6.19,4.963,15.265,3.962,20.227-2.227c4.961-6.19,3.962-15.265-2.228-20.228C391.298,258.587,388.161,257.489,384.904,257.489z
					"/>
			</g>
		</g>
		<g style="opacity:0.38;">
			<path style="fill:#FFFFFF;" d="M453.594,334.685h-56.622c-0.978,0-1.773-0.947-1.773-2.111v-20.836
				c0-1.165,0.796-2.112,1.773-2.112h56.622c0.978,0,1.773,0.947,1.773,2.112v20.836
				C455.367,333.738,454.571,334.685,453.594,334.685z M396.972,310.626c-0.419,0-0.773,0.51-0.773,1.112v20.836
				c0,0.603,0.354,1.111,0.773,1.111h56.622c0.419,0,0.773-0.509,0.773-1.111v-20.836c0-0.603-0.354-1.112-0.773-1.112H396.972z"/>
			<g>
				<rect x="406.854" y="317.684" style="fill:#FFFFFF;" width="38.329" height="1"/>
				<path style="fill:#FFFFFF;" d="M445.184,319.184h-38.329c-0.552,0-1-0.448-1-1c0-0.552,0.448-1,1-1h38.329c0.552,0,1,0.448,1,1
					C446.184,318.735,445.735,319.184,445.184,319.184z M445.184,318.184v0.5l0.001-0.5H445.184z"/>
			</g>
			<g>
				<rect x="406.854" y="322.23" style="fill:#FFFFFF;" width="17.127" height="1"/>
				<path style="fill:#FFFFFF;" d="M423.981,323.73h-17.127c-0.552,0-1-0.448-1-1c0-0.552,0.448-1,1-1h17.127c0.552,0,1,0.448,1,1
					C424.981,323.282,424.533,323.73,423.981,323.73z M423.981,322.73v0.5l0.001-0.5H423.981z"/>
			</g>
			<g>
				<rect x="428.058" y="322.23" style="fill:#FFFFFF;" width="17.126" height="1"/>
				<path style="fill:#FFFFFF;" d="M445.184,323.73h-17.126c-0.552,0-1-0.448-1-1c0-0.552,0.448-1,1-1h17.126c0.552,0,1,0.448,1,1
					C446.184,323.282,445.735,323.73,445.184,323.73z M445.184,322.73v0.5l0.001-0.5H445.184z"/>
			</g>
			<g>
				<rect x="406.854" y="326.988" style="fill:#FFFFFF;" width="38.329" height="1"/>
				<path style="fill:#FFFFFF;" d="M445.184,328.489h-38.329c-0.552,0-1-0.448-1-1c0-0.552,0.448-1,1-1h38.329c0.552,0,1,0.448,1,1
					C446.184,328.041,445.735,328.489,445.184,328.489z M445.184,327.489v0.5l0.001-0.5H445.184z"/>
			</g>
		</g>
		<g style="opacity:0.55;">
			<path style="fill:#FFFFFF;" d="M295.936,427.307c-0.786,0-1.545-0.266-2.168-0.766c-0.726-0.581-1.181-1.41-1.282-2.334
				l-0.704-6.392c-3.48-0.357-6.818-1.328-9.945-2.894l-4.022,5.02c-1.201,1.497-3.396,1.739-4.892,0.539l-4.153-3.329
				c-0.725-0.581-1.18-1.41-1.281-2.334c-0.103-0.924,0.162-1.832,0.743-2.557l4.023-5.02c-2.209-2.712-3.883-5.759-4.988-9.076
				l-6.393,0.704c-1.907,0.2-3.63-1.172-3.84-3.078l-0.583-5.29c-0.209-1.906,1.172-3.629,3.078-3.84l6.393-0.703
				c0.356-3.479,1.328-6.816,2.893-9.945l-5.02-4.023c-1.496-1.2-1.738-3.395-0.538-4.891l3.328-4.152
				c0.581-0.726,1.41-1.181,2.334-1.282c0.925-0.102,1.832,0.162,2.557,0.743l5.021,4.022c2.712-2.208,5.759-3.883,9.076-4.988
				l-0.704-6.392c-0.102-0.923,0.162-1.831,0.744-2.557c0.581-0.726,1.41-1.181,2.334-1.282l5.29-0.583
				c0.925-0.098,1.831,0.163,2.557,0.744c0.726,0.581,1.181,1.41,1.282,2.334l0.704,6.393c3.478,0.356,6.817,1.328,9.945,2.893
				l4.022-5.02c1.199-1.497,3.394-1.74,4.892-0.539l4.153,3.329c0.725,0.581,1.18,1.41,1.281,2.334
				c0.103,0.924-0.162,1.832-0.743,2.557l-4.023,5.02c2.209,2.712,3.883,5.759,4.988,9.076l6.393-0.703
				c1.902-0.208,3.629,1.17,3.84,3.076l0.583,5.291c0.209,1.906-1.172,3.629-3.078,3.84l-6.393,0.704
				c-0.356,3.478-1.328,6.816-2.893,9.944l5.02,4.023h-0.001c0.726,0.581,1.181,1.41,1.282,2.334
				c0.103,0.924-0.162,1.832-0.743,2.557l-3.328,4.152c-0.581,0.726-1.41,1.182-2.334,1.283c-0.923,0.107-1.831-0.162-2.558-0.744
				l-5.02-4.023c-2.712,2.208-5.759,3.883-9.076,4.988l0.704,6.393c0.211,1.906-1.17,3.629-3.078,3.84l-5.29,0.582
				C296.195,427.3,296.065,427.307,295.936,427.307z M281.31,412.382l0.732,0.394c3.335,1.789,6.941,2.838,10.719,3.118l0.829,0.062
				l0.885,8.033c0.043,0.393,0.236,0.745,0.545,0.993c0.308,0.246,0.696,0.358,1.086,0.315l5.291-0.582
				c0.393-0.043,0.745-0.237,0.993-0.546c0.247-0.308,0.359-0.693,0.315-1.087l-0.885-8.033l0.796-0.24
				c3.623-1.095,6.915-2.903,9.782-5.377l0.63-0.542l6.308,5.055c0.309,0.247,0.691,0.359,1.088,0.317
				c0.393-0.044,0.745-0.237,0.992-0.546l3.328-4.152c0.247-0.309,0.359-0.695,0.316-1.088c-0.044-0.393-0.237-0.745-0.545-0.992
				h-0.001l-6.307-5.057l0.394-0.732c1.789-3.337,2.838-6.943,3.118-10.718l0.062-0.829l8.033-0.885
				c0.811-0.09,1.397-0.822,1.309-1.633l-0.583-5.29c-0.089-0.812-0.826-1.393-1.633-1.308l-8.033,0.884l-0.24-0.796
				c-1.095-3.624-2.903-6.915-5.376-9.782l-0.544-0.63l5.057-6.308c0.247-0.308,0.359-0.694,0.316-1.087
				c-0.044-0.393-0.237-0.745-0.545-0.992l-4.153-3.329c-0.634-0.509-1.569-0.408-2.08,0.23l-5.055,6.308l-0.733-0.394
				c-3.337-1.789-6.943-2.838-10.719-3.118l-0.829-0.062l-0.885-8.033c-0.043-0.393-0.236-0.745-0.545-0.992
				c-0.309-0.248-0.695-0.357-1.087-0.316l-5.29,0.583c-0.393,0.043-0.745,0.236-0.993,0.545c-0.247,0.309-0.359,0.694-0.315,1.086
				l0.885,8.034l-0.796,0.24c-3.623,1.095-6.915,2.903-9.782,5.377l-0.63,0.542l-6.308-5.055c-0.31-0.248-0.69-0.358-1.088-0.316
				c-0.393,0.044-0.745,0.237-0.992,0.545l-3.328,4.152c-0.247,0.309-0.359,0.695-0.316,1.088c0.044,0.393,0.237,0.745,0.545,0.992
				l6.308,5.057l-0.394,0.732c-1.789,3.337-2.838,6.943-3.118,10.719l-0.062,0.829l-8.033,0.884c-0.81,0.09-1.397,0.822-1.309,1.633
				l0.583,5.29c0.089,0.811,0.82,1.393,1.633,1.309l8.033-0.885l0.24,0.796c1.095,3.624,2.903,6.915,5.376,9.782l0.544,0.63
				l-5.057,6.308c-0.247,0.308-0.359,0.694-0.316,1.087c0.044,0.393,0.237,0.745,0.545,0.992l4.153,3.329
				c0.633,0.508,1.568,0.407,2.08-0.229L281.31,412.382z M294.766,404.343c-3.378,0-6.777-1.104-9.611-3.376
				c-3.209-2.571-5.224-6.238-5.674-10.326c-0.45-4.087,0.719-8.104,3.29-11.313c2.571-3.209,6.238-5.224,10.325-5.673
				c4.093-0.453,8.105,0.719,11.313,3.29c3.208,2.571,5.223,6.238,5.673,10.325c0.45,4.087-0.719,8.104-3.29,11.313
				C303.756,402.371,299.28,404.343,294.766,404.343z M294.807,375.56c-0.495,0-0.992,0.027-1.491,0.082
				c-3.557,0.392-6.747,2.145-8.984,4.935c-2.237,2.792-3.254,6.288-2.862,9.844c0.392,3.557,2.145,6.747,4.936,8.984l0,0
				c5.765,4.618,14.208,3.688,18.827-2.073c2.237-2.792,3.254-6.287,2.862-9.843c-0.392-3.557-2.145-6.747-4.936-8.984
				C300.759,376.582,297.838,375.56,294.807,375.56z"/>
		</g>
	</g>
	<g style="opacity:0.61;">
		<g>
			<path style="opacity:0.74;fill:#6D6CD4;" d="M166.306,186.615l1.85,152.257c0.023,1.897-1.496,3.453-3.392,3.476l-91.479,1.111
				c-1.897,0.023-3.453-1.496-3.476-3.392L67.96,187.81c-0.023-1.897,1.496-3.453,3.392-3.476l91.479-1.111
				C164.727,183.199,166.283,184.718,166.306,186.615z"/>
			<g>
				<path style="fill:#3E479B;" d="M166.636,186.554l0.11,9.046l-98.347,1.195l-0.112-9.215c-0.022-1.815,1.432-3.305,3.247-3.327
					l91.604-1.113C165.046,183.117,166.613,184.646,166.636,186.554z"/>
			</g>
		</g>
		<path style="fill:#FFFFFF;" d="M75.064,192.293c-1.116,0.009-2.032-0.893-2.04-2.009c-0.008-1.117,0.893-2.032,2.009-2.04
			c1.116-0.008,2.032,0.893,2.04,2.009C77.081,191.37,76.18,192.285,75.064,192.293z M75.039,189.053
			c-0.67,0.005-1.211,0.554-1.206,1.224c0.005,0.67,0.554,1.211,1.224,1.206c0.67-0.005,1.211-0.554,1.206-1.224
			C76.258,189.589,75.709,189.048,75.039,189.053z"/>
		<path style="fill:#FFFFFF;" d="M81.827,192.242c-1.116,0.008-2.032-0.893-2.04-2.009c-0.008-1.117,0.893-2.032,2.009-2.04
			c1.116-0.008,2.031,0.893,2.04,2.009C83.844,191.318,82.943,192.233,81.827,192.242z M81.802,189.002
			c-0.67,0.005-1.211,0.554-1.206,1.224c0.005,0.67,0.554,1.211,1.224,1.206c0.67-0.005,1.211-0.554,1.206-1.224
			C83.021,189.538,82.472,188.997,81.802,189.002z"/>
		<path style="fill:#FFFFFF;" d="M88.403,192.192c-1.116,0.008-2.032-0.893-2.04-2.009c-0.008-1.117,0.893-2.032,2.009-2.04
			c1.116-0.008,2.032,0.893,2.04,2.009C90.421,191.269,89.519,192.184,88.403,192.192z M88.378,188.952
			c-0.67,0.005-1.211,0.554-1.206,1.224c0.005,0.67,0.554,1.211,1.224,1.206c0.67-0.005,1.211-0.554,1.206-1.224
			C89.597,189.488,89.048,188.947,88.378,188.952z"/>
		<path style="fill:#FFFFFF;" d="M122.275,210.847l-45.448,0.344c-0.447,0.003-0.813-0.356-0.816-0.804
			c-0.003-0.448,0.356-0.813,0.804-0.816l45.448-0.344c0.447-0.003,0.813,0.356,0.816,0.804
			C123.082,210.479,122.722,210.844,122.275,210.847z"/>
		<path style="fill:#3E479B;" d="M137.424,210.732l-9.433,0.071c-0.447,0.003-0.813-0.356-0.816-0.804
			c-0.003-0.448,0.356-0.813,0.804-0.816l9.433-0.071c0.447-0.003,0.813,0.356,0.816,0.804
			C138.231,210.364,137.872,210.729,137.424,210.732z"/>
		<path style="fill:#FFFFFF;" d="M122.56,248.578l-45.448,0.344c-0.447,0.003-0.813-0.356-0.816-0.804
			c-0.003-0.448,0.356-0.813,0.804-0.816l45.448-0.344c0.447-0.003,0.813,0.356,0.816,0.804
			C123.367,248.21,123.008,248.575,122.56,248.578z"/>
		<path style="fill:#599AF2;" d="M137.71,248.463l-9.433,0.071c-0.447,0.003-0.813-0.356-0.816-0.804
			c-0.003-0.448,0.356-0.813,0.804-0.816l9.433-0.071c0.447-0.003,0.813,0.356,0.816,0.804
			C138.517,248.095,138.157,248.46,137.71,248.463z"/>
		<path style="fill:#599AF2;" d="M122.411,228.855l-45.448,0.344c-0.447,0.003-0.813-0.356-0.816-0.804
			c-0.003-0.448,0.356-0.813,0.804-0.816l45.448-0.344c0.447-0.003,0.813,0.356,0.816,0.804
			C123.218,228.486,122.858,228.851,122.411,228.855z"/>
		<path style="fill:#FFFFFF;" d="M137.561,228.74l-9.433,0.071c-0.447,0.003-0.813-0.356-0.816-0.804
			c-0.003-0.448,0.356-0.813,0.804-0.816l9.433-0.071c0.447-0.003,0.813,0.356,0.816,0.804
			C138.368,228.372,138.008,228.737,137.561,228.74z"/>
		<path style="fill:#3E479B;" d="M153.091,228.622l-9.433,0.071c-0.447,0.003-0.813-0.356-0.816-0.804
			c-0.003-0.448,0.357-0.813,0.804-0.816l9.433-0.071c0.447-0.003,0.813,0.356,0.816,0.804
			C153.898,228.254,153.538,228.619,153.091,228.622z"/>
		<path style="fill:#3E479B;" d="M107.192,219.823l-30.299,0.229c-0.447,0.003-0.813-0.356-0.816-0.804
			c-0.003-0.448,0.356-0.813,0.804-0.816l30.299-0.229c0.447-0.003,0.813,0.356,0.816,0.804
			C107.999,219.454,107.64,219.819,107.192,219.823z"/>
		<path style="fill:#F7A9B4;" d="M126.058,219.68l-13.292,0.101c-0.447,0.003-0.813-0.356-0.816-0.804
			c-0.003-0.448,0.356-0.813,0.804-0.816l13.292-0.101c0.447-0.003,0.813,0.356,0.816,0.804
			C126.865,219.311,126.505,219.676,126.058,219.68z"/>
		<path style="fill:#3E479B;" d="M126.201,238.656l-30.299,0.229c-0.447,0.003-0.813-0.356-0.816-0.804
			c-0.003-0.448,0.356-0.813,0.804-0.816l30.299-0.229c0.447-0.003,0.813,0.356,0.816,0.804
			C127.009,238.287,126.649,238.652,126.201,238.656z"/>
		<path style="fill:#F7A9B4;" d="M90.329,238.927l-13.291,0.101c-0.447,0.003-0.813-0.356-0.816-0.804
			c-0.003-0.448,0.356-0.813,0.804-0.816l13.291-0.101c0.447-0.003,0.813,0.356,0.816,0.804
			C91.136,238.559,90.776,238.924,90.329,238.927z"/>
		<path style="fill:#F7A9B4;" d="M122.657,261.298l-45.448,0.344c-0.447,0.003-0.813-0.356-0.816-0.804
			c-0.003-0.448,0.356-0.813,0.804-0.816l45.448-0.344c0.447-0.003,0.813,0.356,0.816,0.804
			C123.464,260.93,123.104,261.294,122.657,261.298z"/>
		<path style="fill:#3E479B;" d="M137.806,261.183l-9.433,0.071c-0.447,0.003-0.813-0.356-0.816-0.804
			c-0.003-0.448,0.356-0.813,0.804-0.816l9.433-0.071c0.447-0.003,0.813,0.356,0.816,0.804
			C138.613,260.815,138.253,261.18,137.806,261.183z"/>
		<path style="fill:#FFFFFF;" d="M122.942,299.028l-45.448,0.344c-0.447,0.003-0.813-0.356-0.816-0.804
			c-0.003-0.448,0.356-0.813,0.804-0.816l45.448-0.344c0.447-0.003,0.813,0.356,0.816,0.804
			C123.749,298.66,123.389,299.025,122.942,299.028z"/>
		<path style="fill:#599AF2;" d="M138.092,298.914l-9.433,0.071c-0.447,0.003-0.813-0.356-0.816-0.804
			c-0.003-0.448,0.356-0.813,0.804-0.816l9.433-0.071c0.447-0.003,0.813,0.356,0.816,0.804
			C138.899,298.545,138.539,298.91,138.092,298.914z"/>
		<path style="fill:#599AF2;" d="M122.793,279.306l-45.448,0.344c-0.447,0.003-0.813-0.356-0.816-0.804
			c-0.003-0.448,0.356-0.813,0.804-0.816l45.448-0.344c0.447-0.003,0.813,0.356,0.816,0.804
			C123.6,278.937,123.24,279.302,122.793,279.306z"/>
		<path style="fill:#FFFFFF;" d="M137.942,279.191l-9.433,0.071c-0.447,0.003-0.813-0.356-0.816-0.804
			c-0.003-0.448,0.357-0.813,0.804-0.816l9.433-0.071c0.447-0.003,0.813,0.356,0.816,0.804
			C138.75,278.823,138.39,279.188,137.942,279.191z"/>
		<path style="fill:#3E479B;" d="M153.473,279.073l-9.433,0.071c-0.447,0.003-0.813-0.356-0.816-0.804s0.356-0.813,0.804-0.816
			l9.432-0.071c0.447-0.003,0.813,0.356,0.816,0.804C154.28,278.705,153.92,279.07,153.473,279.073z"/>
		<path style="fill:#3E479B;" d="M107.574,270.273l-30.299,0.229c-0.447,0.003-0.813-0.356-0.816-0.804
			c-0.003-0.448,0.357-0.813,0.804-0.816l30.299-0.229c0.447-0.003,0.813,0.356,0.816,0.804
			C108.381,269.905,108.021,270.27,107.574,270.273z"/>
		<path style="fill:#F7A9B4;" d="M126.44,270.13l-13.292,0.101c-0.447,0.003-0.813-0.356-0.816-0.804
			c-0.003-0.448,0.356-0.813,0.804-0.816l13.292-0.101c0.447-0.003,0.813,0.356,0.816,0.804
			C127.247,269.762,126.887,270.127,126.44,270.13z"/>
		<path style="fill:#3E479B;" d="M126.583,289.106l-30.299,0.229c-0.447,0.003-0.813-0.356-0.816-0.804
			c-0.003-0.448,0.357-0.813,0.804-0.816l30.299-0.229c0.447-0.003,0.813,0.356,0.816,0.804
			C127.39,288.738,127.031,289.103,126.583,289.106z"/>
		<path style="fill:#F7A9B4;" d="M90.71,289.378l-13.291,0.101c-0.447,0.003-0.813-0.356-0.816-0.804
			c-0.003-0.448,0.356-0.813,0.804-0.816l13.291-0.101c0.447-0.003,0.813,0.356,0.816,0.804
			C91.518,289.009,91.158,289.374,90.71,289.378z"/>
		<path style="fill:#F7A9B4;" d="M123.03,310.695l-45.448,0.344c-0.447,0.003-0.813-0.356-0.816-0.804
			c-0.003-0.448,0.356-0.813,0.804-0.816l45.448-0.344c0.447-0.003,0.813,0.356,0.816,0.804
			C123.838,310.327,123.478,310.692,123.03,310.695z"/>
		<path style="fill:#3E479B;" d="M138.18,310.581l-9.433,0.071c-0.447,0.003-0.813-0.356-0.816-0.804
			c-0.003-0.448,0.357-0.813,0.804-0.816l9.433-0.071c0.447-0.003,0.813,0.356,0.816,0.804
			C138.987,310.212,138.627,310.577,138.18,310.581z"/>
		<path style="fill:#FFFFFF;" d="M138.36,334.405l-9.433,0.071c-0.447,0.003-0.813-0.356-0.816-0.804
			c-0.003-0.448,0.357-0.813,0.804-0.816l9.433-0.071c0.447-0.003,0.813,0.356,0.816,0.804
			C139.167,334.036,138.808,334.401,138.36,334.405z"/>
		<path style="fill:#3E479B;" d="M153.891,334.287l-9.433,0.071c-0.447,0.003-0.813-0.356-0.816-0.804
			c-0.003-0.448,0.357-0.813,0.804-0.816l9.433-0.071c0.447-0.003,0.813,0.356,0.816,0.804
			C154.698,333.919,154.338,334.284,153.891,334.287z"/>
		<path style="fill:#3E479B;" d="M107.948,319.671l-30.299,0.229c-0.447,0.003-0.813-0.356-0.816-0.804
			c-0.003-0.448,0.356-0.813,0.804-0.816l30.299-0.229c0.447-0.003,0.813,0.356,0.816,0.804
			C108.755,319.303,108.395,319.668,107.948,319.671z"/>
		<path style="fill:#F7A9B4;" d="M126.814,319.528l-13.292,0.101c-0.447,0.003-0.813-0.356-0.816-0.804
			c-0.003-0.448,0.356-0.813,0.804-0.816l13.292-0.101c0.447-0.003,0.813,0.356,0.816,0.804
			C127.621,319.16,127.261,319.525,126.814,319.528z"/>
	</g>
	<g>
		<g>
			<g>
				<g>
					<g>
						<g>
							<polygon style="fill:none;" points="152.361,130.275 153.389,133.782 153.387,129.107 							"/>
							<g>
								<polygon style="fill:none;" points="153.488,359.579 153.486,354.904 152.462,358.412 								"/>
								<path style="fill:#4C65BA;" d="M153.378,108.976l0.009,20.131l0.002,4.675l0.025,55.885l0.048,109.353l0.025,55.884
									l0.002,4.675l0.006,13.598c0.003,6.142,3.878,11.364,9.309,13.399c1.565,0.586,3.253,0.922,5.023,0.921l10.21-0.005
									l112.428-0.049c3.005-0.001,5.791-0.932,8.094-2.514c3.76-2.583,6.228-6.911,6.226-11.818l-0.116-264.201
									c-0.002-4.403-1.994-8.337-5.121-10.964c-2.492-2.093-5.703-3.357-9.211-3.356l-122.638,0.054
									C159.785,94.647,153.374,101.064,153.378,108.976z"/>
								<path style="fill:#3E479B;" d="M154.427,113.982l0.009,19.476l0.002,4.523l0.024,54.066l0.047,105.796l0.024,54.066
									l0.002,4.523l0.006,13.155c0.003,5.942,3.824,10.995,9.18,12.963c1.543,0.567,3.208,0.892,4.953,0.891l10.069-0.005
									l110.872-0.049c2.964-0.001,5.711-0.901,7.982-2.432c3.708-2.499,6.142-6.687,6.14-11.434l-0.112-255.606
									c-0.002-4.26-1.966-8.066-5.05-10.607c-2.457-2.025-5.624-3.248-9.084-3.246l-120.941,0.053
									C160.746,100.119,154.424,106.327,154.427,113.982z"/>
							</g>
						</g>
						<g>
							<path style="fill:#FFFFFF;" d="M296.772,134.848l0.094,212.33c0.001,1.897-1.536,3.435-3.433,3.436l-128.607,0.057
								c-1.897,0.001-3.435-1.536-3.436-3.433l-0.093-212.33c-0.001-1.897,1.536-3.435,3.433-3.436l128.606-0.057
								C295.233,131.415,296.771,132.952,296.772,134.848z"/>
							<g>
								<path style="fill:#599AF2;" d="M296.772,134.76l0.006,13.766l-135.475,0.06l-0.006-13.935
									c-0.001-1.815,1.47-3.288,3.286-3.289l128.732-0.057C295.223,131.305,296.771,132.851,296.772,134.76z"/>
								<g>
									<path style="fill:#FFFFFF;" d="M280.048,137.994c-0.276,0-0.5-0.224-0.5-0.5c0-0.276,0.224-0.5,0.5-0.5l10.162-0.004l0,0
										c0.276,0,0.5,0.224,0.5,0.5c0,0.276-0.224,0.5-0.5,0.5L280.048,137.994L280.048,137.994z"/>
									<path style="fill:#FFFFFF;" d="M280.049,140.59c-0.276,0-0.5-0.224-0.5-0.5c0-0.276,0.224-0.5,0.5-0.5l10.162-0.004l0,0
										c0.276,0,0.5,0.224,0.5,0.5c0,0.276-0.224,0.5-0.5,0.5L280.049,140.59L280.049,140.59z"/>
									<path style="fill:#FFFFFF;" d="M280.05,143.186c-0.276,0-0.5-0.224-0.5-0.5c0-0.276,0.224-0.5,0.5-0.5l10.162-0.004l0,0
										c0.276,0,0.5,0.224,0.5,0.5c0,0.276-0.224,0.5-0.5,0.5L280.05,143.186L280.05,143.186z"/>
								</g>
								<path style="fill:#FFFFFF;" d="M173.41,144.841c-0.128,0-0.256-0.049-0.354-0.146l-3.692-3.689
									c-0.318-0.318-0.318-0.836,0-1.154l3.547-3.55c0.195-0.195,0.512-0.195,0.707,0c0.195,0.195,0.195,0.512,0,0.707
									l-3.417,3.42l3.563,3.559c0.195,0.195,0.195,0.512,0,0.707C173.665,144.792,173.538,144.841,173.41,144.841z"/>
							</g>
						</g>
						<path style="fill:#FFFFFF;" d="M229.153,118.708c-2.022,0-3.667-1.644-3.668-3.666c-0.001-2.022,1.643-3.668,3.666-3.669
							c0,0,0.001,0,0.001,0c2.022,0,3.667,1.644,3.668,3.666c0.001,2.022-1.643,3.668-3.666,3.669
							C229.154,118.708,229.154,118.708,229.153,118.708z M229.153,112.927c-0.001,0-0.001,0-0.001,0
							c-1.165,0.001-2.113,0.949-2.112,2.115c0.001,1.165,0.948,2.112,2.114,2.112c0.001,0,0.001,0,0.002,0
							c0.564,0,1.095-0.221,1.494-0.62c0.399-0.4,0.618-0.93,0.618-1.495c0-0.564-0.221-1.095-0.62-1.494
							C230.248,113.146,229.717,112.927,229.153,112.927z"/>
						<path style="fill:#FFFFFF;" d="M225.665,377.022c-1.297,0-2.354-1.056-2.354-2.353l-0.003-6.95
							c-0.001-1.297,1.054-2.353,2.352-2.354l6.952-0.003c1.298,0,2.354,1.056,2.354,2.353l0.003,6.951
							c0.001,1.297-1.054,2.353-2.352,2.354L225.665,377.022z M232.611,366.362l-6.951,0.003c-0.746,0.001-1.353,0.608-1.352,1.354
							l0.003,6.95c0,0.746,0.608,1.353,1.354,1.353l6.951-0.003c0.746-0.001,1.353-0.607,1.352-1.354l-0.003-6.951
							C233.965,366.969,233.357,366.362,232.611,366.362z"/>
						<g>
							<path style="fill:#FFFFFF;" d="M183.795,367.497c-0.276,0-0.5-0.224-0.5-0.5c0-0.276,0.224-0.5,0.5-0.5l6.691-0.003l0,0
								c0.276,0,0.5,0.224,0.5,0.5c0,0.276-0.224,0.5-0.5,0.5L183.795,367.497L183.795,367.497z"/>
							<path style="fill:#FFFFFF;" d="M183.796,371.112c-0.276,0-0.5-0.224-0.5-0.5s0.224-0.5,0.5-0.5l6.691-0.003l0,0
								c0.276,0,0.5,0.224,0.5,0.5c0,0.276-0.224,0.5-0.5,0.5L183.796,371.112L183.796,371.112z"/>
							<path style="fill:#FFFFFF;" d="M183.798,374.771c-0.276,0-0.5-0.224-0.5-0.5s0.224-0.5,0.5-0.5l6.691-0.003l0,0
								c0.276,0,0.5,0.224,0.5,0.5c0,0.276-0.224,0.5-0.5,0.5L183.798,374.771L183.798,374.771z"/>
						</g>
						<path style="fill:#FFFFFF;" d="M276.18,377c-0.128,0-0.256-0.049-0.353-0.147l-5.262-5.258l5.123-5.127
							c0.195-0.195,0.512-0.195,0.707,0c0.195,0.195,0.195,0.512,0,0.707l-4.416,4.42l4.555,4.551c0.195,0.195,0.195,0.512,0,0.707
							C276.435,376.951,276.308,377,276.18,377z"/>
					</g>
				</g>
			</g>
		</g>
		<g>
			<rect x="161.518" y="148.77" style="opacity:0.36;fill:#599AF2;" width="135.269" height="44.302"/>
			<path style="opacity:0.43;fill:#FFFFFF;" d="M222.567,168.697L174,168.718c-0.78,0-1.412-0.631-1.412-1.411l-0.004-8.157
				c0-0.78,0.632-1.412,1.411-1.412l48.567-0.021c0.78,0,1.412,0.632,1.412,1.411l0.004,8.157
				C223.979,168.064,223.347,168.697,222.567,168.697z"/>
			<path style="opacity:0.43;fill:#FFFFFF;" d="M249.256,180.325l-75.25,0.033c-0.78,0-1.412-0.631-1.412-1.411l-0.001-2.667
				c0-0.78,0.631-1.412,1.411-1.412l75.25-0.033c0.78,0,1.412,0.631,1.412,1.411l0.001,2.667
				C250.667,179.692,250.035,180.325,249.256,180.325z"/>
			<path style="opacity:0.43;fill:#FFFFFF;" d="M280.128,179.42c-2.773,0-5.381-1.079-7.343-3.039
				c-1.963-1.962-3.045-4.57-3.046-7.345c-0.002-2.775,1.078-5.384,3.039-7.347c1.961-1.963,4.569-3.044,7.345-3.046
				c0.001,0,0.003,0,0.005,0c2.773,0,5.38,1.079,7.342,3.04c1.963,1.961,3.045,4.569,3.046,7.344l0,0
				c0.002,2.775-1.078,5.384-3.039,7.348c-1.961,1.963-4.569,3.044-7.345,3.046C280.131,179.42,280.13,179.42,280.128,179.42z
				 M280.128,160.643c-0.002,0-0.003,0-0.005,0c-2.24,0.001-4.346,0.874-5.93,2.459c-1.584,1.586-2.455,3.692-2.454,5.933
				c0.001,2.241,0.874,4.347,2.459,5.931c1.585,1.583,3.691,2.455,5.93,2.455c0.001,0,0.002,0,0.004,0
				c2.24-0.001,4.346-0.874,5.93-2.459c1.584-1.585,2.455-3.692,2.454-5.933l0,0c-0.001-2.241-0.874-4.347-2.459-5.931
				C284.473,161.515,282.367,160.643,280.128,160.643z"/>
		</g>
		<g>
			<g>
				<g>
					<g>
						<path style="fill:#4C65BA;" d="M200.434,240.628l-22.378,0.01c-2.516,0.001-4.556-2.037-4.557-4.553l-0.01-22.378
							c-0.001-2.516,2.037-4.556,4.553-4.557l22.378-0.01c2.516-0.001,4.556,2.037,4.557,4.553l0.01,22.378
							C204.988,238.587,202.95,240.627,200.434,240.628z"/>
						<g style="opacity:0.36;">
							<path style="fill:#599AF2;" d="M196.034,225.041c0.002,3.753-3.039,6.797-6.792,6.798c-3.753,0.002-6.797-3.039-6.798-6.792
								c-0.002-3.753,3.039-6.797,6.792-6.798C192.988,218.247,196.032,221.288,196.034,225.041z"/>
						</g>
					</g>
					<g style="opacity:0.26;">
						<path style="fill:#3E479B;" d="M229.31,219.685l-17.707,0.008c-0.629,0-1.139-0.509-1.139-1.138l-0.002-3.371
							c0-0.629,0.509-1.138,1.138-1.139l17.707-0.008c0.629,0,1.139,0.509,1.139,1.138l0.002,3.371
							C230.448,219.174,229.939,219.684,229.31,219.685z"/>
						<path style="fill:#3E479B;" d="M210.468,228.372c-0.552,0-0.999-0.447-1-0.999c0-0.552,0.447-1,0.999-1.001l34.103-0.015h0
							c0.552,0,1,0.447,1,0.999c0,0.552-0.447,1-0.999,1.001L210.468,228.372L210.468,228.372z"/>
						<path style="fill:#3E479B;" d="M210.471,235.508c-0.552,0-1-0.447-1-0.999c0-0.552,0.447-1.001,0.999-1.001l55.608-0.024l0,0
							c0.552,0,1,0.447,1,0.999s-0.447,1.001-1,1.001L210.471,235.508L210.471,235.508z"/>
						<path style="fill:#3E479B;" d="M252.174,228.354c-0.552,0-1-0.447-1-0.999c0-0.552,0.447-1.001,1-1.001l34.103-0.015l0,0
							c0.552,0,1,0.447,1,0.999c0,0.552-0.447,1.001-1,1.001L252.174,228.354L252.174,228.354z"/>
					</g>
				</g>
				<g>
					<g>
						<g>
							<path style="fill:#599AF2;" d="M200.474,332.235l-22.378,0.01c-2.516,0.001-4.556-2.037-4.557-4.553l-0.01-22.378
								c-0.001-2.516,2.037-4.556,4.553-4.557l22.378-0.01c2.516-0.001,4.556,2.037,4.557,4.553l0.01,22.378
								C205.029,330.193,202.99,332.233,200.474,332.235z"/>
						</g>
						<g style="opacity:0.57;">
							<path style="fill:#3E479B;" d="M196.074,316.647c0.002,3.753-3.039,6.797-6.792,6.798c-3.753,0.002-6.796-3.039-6.798-6.792
								c-0.002-3.753,3.039-6.797,6.792-6.798C193.029,309.854,196.072,312.895,196.074,316.647z"/>
						</g>
					</g>
					<g style="opacity:0.26;">
						<path style="fill:#3E479B;" d="M229.351,311.291l-17.707,0.008c-0.629,0-1.139-0.509-1.139-1.138l-0.001-3.371
							c0-0.629,0.509-1.138,1.138-1.139l17.708-0.008c0.629,0,1.138,0.509,1.139,1.138l0.002,3.371
							C230.489,310.781,229.979,311.291,229.351,311.291z"/>
						<path style="fill:#3E479B;" d="M210.508,319.978c-0.552,0-1-0.447-1-1c0-0.552,0.447-1,1-1l34.103-0.015h0.001
							c0.552,0,1,0.447,1,1c0,0.552-0.447,1-1,1L210.508,319.978L210.508,319.978z"/>
						<path style="fill:#3E479B;" d="M210.511,327.115c-0.552,0-1-0.447-1-1c0-0.552,0.447-1,1-1l55.608-0.024l0,0
							c0.552,0,1,0.447,1,1c0,0.552-0.447,1-1,1L210.511,327.115L210.511,327.115z"/>
						<path style="fill:#3E479B;" d="M252.214,319.96c-0.552,0-1-0.447-1-1c0-0.552,0.447-1,1-1l34.103-0.015l0,0
							c0.552,0,1,0.447,1,1c0,0.552-0.447,1-1,1L252.214,319.96L252.214,319.96z"/>
					</g>
				</g>
				<g>
					<g>
						<path style="fill:#F7A9B4;" d="M200.454,286.325l-22.378,0.01c-2.516,0.001-4.556-2.037-4.557-4.553l-0.01-22.378
							c-0.001-2.516,2.037-4.556,4.553-4.557l22.378-0.01c2.516-0.001,4.556,2.037,4.557,4.553l0.01,22.378
							C205.008,284.284,202.97,286.324,200.454,286.325z"/>
						<path style="opacity:0.43;fill:#FFFFFF;" d="M196.054,270.738c0.002,3.753-3.039,6.797-6.792,6.798
							c-3.753,0.002-6.796-3.039-6.798-6.792c-0.002-3.753,3.039-6.797,6.792-6.798
							C193.008,263.944,196.052,266.985,196.054,270.738z"/>
					</g>
					<g style="opacity:0.26;">
						<path style="fill:#3E479B;" d="M229.33,265.382l-17.708,0.008c-0.629,0-1.139-0.509-1.139-1.138l-0.001-3.371
							c0-0.629,0.509-1.138,1.138-1.139l17.708-0.008c0.629,0,1.138,0.509,1.139,1.138l0.001,3.371
							C230.468,264.872,229.959,265.382,229.33,265.382z"/>
						<path style="fill:#3E479B;" d="M210.488,274.069c-0.552,0-1-0.447-1-1c0-0.552,0.447-1,0.999-1l15.773-0.007h0.001
							c0.552,0,1,0.447,1,1c0,0.552-0.447,1-0.999,1L210.488,274.069L210.488,274.069z"/>
						<path style="fill:#3E479B;" d="M210.491,281.206c-0.552,0-0.999-0.447-1-1c-0.001-0.552,0.447-1,0.999-1l32.365-0.015h0
							c0.552,0,1,0.447,1,1c0.001,0.552-0.447,1-0.999,1L210.491,281.206L210.491,281.206z"/>
						<path style="fill:#3E479B;" d="M232.861,274.06c-0.552,0-1-0.447-1-1c0-0.552,0.447-1,0.999-1l31.497-0.014l0,0
							c0.552,0,1,0.447,1,1c0,0.552-0.447,1-1,1L232.861,274.06L232.861,274.06z"/>
						<path style="fill:#3E479B;" d="M270.223,274.043c-0.552,0-1-0.447-1-1c0-0.552,0.447-1,1-1l15.774-0.007l0,0
							c0.552,0,1,0.447,1,1c0,0.552-0.447,1-1,1L270.223,274.043L270.223,274.043z"/>
					</g>
				</g>
			</g>
		</g>
	</g>
	<g>
		<g>
			<g>
				<path style="opacity:0.39;fill:#FFFFFF;" d="M399.514,286.806l1.309,107.726c0.023,1.897-1.496,3.453-3.392,3.476l-63.956,0.777
					c-1.897,0.023-3.453-1.496-3.476-3.392l-1.309-107.726c-0.023-1.897,1.496-3.453,3.392-3.476l63.956-0.777
					C397.935,283.391,399.491,284.91,399.514,286.806z"/>
				<path style="opacity:0.39;fill:#F7A9B4;" d="M399.514,286.806l1.309,107.726c0.023,1.897-1.496,3.453-3.392,3.476l-63.956,0.777
					c-1.897,0.023-3.453-1.496-3.476-3.392l-1.309-107.726c-0.023-1.897,1.496-3.453,3.392-3.476l63.956-0.777
					C397.935,283.391,399.491,284.91,399.514,286.806z"/>
				<g>
					<path style="fill:#F7A9B4;" d="M399.751,286.769l0.067,5.547l-70.824,0.86l-0.069-5.716c-0.022-1.815,1.432-3.305,3.247-3.327
						l64.081-0.779C398.162,283.332,399.728,284.86,399.751,286.769z"/>
				</g>
			</g>
			<path style="fill:#FFFFFF;" d="M333.794,289.934c-0.804,0.006-1.463-0.643-1.469-1.447c-0.006-0.804,0.643-1.463,1.447-1.469
				c0.804-0.006,1.463,0.643,1.469,1.447C335.247,289.269,334.598,289.928,333.794,289.934z M333.776,287.601
				c-0.482,0.004-0.872,0.399-0.868,0.881c0.004,0.482,0.399,0.872,0.882,0.868c0.482-0.004,0.872-0.399,0.868-0.882
				C334.654,287.987,334.259,287.598,333.776,287.601z"/>
			<path style="fill:#FFFFFF;" d="M338.664,289.897c-0.804,0.006-1.463-0.643-1.469-1.447s0.643-1.463,1.447-1.469
				c0.804-0.006,1.463,0.643,1.469,1.447C340.117,289.232,339.468,289.891,338.664,289.897z M338.647,287.564
				c-0.483,0.004-0.872,0.399-0.868,0.882c0.004,0.482,0.399,0.872,0.882,0.868c0.482-0.004,0.872-0.399,0.868-0.882
				C339.525,287.95,339.129,287.561,338.647,287.564z"/>
			<path style="fill:#FFFFFF;" d="M343.4,289.862c-0.804,0.006-1.463-0.643-1.469-1.447c-0.006-0.804,0.643-1.463,1.447-1.469
				c0.804-0.006,1.463,0.643,1.469,1.447C344.853,289.197,344.204,289.855,343.4,289.862z M343.383,287.529
				c-0.483,0.004-0.872,0.399-0.868,0.881c0.004,0.482,0.399,0.872,0.882,0.868c0.482-0.004,0.872-0.399,0.868-0.881
				C344.26,287.914,343.865,287.525,343.383,287.529z"/>
			<path style="fill:#FFFFFF;" d="M367.793,303.296l-32.729,0.248c-0.322,0.003-0.585-0.256-0.588-0.579
				c-0.002-0.322,0.257-0.585,0.579-0.588l32.73-0.248c0.322-0.003,0.585,0.256,0.588,0.579
				C368.374,303.03,368.115,303.293,367.793,303.296z"/>
			<path style="fill:#FFFFFF;" d="M378.703,303.213l-6.793,0.052c-0.322,0.002-0.585-0.257-0.588-0.579
				c-0.003-0.322,0.257-0.585,0.579-0.588l6.793-0.051c0.322-0.003,0.585,0.256,0.588,0.579
				C379.284,302.948,379.025,303.211,378.703,303.213z"/>
			<path style="fill:#FFFFFF;" d="M367.999,330.468l-32.729,0.248c-0.322,0.002-0.585-0.256-0.588-0.579
				c-0.003-0.322,0.257-0.585,0.579-0.588l32.729-0.248c0.322-0.003,0.585,0.256,0.588,0.579
				C368.58,330.203,368.321,330.465,367.999,330.468z"/>
			<path style="fill:#FFFFFF;" d="M378.909,330.385l-6.793,0.052c-0.322,0.002-0.585-0.257-0.588-0.579
				c-0.002-0.322,0.257-0.585,0.579-0.588l6.793-0.051c0.322-0.003,0.585,0.256,0.588,0.579
				C379.49,330.12,379.231,330.383,378.909,330.385z"/>
			<path style="fill:#FFFFFF;" d="M367.891,316.264l-32.729,0.248c-0.322,0.002-0.585-0.257-0.588-0.579
				c-0.003-0.322,0.257-0.585,0.579-0.588l32.729-0.248c0.322-0.002,0.585,0.256,0.588,0.579
				C368.472,315.999,368.213,316.262,367.891,316.264z"/>
			<path style="fill:#FFFFFF;" d="M378.801,316.181l-6.793,0.052c-0.322,0.002-0.585-0.257-0.588-0.579
				c-0.002-0.322,0.257-0.585,0.579-0.588l6.793-0.051c0.322-0.002,0.585,0.256,0.588,0.579
				C379.382,315.916,379.123,316.179,378.801,316.181z"/>
			<path style="fill:#FFFFFF;" d="M389.985,316.097l-6.793,0.051c-0.322,0.002-0.585-0.256-0.588-0.579
				c-0.003-0.322,0.257-0.585,0.579-0.588l6.793-0.052c0.322-0.002,0.585,0.257,0.588,0.579
				C390.567,315.832,390.307,316.095,389.985,316.097z"/>
			<path style="fill:#FFFFFF;" d="M356.931,309.76l-21.82,0.165c-0.322,0.002-0.585-0.257-0.588-0.579
				c-0.002-0.322,0.257-0.585,0.579-0.588l21.82-0.165c0.322-0.003,0.585,0.256,0.588,0.579
				C357.513,309.495,357.254,309.757,356.931,309.76z"/>
			<path style="fill:#FFFFFF;" d="M370.517,309.657l-9.572,0.073c-0.322,0.002-0.585-0.257-0.588-0.579
				c-0.002-0.322,0.257-0.585,0.579-0.588l9.572-0.073c0.322-0.002,0.585,0.257,0.588,0.579
				C371.099,309.392,370.84,309.655,370.517,309.657z"/>
			<path style="fill:#FFFFFF;" d="M370.621,323.322l-21.82,0.165c-0.322,0.003-0.585-0.256-0.588-0.579
				c-0.003-0.322,0.257-0.585,0.579-0.588l21.82-0.165c0.322-0.002,0.585,0.256,0.588,0.579
				C371.202,323.057,370.943,323.32,370.621,323.322z"/>
			<path style="fill:#FFFFFF;" d="M344.787,323.518l-9.572,0.072c-0.322,0.003-0.585-0.256-0.588-0.579
				c-0.002-0.322,0.257-0.585,0.579-0.588l9.572-0.072c0.322-0.002,0.585,0.257,0.588,0.579
				C345.368,323.253,345.109,323.516,344.787,323.518z"/>
			<path style="fill:#FFFFFF;" d="M368.068,339.628l-32.729,0.248c-0.322,0.002-0.585-0.257-0.588-0.579
				c-0.002-0.322,0.257-0.585,0.579-0.588l32.729-0.248c0.322-0.002,0.585,0.256,0.588,0.579
				C368.649,339.363,368.39,339.626,368.068,339.628z"/>
			<path style="fill:#FFFFFF;" d="M378.978,339.546l-6.793,0.051c-0.322,0.002-0.585-0.257-0.588-0.579
				c-0.003-0.322,0.257-0.585,0.579-0.588l6.793-0.051c0.322-0.002,0.585,0.257,0.588,0.579
				C379.559,339.28,379.3,339.543,378.978,339.546z"/>
			<path style="fill:#FFFFFF;" d="M368.274,366.799l-32.729,0.248c-0.322,0.002-0.585-0.256-0.588-0.579
				c-0.003-0.322,0.257-0.585,0.579-0.588l32.73-0.248c0.322-0.002,0.585,0.257,0.588,0.579
				C368.855,366.534,368.596,366.797,368.274,366.799z"/>
			<path style="fill:#FFFFFF;" d="M379.184,366.717l-6.793,0.051c-0.322,0.003-0.585-0.256-0.588-0.579
				c-0.002-0.322,0.257-0.585,0.579-0.588l6.793-0.051c0.322-0.002,0.585,0.256,0.588,0.579
				C379.765,366.452,379.506,366.715,379.184,366.717z"/>
			<path style="fill:#FFFFFF;" d="M368.166,352.596l-32.729,0.248c-0.322,0.002-0.585-0.257-0.588-0.579
				c-0.003-0.322,0.257-0.585,0.579-0.588l32.729-0.248c0.322-0.002,0.585,0.256,0.588,0.579S368.488,352.594,368.166,352.596z"/>
			<path style="fill:#FFFFFF;" d="M379.076,352.514l-6.793,0.051c-0.322,0.002-0.585-0.256-0.588-0.579
				c-0.002-0.322,0.257-0.585,0.579-0.588l6.793-0.051c0.322-0.002,0.585,0.257,0.588,0.579
				C379.658,352.249,379.398,352.511,379.076,352.514z"/>
			<path style="fill:#FFFFFF;" d="M390.26,352.429l-6.793,0.051c-0.322,0.003-0.585-0.256-0.588-0.579
				c-0.003-0.322,0.257-0.585,0.579-0.588l6.793-0.051c0.322-0.003,0.585,0.256,0.588,0.579
				C390.842,352.164,390.582,352.427,390.26,352.429z"/>
			<path style="fill:#FFFFFF;" d="M357.206,346.091l-21.82,0.165c-0.322,0.002-0.585-0.257-0.588-0.579
				c-0.002-0.322,0.257-0.585,0.579-0.588l21.82-0.165c0.322-0.002,0.585,0.257,0.588,0.579
				C357.788,345.826,357.529,346.089,357.206,346.091z"/>
			<path style="fill:#FFFFFF;" d="M370.792,345.989l-9.572,0.072c-0.322,0.003-0.585-0.256-0.588-0.579
				c-0.002-0.322,0.257-0.585,0.579-0.588l9.572-0.072c0.322-0.002,0.585,0.257,0.588,0.579
				C371.374,345.723,371.115,345.986,370.792,345.989z"/>
			<path style="fill:#FFFFFF;" d="M370.896,359.654l-21.82,0.165c-0.322,0.002-0.585-0.257-0.588-0.579
				c-0.002-0.322,0.257-0.585,0.579-0.588l21.82-0.165c0.322-0.003,0.585,0.256,0.588,0.579
				C371.477,359.389,371.218,359.652,370.896,359.654z"/>
			<path style="fill:#FFFFFF;" d="M345.062,359.85l-9.572,0.072c-0.322,0.003-0.585-0.256-0.588-0.579
				c-0.002-0.322,0.257-0.585,0.579-0.588l9.572-0.073c0.322-0.002,0.585,0.257,0.588,0.579
				C345.643,359.584,345.384,359.847,345.062,359.85z"/>
			<path style="fill:#FFFFFF;" d="M368.337,375.202l-32.73,0.248c-0.322,0.002-0.585-0.257-0.588-0.579
				c-0.003-0.322,0.257-0.585,0.579-0.588l32.729-0.248c0.322-0.002,0.585,0.256,0.588,0.579
				C368.919,374.936,368.659,375.199,368.337,375.202z"/>
			<path style="fill:#FFFFFF;" d="M379.247,375.119l-6.793,0.051c-0.322,0.002-0.585-0.257-0.588-0.579
				c-0.002-0.322,0.257-0.585,0.579-0.588l6.793-0.051c0.322-0.002,0.585,0.256,0.588,0.579
				C379.829,374.854,379.569,375.117,379.247,375.119z"/>
			<path style="fill:#FFFFFF;" d="M379.377,392.276l-6.793,0.051c-0.322,0.003-0.585-0.256-0.588-0.579
				c-0.003-0.322,0.257-0.585,0.579-0.588l6.793-0.051c0.322-0.003,0.585,0.256,0.588,0.579
				C379.958,392.011,379.699,392.273,379.377,392.276z"/>
			<path style="fill:#FFFFFF;" d="M390.561,392.191l-6.793,0.051c-0.322,0.002-0.585-0.257-0.588-0.579
				c-0.002-0.322,0.257-0.585,0.579-0.588l6.793-0.051c0.322-0.002,0.585,0.257,0.588,0.579
				C391.143,391.926,390.883,392.189,390.561,392.191z"/>
			<path style="fill:#FFFFFF;" d="M357.476,381.666l-21.82,0.165c-0.322,0.003-0.585-0.256-0.588-0.579
				c-0.003-0.322,0.257-0.585,0.579-0.588l21.819-0.165c0.322-0.002,0.585,0.256,0.588,0.579
				C358.057,381.4,357.798,381.663,357.476,381.666z"/>
			<path style="fill:#FFFFFF;" d="M371.062,381.563l-9.572,0.072c-0.322,0.002-0.585-0.257-0.588-0.579
				c-0.002-0.322,0.257-0.585,0.579-0.588l9.572-0.072c0.322-0.003,0.585,0.256,0.588,0.579
				C371.643,381.297,371.384,381.56,371.062,381.563z"/>
		</g>
		<g>
			<g>
				<path style="opacity:0.22;fill:#3E479B;" d="M419.45,122.519l1.316,128.842c0.019,1.897-1.503,3.45-3.399,3.469l-77.007,0.787
					c-1.897,0.019-3.45-1.503-3.469-3.399l-1.316-128.842c-0.019-1.897,1.502-3.45,3.399-3.469l77.007-0.787
					C417.877,119.101,419.43,120.623,419.45,122.519z"/>
				<path style="fill:#FFFFFF;" d="M414.863,116.552l1.316,128.842c0.019,1.897-1.503,3.45-3.399,3.469l-77.007,0.786
					c-1.897,0.019-3.45-1.503-3.469-3.399l-1.316-128.842c-0.019-1.897,1.502-3.45,3.399-3.469l77.007-0.786
					C413.29,113.134,414.844,114.656,414.863,116.552z"/>
				<g>
					<path style="fill:#599AF2;" d="M415.144,116.504l0.074,7.206l-83.875,0.857l-0.075-7.375c-0.019-1.815,1.438-3.302,3.254-3.321
						l77.132-0.788C413.561,113.064,415.125,114.596,415.144,116.504z"/>
					<g>
						<path style="fill:#FFFFFF;" d="M404.793,117.482c-0.273,0-0.497-0.221-0.5-0.495c-0.003-0.276,0.219-0.502,0.495-0.505
							l6.291-0.064c0.243-0.038,0.502,0.218,0.505,0.495c0.003,0.276-0.219,0.502-0.495,0.505l-6.291,0.064
							C404.796,117.482,404.795,117.482,404.793,117.482z"/>
						<path style="fill:#FFFFFF;" d="M404.81,119.089c-0.273,0-0.497-0.221-0.5-0.495c-0.003-0.276,0.219-0.502,0.495-0.505
							l6.291-0.064c0.227,0.007,0.502,0.219,0.505,0.495c0.003,0.276-0.219,0.502-0.495,0.505l-6.291,0.064
							C404.813,119.089,404.811,119.089,404.81,119.089z"/>
						<path style="fill:#FFFFFF;" d="M404.826,120.696c-0.274,0-0.497-0.221-0.5-0.495c-0.003-0.276,0.219-0.502,0.495-0.505
							l6.291-0.064c0.002,0,0.003,0,0.005,0c0.273,0,0.497,0.221,0.5,0.495c0.003,0.276-0.219,0.502-0.495,0.505l-6.291,0.064
							C404.829,120.696,404.828,120.696,404.826,120.696z"/>
					</g>
					<path style="fill:#FFFFFF;" d="M338.813,122.367c-0.126,0-0.253-0.047-0.35-0.143l-2.309-2.262
						c-0.273-0.268-0.278-0.709-0.012-0.983l2.176-2.221c0.195-0.196,0.512-0.201,0.707-0.007c0.197,0.193,0.201,0.51,0.008,0.707
						l-1.962,2.002l2.091,2.049c0.197,0.193,0.201,0.51,0.008,0.707C339.071,122.316,338.942,122.367,338.813,122.367z"/>
				</g>
				<path style="opacity:0.36;fill:#599AF2;" d="M412.599,249.093l-77.267,0.435c-1.864,0.01-3.384-1.492-3.394-3.356l-0.151-26.776
					l84.017-0.473l0.151,26.776C415.966,247.563,414.464,249.083,412.599,249.093z"/>
				<path style="fill:#4C65BA;" d="M390.243,142.846l-33.752,0.19c-0.617,0.003-1.121-0.494-1.124-1.111l-0.021-3.695
					c-0.003-0.617,0.494-1.12,1.111-1.124l33.752-0.19c0.617-0.003,1.12,0.494,1.124,1.111l0.021,3.696
					C391.357,142.339,390.86,142.842,390.243,142.846z"/>
				<g>
					<path style="opacity:0.32;fill:#599AF2;" d="M401.006,167.002L346,167.312c-2.614,0.015-4.744-2.092-4.759-4.706l-0.007-1.16
						c-0.015-2.614,2.092-4.744,4.706-4.759l55.005-0.31c2.614-0.015,4.744,2.092,4.759,4.706l0.007,1.16
						C405.726,164.857,403.62,166.987,401.006,167.002z"/>
					<g>
						<path style="opacity:0.43;fill:#FFFFFF;" d="M350.067,162.017c0.01,1.806-1.446,3.279-3.252,3.289
							c-1.806,0.01-3.279-1.446-3.289-3.252c-0.01-1.806,1.446-3.279,3.252-3.289C348.585,158.755,350.057,160.211,350.067,162.017z
							"/>
						<g>
							<path style="fill:#FFFFFF;" d="M347.969,161.095c0.004,0.651-0.521,1.181-1.172,1.185c-0.651,0.004-1.181-0.521-1.185-1.172
								c-0.004-0.651,0.521-1.181,1.172-1.185C347.435,159.919,347.966,160.444,347.969,161.095z"/>
							<path style="fill:#FFFFFF;" d="M348.555,164.139l-3.494,0.02l-0.002-0.43c-0.006-1.014,0.811-1.84,1.825-1.846l0,0
								c0.916-0.005,1.662,0.733,1.668,1.649L348.555,164.139z"/>
						</g>
					</g>
				</g>
				<g>
					<path style="opacity:0.32;fill:#599AF2;" d="M401.103,184.313l-55.005,0.31c-2.614,0.015-4.744-2.092-4.759-4.706l-0.007-1.16
						c-0.015-2.614,2.092-4.744,4.706-4.759l55.005-0.31c2.614-0.015,4.744,2.092,4.759,4.706l0.007,1.16
						C405.824,182.167,403.717,184.298,401.103,184.313z"/>
					<g>
						<path style="opacity:0.43;fill:#FFFFFF;" d="M350.165,179.328c0.01,1.806-1.446,3.279-3.252,3.289
							c-1.806,0.01-3.279-1.446-3.289-3.252c-0.01-1.806,1.446-3.279,3.252-3.289C348.682,176.066,350.154,177.522,350.165,179.328z
							"/>
						<g>
							<path style="fill:#FFFFFF;" d="M348.004,181.4l-2.197,0.012c-0.179,0.001-0.324-0.143-0.325-0.322l-0.011-1.953
								c-0.001-0.179,0.143-0.324,0.322-0.325l2.197-0.012c0.179-0.001,0.324,0.143,0.325,0.322l0.011,1.953
								C348.327,181.253,348.183,181.398,348.004,181.4z"/>
							<path style="fill:#FFFFFF;" d="M345.748,179.045l-0.004-0.808c-0.002-0.213,0.08-0.415,0.23-0.567
								c0.15-0.152,0.351-0.237,0.565-0.238l0.742-0.004c0.002,0,0.003,0,0.005,0c0.19,0,0.37,0.074,0.506,0.208
								c0.136,0.135,0.211,0.315,0.212,0.507l0.006,0.888l-0.25,0.002l-0.006-0.889c0-0.125-0.05-0.243-0.139-0.331
								c-0.088-0.087-0.205-0.136-0.329-0.136c-0.001,0-0.002,0-0.003,0l-0.742,0.004c-0.147,0.001-0.285,0.059-0.389,0.164
								c-0.103,0.105-0.159,0.243-0.158,0.39l0.004,0.808L345.748,179.045z"/>
						</g>
					</g>
				</g>
				<path style="fill:#F7A9B4;" d="M386.629,203.65l-23.728,0.134c-2.872,0.016-5.214-2.299-5.23-5.171v0
					c-0.016-2.872,2.299-5.214,5.171-5.23l23.727-0.134c2.872-0.016,5.214,2.299,5.23,5.171l0,0
					C391.816,201.293,389.501,203.634,386.629,203.65z"/>
			</g>
			<path style="fill:#FFFFFF;" d="M350.895,230.438c-0.55,0-0.997-0.444-1-0.994c-0.003-0.553,0.442-1.003,0.994-1.006l45.918-0.259
				c0.002,0,0.004,0,0.006,0c0.55,0,0.997,0.444,1,0.994c0.003,0.553-0.442,1.003-0.994,1.006l-45.918,0.259
				C350.898,230.438,350.896,230.438,350.895,230.438z"/>
			<path style="fill:#FFFFFF;" d="M360.241,237.343c-0.55,0-0.997-0.444-1-0.994c-0.003-0.553,0.442-1.003,0.994-1.006l27.303-0.154
				c0.002,0,0.004,0,0.006,0c0.55,0,0.997,0.444,1,0.994c0.003,0.553-0.442,1.003-0.994,1.006l-27.303,0.154
				C360.245,237.343,360.243,237.343,360.241,237.343z"/>
		</g>
		<g>
			<g>
				<path style="opacity:0.22;fill:#3E479B;" d="M360.802,209.99l1.316,128.842c0.019,1.897-1.502,3.45-3.399,3.469l-77.007,0.786
					c-1.897,0.019-3.45-1.502-3.469-3.399l-1.316-128.842c-0.019-1.897,1.503-3.45,3.399-3.469l77.007-0.787
					C359.229,206.571,360.783,208.093,360.802,209.99z"/>
				<path style="fill:#FFFFFF;" d="M356.215,204.023l1.316,128.842c0.019,1.897-1.502,3.45-3.399,3.469l-77.007,0.787
					c-1.897,0.019-3.45-1.502-3.469-3.399l-1.316-128.842c-0.019-1.897,1.503-3.45,3.399-3.469l77.007-0.786
					C354.643,200.604,356.196,202.126,356.215,204.023z"/>
				<path style="opacity:0.42;fill:#599AF2;" d="M356.215,204.023l1.316,128.842c0.019,1.897-1.502,3.45-3.399,3.469l-77.007,0.787
					c-1.897,0.019-3.45-1.502-3.469-3.399l-1.316-128.842c-0.019-1.897,1.503-3.45,3.399-3.469l77.007-0.786
					C354.643,200.604,356.196,202.126,356.215,204.023z"/>
				<g>
					<path style="fill:#599AF2;" d="M356.496,203.975l0.074,7.206l-83.875,0.857l-0.075-7.376c-0.018-1.815,1.438-3.302,3.254-3.321
						l77.132-0.788C354.914,200.535,356.477,202.066,356.496,203.975z"/>
					<g>
						<path style="fill:#FFFFFF;" d="M346.145,204.952c-0.273,0-0.497-0.221-0.5-0.495c-0.003-0.276,0.219-0.502,0.495-0.505
							l6.291-0.064c0.233-0.003,0.502,0.219,0.505,0.495c0.003,0.276-0.219,0.502-0.495,0.505l-6.291,0.064
							C346.148,204.952,346.147,204.952,346.145,204.952z"/>
						<path style="fill:#FFFFFF;" d="M346.162,206.56c-0.273,0-0.497-0.221-0.5-0.495c-0.003-0.276,0.219-0.502,0.495-0.505
							l6.291-0.064c0.002,0,0.003,0,0.005,0c0.273,0,0.497,0.221,0.5,0.495c0.003,0.276-0.219,0.502-0.495,0.505l-6.291,0.064
							C346.165,206.56,346.164,206.56,346.162,206.56z"/>
						<path style="fill:#FFFFFF;" d="M346.179,208.167c-0.273,0-0.497-0.221-0.5-0.495c-0.003-0.276,0.219-0.502,0.495-0.505
							l6.291-0.064c0.002,0,0.003,0,0.005,0c0.273,0,0.497,0.221,0.5,0.495c0.003,0.276-0.219,0.502-0.495,0.505l-6.291,0.064
							C346.182,208.167,346.181,208.167,346.179,208.167z"/>
					</g>
					<path style="fill:#FFFFFF;" d="M280.165,209.837c-0.126,0-0.253-0.047-0.35-0.143l-2.309-2.262
						c-0.272-0.267-0.278-0.708-0.013-0.981l2.177-2.222c0.195-0.195,0.512-0.201,0.707-0.007c0.197,0.193,0.201,0.51,0.008,0.707
						l-1.962,2.002l2.091,2.049c0.197,0.193,0.201,0.51,0.008,0.707C280.424,209.787,280.295,209.837,280.165,209.837z"/>
				</g>
				<g style="opacity:0.36;">
					<path style="fill:#FFFFFF;" d="M353.952,336.564l-77.267,0.435c-1.864,0.01-3.384-1.492-3.394-3.356l-0.151-26.776
						l84.017-0.473l0.151,26.776C357.318,335.033,355.816,336.553,353.952,336.564z"/>
					<path style="fill:#FFFFFF;" d="M276.664,337.499c-1.026,0-1.992-0.397-2.723-1.119c-0.736-0.729-1.144-1.699-1.15-2.734
						l-0.154-27.275l85.018-0.479l0.153,27.275c0.013,2.137-1.716,3.885-3.853,3.898l-77.268,0.435
						C276.68,337.499,276.672,337.499,276.664,337.499z M273.643,307.364l0.148,26.275c0.004,0.769,0.307,1.488,0.854,2.028
						c0.542,0.536,1.259,0.831,2.021,0.831c0.005,0,0.011,0,0.017,0l77.268-0.435c1.585-0.009,2.867-1.307,2.858-2.892
						l-0.147-26.275L273.643,307.364z"/>
				</g>
				<g>
					<path style="fill:#FFFFFF;" d="M347.594,231.919l-60.567-0.075c-1.078-0.001-1.95-0.876-1.949-1.954l0.008-6.04
						c0.001-1.078,0.876-1.951,1.954-1.949l60.567,0.075c1.078,0.001,1.95,0.876,1.949,1.954l-0.007,6.04
						C349.547,231.048,348.672,231.921,347.594,231.919z"/>
					<path style="fill:#FFFFFF;" d="M347.889,239.624l-61.174-0.076c-0.91-0.001-1.647-0.74-1.646-1.65l0,0
						c0.001-0.91,0.74-1.647,1.65-1.645l61.174,0.076c0.91,0.001,1.647,0.74,1.646,1.65l0,0
						C349.537,238.888,348.799,239.625,347.889,239.624z"/>
					<path style="fill:#FFFFFF;" d="M347.879,247.222l-61.174-0.076c-0.91-0.001-1.647-0.74-1.646-1.65l0,0
						c0.001-0.91,0.74-1.647,1.65-1.645l61.174,0.076c0.91,0.001,1.647,0.74,1.646,1.65l0,0
						C349.528,246.486,348.789,247.223,347.879,247.222z"/>
					<path style="fill:#F7A9B4;" d="M293.338,258.36c-0.003,2.29-1.862,4.145-4.152,4.142c-2.29-0.003-4.145-1.862-4.142-4.152
						c0.003-2.29,1.862-4.145,4.152-4.142C291.486,254.21,293.341,256.069,293.338,258.36z"/>
					<path style="fill:#F7A9B4;" d="M293.314,277.16c-0.003,2.29-1.862,4.145-4.152,4.142c-2.29-0.003-4.145-1.862-4.142-4.152
						c0.003-2.29,1.862-4.145,4.152-4.142C291.463,273.011,293.317,274.87,293.314,277.16z"/>
					<path style="fill:#F7A9B4;" d="M293.292,295.408c-0.003,2.29-1.862,4.145-4.152,4.142c-2.29-0.003-4.145-1.862-4.142-4.152
						c0.003-2.29,1.862-4.145,4.152-4.142C291.44,291.259,293.295,293.118,293.292,295.408z"/>
					<path style="fill:#FFFFFF;" d="M335.37,256.888c0,0,0,0-0.001,0l-39.68-0.049c-0.275,0-0.499-0.225-0.499-0.501
						c0-0.275,0.225-0.499,0.5-0.499c0,0,0,0,0.001,0l39.68,0.049c0.275,0,0.499,0.225,0.499,0.501
						C335.87,256.664,335.645,256.888,335.37,256.888z"/>
					<path style="fill:#FFFFFF;" d="M315.525,261.084c0,0,0,0-0.001,0l-19.84-0.024c-0.275,0-0.499-0.225-0.499-0.501
						c0-0.275,0.225-0.499,0.5-0.499c0,0,0,0,0.001,0l19.84,0.024c0.275,0,0.499,0.225,0.499,0.501
						C316.025,260.86,315.801,261.084,315.525,261.084z"/>
					<path style="fill:#FFFFFF;" d="M335.347,276.306C335.347,276.306,335.347,276.306,335.347,276.306l-39.682-0.05
						c-0.275,0-0.499-0.225-0.499-0.501c0-0.275,0.225-0.499,0.5-0.499c0,0,0,0,0.001,0l39.681,0.05
						c0.275,0,0.499,0.225,0.499,0.501C335.847,276.082,335.622,276.306,335.347,276.306z"/>
					<path style="fill:#FFFFFF;" d="M315.501,280.502c0,0,0,0-0.001,0l-19.84-0.025c-0.275,0-0.499-0.225-0.499-0.501
						c0-0.275,0.225-0.499,0.5-0.499c0,0,0,0,0.001,0l19.84,0.025c0.275,0,0.499,0.225,0.499,0.501
						C316.001,280.278,315.776,280.502,315.501,280.502z"/>
					<path style="fill:#FFFFFF;" d="M335.324,294.035c0,0,0,0-0.001,0l-39.68-0.05c-0.275,0-0.499-0.225-0.499-0.501
						c0-0.275,0.225-0.499,0.5-0.499c0,0,0,0,0.001,0l39.68,0.05c0.275,0,0.499,0.225,0.499,0.501
						C335.824,293.811,335.6,294.035,335.324,294.035z"/>
					<path style="fill:#FFFFFF;" d="M315.479,298.231c0,0,0,0-0.001,0l-19.841-0.024c-0.275,0-0.499-0.225-0.499-0.501
						c0-0.275,0.225-0.499,0.5-0.499c0,0,0,0,0.001,0l19.841,0.024c0.275,0,0.499,0.225,0.499,0.501
						C315.979,298.008,315.755,298.231,315.479,298.231z"/>
				</g>
			</g>
			<path style="fill:#FFFFFF;" d="M292.247,317.908c-0.55,0-0.997-0.444-1-0.994c-0.003-0.553,0.442-1.003,0.994-1.006l45.918-0.259
				c0.002,0,0.004,0,0.006,0c0.55,0,0.997,0.444,1,0.994c0.003,0.553-0.442,1.003-0.994,1.006l-45.918,0.259
				C292.251,317.908,292.249,317.908,292.247,317.908z"/>
			<path style="fill:#FFFFFF;" d="M301.594,324.814c-0.55,0-0.997-0.444-1-0.994c-0.003-0.553,0.442-1.003,0.994-1.006l27.303-0.154
				c0.002,0,0.004,0,0.006,0c0.55,0,0.997,0.444,1,0.994c0.003,0.553-0.442,1.003-0.994,1.006l-27.303,0.154
				C301.598,324.814,301.596,324.814,301.594,324.814z"/>
		</g>
	</g>
	<g>
		<g>
			<g>
				<path style="fill:#599AF2;" d="M179.068,182.528h-71.687c-0.89,0-1.612-0.722-1.612-1.612V160.08
					c0-0.891,0.722-1.612,1.612-1.612h71.687c0.89,0,1.612,0.722,1.612,1.612v20.836
					C180.68,181.807,179.958,182.528,179.068,182.528z"/>
				<g>
					<path style="fill:#F7A9B4;" d="M118.364,177.789c-4.272,0-7.747-3.475-7.747-7.747c0-4.272,3.475-7.747,7.747-7.747
						c4.272,0,7.747,3.475,7.747,7.747C126.111,174.314,122.636,177.789,118.364,177.789z"/>
					<path style="fill:#FFFFFF;" d="M117.679,172.951l-2.896-4.006c-0.247-0.342-0.169-0.821,0.171-1.068
						c0.166-0.12,0.368-0.166,0.571-0.136c0.202,0.033,0.378,0.142,0.498,0.308l1.845,2.55l9.211-9.211
						c0.143-0.144,0.335-0.224,0.54-0.224c0,0,0,0,0.001,0c0.204,0,0.396,0.079,0.541,0.224c0.298,0.298,0.298,0.783,0,1.081
						L117.679,172.951z"/>
				</g>
				<g>
					<line style="fill:#FFFFFF;" x1="132.668" y1="166.526" x2="170.997" y2="166.526"/>
					<path style="opacity:0.38;fill:#FFFFFF;" d="M170.997,167.026h-38.329c-0.276,0-0.5-0.224-0.5-0.5c0-0.276,0.224-0.5,0.5-0.5
						h38.329c0.276,0,0.5,0.224,0.5,0.5C171.497,166.802,171.273,167.026,170.997,167.026z"/>
				</g>
				<g>
					<line style="fill:#FFFFFF;" x1="132.668" y1="171.073" x2="149.794" y2="171.073"/>
					<path style="opacity:0.38;fill:#FFFFFF;" d="M149.794,171.573h-17.126c-0.276,0-0.5-0.224-0.5-0.5c0-0.276,0.224-0.5,0.5-0.5
						h17.126c0.276,0,0.5,0.224,0.5,0.5C150.294,171.349,150.071,171.573,149.794,171.573z"/>
				</g>
				<g>
					<line style="fill:#FFFFFF;" x1="153.87" y1="171.073" x2="170.997" y2="171.073"/>
					<path style="opacity:0.38;fill:#FFFFFF;" d="M170.997,171.573H153.87c-0.276,0-0.5-0.224-0.5-0.5c0-0.276,0.224-0.5,0.5-0.5
						h17.126c0.276,0,0.5,0.224,0.5,0.5C171.497,171.349,171.273,171.573,170.997,171.573z"/>
				</g>
				<g>
					<line style="fill:#FFFFFF;" x1="132.668" y1="175.831" x2="170.997" y2="175.831"/>
					<path style="opacity:0.38;fill:#FFFFFF;" d="M170.997,176.331h-38.329c-0.276,0-0.5-0.224-0.5-0.5c0-0.276,0.224-0.5,0.5-0.5
						h38.329c0.276,0,0.5,0.224,0.5,0.5C171.497,176.107,171.273,176.331,170.997,176.331z"/>
				</g>
			</g>
			<g>
				<g>
					<path style="fill:#599AF2;" d="M453.255,293.083h-71.687c-0.89,0-1.612-0.722-1.612-1.612v-20.836
						c0-0.891,0.722-1.612,1.612-1.612h71.687c0.89,0,1.612,0.722,1.612,1.612v20.836
						C454.867,292.361,454.145,293.083,453.255,293.083z"/>
					<g>
						<path style="fill:#F7A9B4;" d="M392.551,288.343c-4.272,0-7.747-3.475-7.747-7.747c0-4.272,3.475-7.747,7.747-7.747
							s7.747,3.475,7.747,7.747C400.298,284.868,396.823,288.343,392.551,288.343z"/>
						<path style="fill:#FFFFFF;" d="M391.866,283.506l-2.896-4.006c-0.12-0.166-0.168-0.368-0.136-0.569
							c0.032-0.202,0.142-0.38,0.308-0.499c0.163-0.119,0.363-0.17,0.569-0.136c0.203,0.033,0.381,0.143,0.5,0.311l1.844,2.548
							l9.211-9.211c0.299-0.298,0.782-0.299,1.081,0c0.298,0.298,0.298,0.783,0,1.081L391.866,283.506z M389.398,279.19
							c0.001,0.001,0.001,0.002,0.002,0.003L389.398,279.19z"/>
					</g>
					<g>
						<line style="fill:#FFFFFF;" x1="406.855" y1="277.08" x2="445.184" y2="277.08"/>
						<path style="opacity:0.38;fill:#FFFFFF;" d="M445.184,277.58h-38.329c-0.276,0-0.5-0.224-0.5-0.5c0-0.276,0.224-0.5,0.5-0.5
							h38.329c0.276,0,0.5,0.224,0.5,0.5C445.684,277.357,445.46,277.58,445.184,277.58z"/>
					</g>
					<g>
						<line style="fill:#FFFFFF;" x1="406.855" y1="281.627" x2="423.981" y2="281.627"/>
						<path style="opacity:0.38;fill:#FFFFFF;" d="M423.981,282.127h-17.126c-0.276,0-0.5-0.224-0.5-0.5c0-0.276,0.224-0.5,0.5-0.5
							h17.126c0.276,0,0.5,0.224,0.5,0.5C424.481,281.904,424.258,282.127,423.981,282.127z"/>
					</g>
					<g>
						<line style="fill:#FFFFFF;" x1="428.057" y1="281.627" x2="445.184" y2="281.627"/>
						<path style="opacity:0.38;fill:#FFFFFF;" d="M445.184,282.127h-17.126c-0.276,0-0.5-0.224-0.5-0.5c0-0.276,0.224-0.5,0.5-0.5
							h17.126c0.276,0,0.5,0.224,0.5,0.5C445.684,281.904,445.46,282.127,445.184,282.127z"/>
					</g>
					<g>
						<line style="fill:#FFFFFF;" x1="406.855" y1="286.385" x2="445.184" y2="286.385"/>
						<path style="opacity:0.38;fill:#FFFFFF;" d="M445.184,286.885h-38.329c-0.276,0-0.5-0.224-0.5-0.5c0-0.276,0.224-0.5,0.5-0.5
							h38.329c0.276,0,0.5,0.224,0.5,0.5C445.684,286.662,445.46,286.885,445.184,286.885z"/>
					</g>
				</g>
			</g>
		</g>
	</g>
</g>
<g id="DESIGNED_BY_FREEPIK">
	<g>
		<g>
			<g id="XMLID_197_">
				<g id="XMLID_216_">
					<path id="XMLID_224_" d="M260.064,463.607c-0.431,0.441-0.8,0.927-1.104,1.447l-0.463-0.24c-0.067-0.296-0.348-0.5-0.656-0.464
						c-0.33,0.039-0.565,0.337-0.527,0.667c0.039,0.33,0.337,0.565,0.667,0.527c0.065-0.008,0.126-0.026,0.183-0.052l0.45,0.233
						c-0.25,0.552-0.431,1.134-0.537,1.737l0.743,0.131c0.229-1.301,0.846-2.497,1.785-3.459L260.064,463.607z"/>
					<path id="XMLID_223_" d="M265.529,461.314c-0.17,0-0.339,0.006-0.508,0.017l-0.073-0.624c0.187-0.149,0.295-0.388,0.265-0.642
						c-0.046-0.392-0.401-0.672-0.792-0.625c-0.392,0.046-0.672,0.401-0.626,0.792c0.03,0.253,0.189,0.459,0.403,0.561l0.073,0.622
						c-0.711,0.116-1.397,0.331-2.052,0.643l0.326,0.681c0.93-0.445,1.934-0.671,2.983-0.671c0.495,0,0.989,0.053,1.469,0.157
						l0.16-0.738C266.626,461.373,266.078,461.314,265.529,461.314z"/>
					<path id="XMLID_222_" d="M272.106,463.852c0.329-0.04,0.564-0.34,0.523-0.67c-0.04-0.329-0.34-0.564-0.67-0.523
						c-0.308,0.038-0.533,0.303-0.528,0.606l-0.414,0.362c-0.416-0.428-0.886-0.81-1.402-1.135l-0.402,0.639
						c1.13,0.712,2.013,1.719,2.553,2.914l0.688-0.311c-0.25-0.552-0.565-1.068-0.938-1.539l0.4-0.349
						C271.977,463.856,272.04,463.859,272.106,463.852z"/>
					<path id="XMLID_221_" d="M264.984,471.482c-0.384,0.023-0.772,0.035-1.152,0.035c-0.877,0-1.726-0.06-2.469-0.178
						c-0.389-0.062-0.843-0.154-1.265-0.291c1.042,1.854,3.057,3.113,5.367,3.113c2.844,0,5.241-1.909,5.926-4.486
						c-0.679,0.448-1.499,0.822-2.449,1.118C267.767,471.159,266.398,471.397,264.984,471.482z"/>
					<path id="XMLID_217_" d="M265.529,462.824c-3.339,0-6.055,2.656-6.055,5.92c0,0.424,0.046,0.846,0.137,1.256
						c0.671,0.481,2.695,0.886,5.326,0.728c2.868-0.173,5.276-0.954,6.646-2.15c-0.005-0.194-0.021-0.388-0.045-0.579
						C271.159,465.049,268.576,462.824,265.529,462.824z M263.379,469.313c-1.016,0-1.842-0.826-1.842-1.842
						s0.827-1.842,1.842-1.842c1.016,0,1.842,0.827,1.842,1.842S264.395,469.313,263.379,469.313z M268.097,468.409
						c-0.747,0-1.355-0.608-1.355-1.355s0.608-1.355,1.355-1.355c0.747,0,1.355,0.608,1.355,1.355S268.844,468.409,268.097,468.409z
						"/>
				</g>
				<path id="XMLID_214_" d="M281.469,464.684c-0.294-0.116-0.802-0.308-1.377-0.236c-0.549,0.068-0.84,0.339-0.84,1.003v0.862
					h2.219v1.71h-2.219v5.433h-1.924v-5.433h-1.334v-1.71h1.334v-0.885c0-1.673,0.892-2.772,2.558-2.772
					c0.64,0,1.152,0.121,1.584,0.307L281.469,464.684z"/>
				<path id="XMLID_212_" d="M286.153,468.003c-0.176-0.03-0.356-0.046-0.524-0.046c-0.892,0-1.504,0.546-1.504,1.607v3.892h-1.924
					v-7.143h1.865v0.781c0.45-0.671,1.135-0.973,2.012-0.973c0.413,0,0.844,0.127,1.09,0.335L286.153,468.003z"/>
				<path id="XMLID_209_" d="M293.79,469.874c0,0.221-0.015,0.487-0.037,0.649h-5.064c0.206,1.032,0.929,1.482,1.836,1.482
					c0.619,0,1.29-0.251,1.806-0.685l1.128,1.238c-0.811,0.745-1.843,1.084-3.044,1.084c-2.19,0-3.708-1.489-3.708-3.737
					c0-2.249,1.474-3.782,3.612-3.782C292.374,466.121,293.782,467.647,293.79,469.874z M288.696,469.21h3.162
					c-0.177-0.914-0.73-1.43-1.555-1.43C289.396,467.78,288.865,468.326,288.696,469.21z"/>
				<path id="XMLID_206_" d="M301.412,469.874c0,0.221-0.015,0.487-0.037,0.649h-5.064c0.206,1.032,0.929,1.482,1.835,1.482
					c0.619,0,1.29-0.251,1.806-0.685l1.128,1.238c-0.811,0.745-1.843,1.084-3.045,1.084c-2.19,0-3.708-1.489-3.708-3.737
					c0-2.249,1.475-3.782,3.612-3.782C299.997,466.121,301.405,467.647,301.412,469.874z M296.318,469.21h3.163
					c-0.177-0.914-0.73-1.43-1.556-1.43C297.019,467.78,296.488,468.326,296.318,469.21z"/>
				<path id="XMLID_203_" d="M309.725,469.881c0,2.145-1.489,3.76-3.457,3.76c-0.958,0-1.637-0.376-2.101-0.929v3.693h-1.917
					v-10.092h1.88v0.789c0.464-0.582,1.15-0.98,2.131-0.98C308.236,466.121,309.725,467.736,309.725,469.881z M304.07,469.881
					c0,1.128,0.744,1.968,1.835,1.968c1.135,0,1.843-0.877,1.843-1.968c0-1.091-0.708-1.968-1.843-1.968
					C304.815,467.913,304.07,468.753,304.07,469.881z"/>
				<path id="XMLID_200_" d="M312.816,463.976c0,0.693-0.538,1.224-1.231,1.224c-0.693,0-1.224-0.531-1.224-1.224
					c0-0.693,0.531-1.238,1.224-1.238C312.277,462.738,312.816,463.283,312.816,463.976z M312.558,473.456h-1.924v-7.143h1.924
					V473.456z"/>
				<path id="XMLID_198_" d="M315.768,468.856l2.691-2.543h2.359l-3.465,3.362l3.487,3.782h-2.367l-2.705-2.89v2.89h-1.924v-10.616
					h1.924V468.856z"/>
			</g>
			<g>
				<path d="M184.674,473.392v-1.051c-0.525,0.715-1.386,1.226-2.378,1.226c-1.838,0-3.137-1.4-3.137-3.691
					c0-2.247,1.284-3.706,3.137-3.706c0.948,0,1.809,0.467,2.378,1.24v-3.75h1.094v9.731H184.674z M184.674,471.48v-3.195
					c-0.394-0.613-1.24-1.138-2.116-1.138c-1.415,0-2.261,1.167-2.261,2.728c0,1.561,0.846,2.714,2.261,2.714
					C183.434,472.589,184.28,472.093,184.674,471.48z"/>
				<path d="M187.184,469.861c0-2.043,1.459-3.691,3.472-3.691c2.13,0,3.385,1.663,3.385,3.779v0.277h-5.704
					c0.088,1.328,1.021,2.436,2.539,2.436c0.802,0,1.619-0.321,2.174-0.89l0.525,0.715c-0.7,0.7-1.648,1.079-2.801,1.079
					C188.686,473.567,187.184,472.064,187.184,469.861z M190.641,467.075c-1.503,0-2.247,1.269-2.305,2.349h4.625
					C192.946,468.373,192.246,467.075,190.641,467.075z"/>
				<path d="M194.828,472.458l0.569-0.788c0.467,0.54,1.357,1.007,2.32,1.007c1.08,0,1.663-0.511,1.663-1.211
					c0-1.707-4.362-0.656-4.362-3.268c0-1.094,0.948-2.028,2.626-2.028c1.197,0,2.043,0.452,2.612,1.021l-0.511,0.759
					c-0.423-0.511-1.196-0.89-2.101-0.89c-0.963,0-1.561,0.482-1.561,1.109c0,1.546,4.362,0.525,4.362,3.268
					c0,1.182-0.948,2.13-2.772,2.13C196.52,473.567,195.543,473.216,194.828,472.458z"/>
				<path d="M201.671,464.609c0-0.408,0.336-0.744,0.729-0.744c0.408,0,0.744,0.336,0.744,0.744c0,0.409-0.336,0.729-0.744,0.729
					C202.006,465.338,201.671,465.017,201.671,464.609z M201.86,473.392v-7.047h1.094v7.047H201.86z"/>
				<path d="M204.763,475.201l0.554-0.817c0.583,0.7,1.284,0.963,2.291,0.963c1.167,0,2.261-0.569,2.261-2.116v-1.007
					c-0.51,0.715-1.371,1.255-2.364,1.255c-1.838,0-3.137-1.371-3.137-3.647c0-2.261,1.284-3.662,3.137-3.662
					c0.948,0,1.795,0.467,2.364,1.24v-1.065h1.094v6.842c0,2.334-1.634,3.064-3.355,3.064
					C206.412,476.251,205.595,476.018,204.763,475.201z M209.869,471.364v-3.078c-0.379-0.613-1.226-1.138-2.101-1.138
					c-1.415,0-2.261,1.124-2.261,2.684c0,1.547,0.846,2.685,2.261,2.685C208.644,472.516,209.49,471.977,209.869,471.364z"/>
				<path d="M217.543,473.392v-4.61c0-1.24-0.627-1.634-1.576-1.634c-0.861,0-1.678,0.525-2.086,1.094v5.15h-1.094v-7.047h1.094
					v1.021c0.496-0.583,1.459-1.196,2.509-1.196c1.474,0,2.247,0.744,2.247,2.276v4.946H217.543z"/>
				<path d="M220.052,469.861c0-2.043,1.459-3.691,3.472-3.691c2.13,0,3.385,1.663,3.385,3.779v0.277h-5.704
					c0.087,1.328,1.021,2.436,2.538,2.436c0.802,0,1.619-0.321,2.174-0.89l0.525,0.715c-0.7,0.7-1.649,1.079-2.801,1.079
					C221.555,473.567,220.052,472.064,220.052,469.861z M223.51,467.075c-1.503,0-2.247,1.269-2.305,2.349h4.625
					C225.815,468.373,225.115,467.075,223.51,467.075z"/>
				<path d="M233.416,473.392v-1.051c-0.525,0.715-1.386,1.226-2.378,1.226c-1.838,0-3.137-1.4-3.137-3.691
					c0-2.247,1.284-3.706,3.137-3.706c0.948,0,1.81,0.467,2.378,1.24v-3.75h1.094v9.731H233.416z M233.416,471.48v-3.195
					c-0.394-0.613-1.24-1.138-2.116-1.138c-1.415,0-2.261,1.167-2.261,2.728c0,1.561,0.846,2.714,2.261,2.714
					C232.176,472.589,233.022,472.093,233.416,471.48z"/>
				<path d="M239.733,473.392v-9.731h1.094v3.75c0.569-0.773,1.415-1.24,2.378-1.24c1.838,0,3.137,1.459,3.137,3.706
					c0,2.29-1.299,3.691-3.137,3.691c-0.992,0-1.853-0.51-2.378-1.226v1.051H239.733z M242.928,472.589
					c1.43,0,2.276-1.152,2.276-2.714c0-1.561-0.846-2.728-2.276-2.728c-0.861,0-1.721,0.525-2.101,1.138v3.195
					C241.207,472.093,242.067,472.589,242.928,472.589z"/>
				<path d="M247.538,475.157c0.16,0.073,0.423,0.117,0.598,0.117c0.481,0,0.802-0.161,1.05-0.744l0.467-1.065l-2.947-7.12h1.182
					l2.349,5.777l2.334-5.777h1.196l-3.531,8.477c-0.423,1.021-1.138,1.415-2.072,1.43c-0.233,0-0.598-0.044-0.802-0.102
					L247.538,475.157z"/>
			</g>
		</g>
	</g>
</g>
</svg>
