<?xml version="1.0" encoding="utf-8"?>
<!-- Generator: Adobe Illustrator 27.5.0, SVG Export Plug-In . SVG Version: 6.00 Build 0)  -->
<svg version="1.1" xmlns="http://www.w3.org/2000/svg" xmlns:xlink="http://www.w3.org/1999/xlink" x="0px" y="0px"
	 viewBox="0 0 750 500" style="enable-background:new 0 0 750 500;" xml:space="preserve">
<g id="Background_Simple">
	<g>
		<path style="fill:#92E3A9;" d="M139,420.975c2.211,3.87,4.419,8.04,5.955,11h518.078c4.395-9.005,21.065-48.56,14.967-120
			c-7-82-96-185-183-216s-119,26-169,59s-118-1-186,41s-72,123-50,165S135,413.975,139,420.975z"/>
		<path style="opacity:0.7;fill:#FFFFFF;" d="M139,420.975c2.211,3.87,4.419,8.04,5.955,11h518.078
			c4.395-9.005,21.065-48.56,14.967-120c-7-82-96-185-183-216s-119,26-169,59s-118-1-186,41s-72,123-50,165S135,413.975,139,420.975
			z"/>
	</g>
</g>
<g id="Window">
	<g>
		<g>
			<rect x="41.481" y="294.739" style="fill:#263238;" width="649.146" height="3.388"/>
			
				<line style="fill:none;stroke:#263238;stroke-linecap:round;stroke-linejoin:round;stroke-miterlimit:10;" x1="485" y1="240.174" x2="485" y2="108.904"/>
			
				<line style="fill:none;stroke:#263238;stroke-linecap:round;stroke-linejoin:round;stroke-miterlimit:10;" x1="485" y1="296.739" x2="485" y2="246.553"/>
			
				<line style="fill:none;stroke:#263238;stroke-linecap:round;stroke-linejoin:round;stroke-miterlimit:10;" x1="317" y1="145.901" x2="317" y2="110.072"/>
			
				<line style="fill:none;stroke:#263238;stroke-linecap:round;stroke-linejoin:round;stroke-miterlimit:10;" x1="317" y1="296.739" x2="317" y2="152.28"/>
			
				<line style="fill:none;stroke:#263238;stroke-linecap:round;stroke-linejoin:round;stroke-miterlimit:10;" x1="653.338" y1="137.395" x2="653.338" y2="108.904"/>
			
				<line style="fill:none;stroke:#263238;stroke-linecap:round;stroke-linejoin:round;stroke-miterlimit:10;" x1="653.338" y1="296.739" x2="653.338" y2="143.775"/>
			
				<line style="fill:none;stroke:#263238;stroke-linecap:round;stroke-linejoin:round;stroke-miterlimit:10;" x1="148.662" y1="296.739" x2="148.662" y2="110.072"/>
			
				<line style="fill:none;stroke:#263238;stroke-linecap:round;stroke-linejoin:round;stroke-miterlimit:10;" x1="643.739" y1="204.531" x2="674.566" y2="204.531"/>
			
				<line style="fill:none;stroke:#263238;stroke-linecap:round;stroke-linejoin:round;stroke-miterlimit:10;" x1="228.372" y1="204.531" x2="638.777" y2="204.531"/>
			
				<line style="fill:none;stroke:#263238;stroke-linecap:round;stroke-linejoin:round;stroke-miterlimit:10;" x1="134" y1="204.531" x2="223.41" y2="204.531"/>
		</g>
		<g>
			
				<line style="fill:none;stroke:#263238;stroke-width:0.5;stroke-linecap:round;stroke-linejoin:round;stroke-miterlimit:10;" x1="422.657" y1="170.576" x2="420.354" y2="171.995"/>
			
				<line style="fill:none;stroke:#263238;stroke-width:0.5;stroke-linecap:round;stroke-linejoin:round;stroke-miterlimit:10;" x1="461.477" y1="146.652" x2="425.751" y2="168.669"/>
			
				<line style="fill:none;stroke:#263238;stroke-width:0.5;stroke-linecap:round;stroke-linejoin:round;stroke-miterlimit:10;" x1="466.191" y1="148.139" x2="437.568" y2="165.779"/>
			
				<line style="fill:none;stroke:#263238;stroke-width:0.5;stroke-linecap:round;stroke-linejoin:round;stroke-miterlimit:10;" x1="478.691" y1="140.435" x2="470.047" y2="145.763"/>
		</g>
		<g>
			
				<line style="fill:none;stroke:#263238;stroke-width:0.5;stroke-linecap:round;stroke-linejoin:round;stroke-miterlimit:10;" x1="194.699" y1="170.576" x2="192.396" y2="171.995"/>
			
				<line style="fill:none;stroke:#263238;stroke-width:0.5;stroke-linecap:round;stroke-linejoin:round;stroke-miterlimit:10;" x1="233.519" y1="146.652" x2="197.793" y2="168.669"/>
			
				<line style="fill:none;stroke:#263238;stroke-width:0.5;stroke-linecap:round;stroke-linejoin:round;stroke-miterlimit:10;" x1="238.233" y1="148.139" x2="209.61" y2="165.779"/>
			
				<line style="fill:none;stroke:#263238;stroke-width:0.5;stroke-linecap:round;stroke-linejoin:round;stroke-miterlimit:10;" x1="250.733" y1="140.435" x2="242.089" y2="145.763"/>
		</g>
		<g>
			
				<line style="fill:none;stroke:#263238;stroke-width:0.5;stroke-linecap:round;stroke-linejoin:round;stroke-miterlimit:10;" x1="558.73" y1="170.576" x2="556.427" y2="171.995"/>
			
				<line style="fill:none;stroke:#263238;stroke-width:0.5;stroke-linecap:round;stroke-linejoin:round;stroke-miterlimit:10;" x1="597.551" y1="146.652" x2="561.825" y2="168.669"/>
			
				<line style="fill:none;stroke:#263238;stroke-width:0.5;stroke-linecap:round;stroke-linejoin:round;stroke-miterlimit:10;" x1="602.264" y1="148.139" x2="573.642" y2="165.779"/>
			
				<line style="fill:none;stroke:#263238;stroke-width:0.5;stroke-linecap:round;stroke-linejoin:round;stroke-miterlimit:10;" x1="614.765" y1="140.435" x2="606.12" y2="145.763"/>
		</g>
		<g>
			
				<line style="fill:none;stroke:#263238;stroke-width:0.5;stroke-linecap:round;stroke-linejoin:round;stroke-miterlimit:10;" x1="275.396" y1="249.8" x2="207.977" y2="291.349"/>
			
				<line style="fill:none;stroke:#263238;stroke-width:0.5;stroke-linecap:round;stroke-linejoin:round;stroke-miterlimit:10;" x1="284.291" y1="252.608" x2="230.277" y2="285.895"/>
			
				<line style="fill:none;stroke:#263238;stroke-width:0.5;stroke-linecap:round;stroke-linejoin:round;stroke-miterlimit:10;" x1="307.881" y1="238.07" x2="291.568" y2="248.123"/>
		</g>
		<g>
			
				<line style="fill:none;stroke:#263238;stroke-width:0.5;stroke-linecap:round;stroke-linejoin:round;stroke-miterlimit:10;" x1="445.78" y1="291.404" x2="441.434" y2="294.082"/>
			
				<line style="fill:none;stroke:#263238;stroke-width:0.5;stroke-linecap:round;stroke-linejoin:round;stroke-miterlimit:10;" x1="519.039" y1="246.257" x2="451.62" y2="287.805"/>
			
				<line style="fill:none;stroke:#263238;stroke-width:0.5;stroke-linecap:round;stroke-linejoin:round;stroke-miterlimit:10;" x1="527.934" y1="249.064" x2="473.92" y2="282.352"/>
			
				<line style="fill:none;stroke:#263238;stroke-width:0.5;stroke-linecap:round;stroke-linejoin:round;stroke-miterlimit:10;" x1="551.524" y1="234.526" x2="535.211" y2="244.579"/>
		</g>
	</g>
</g>
<g id="Lamp">
	<g>
		<path style="fill:#263238;stroke:#263238;stroke-linecap:round;stroke-linejoin:round;stroke-miterlimit:10;" d="M242.335,104.539
			V91.975h-16v12.565c-8.48,3.426-14.508,12.132-14.508,22.337c0,0.186,0.009,0.37,0.013,0.556h44.989
			c0.004-0.185,0.013-0.369,0.013-0.556C256.843,116.672,250.815,107.965,242.335,104.539z"/>
		
			<line style="fill:none;stroke:#263238;stroke-linecap:round;stroke-linejoin:round;stroke-miterlimit:10;" x1="234.335" y1="91.975" x2="234.335" y2="61.975"/>
	</g>
	<g>
		<path style="fill:#263238;stroke:#263238;stroke-linecap:round;stroke-linejoin:round;stroke-miterlimit:10;" d="M558.335,104.539
			V91.975h-16v12.565c-8.48,3.426-14.508,12.132-14.508,22.337c0,0.186,0.009,0.37,0.013,0.556h44.989
			c0.004-0.185,0.013-0.369,0.013-0.556C572.843,116.672,566.815,107.965,558.335,104.539z"/>
		
			<line style="fill:none;stroke:#263238;stroke-linecap:round;stroke-linejoin:round;stroke-miterlimit:10;" x1="550.335" y1="91.975" x2="550.335" y2="61.975"/>
	</g>
</g>
<g id="Floor">
	
		<line style="fill:none;stroke:#263238;stroke-linecap:round;stroke-linejoin:round;stroke-miterlimit:10;" x1="26" y1="431.975" x2="704" y2="431.975"/>
</g>
<g id="Plant">
	<g>
		<g>
			
				<line style="fill:none;stroke:#263238;stroke-width:2;stroke-miterlimit:10;" x1="665.173" y1="286.711" x2="676.631" y2="396.499"/>
			<g>
				<g>
					
						<line style="fill:none;stroke:#263238;stroke-width:2;stroke-miterlimit:10;" x1="674.784" y1="375.489" x2="669.59" y2="370.002"/>
					<path style="fill:#92E3A9;stroke:#263238;stroke-miterlimit:10;" d="M671.168,371.646c0,0,0.149-2.427-2.067-4.406
						c-1.333-1.191-8.35-4.143-9.016-1.671C659.361,368.257,666.543,373.535,671.168,371.646z"/>
					
						<line style="fill:none;stroke:#263238;stroke-width:0.5;stroke-miterlimit:10;" x1="671.168" y1="371.646" x2="664.488" y2="367.484"/>
				</g>
				<g>
					
						<line style="fill:none;stroke:#263238;stroke-width:2;stroke-miterlimit:10;" x1="676.087" y1="387.975" x2="670.893" y2="382.488"/>
					<path style="fill:#92E3A9;stroke:#263238;stroke-miterlimit:10;" d="M672.471,384.132c0,0,0.149-2.427-2.067-4.406
						c-1.333-1.191-8.35-4.143-9.016-1.671C660.664,380.743,667.846,386.022,672.471,384.132z"/>
					
						<line style="fill:none;stroke:#263238;stroke-width:0.5;stroke-miterlimit:10;" x1="672.471" y1="384.132" x2="665.791" y2="379.97"/>
				</g>
				<g>
					
						<line style="fill:none;stroke:#263238;stroke-width:2;stroke-miterlimit:10;" x1="671.604" y1="345.02" x2="666.41" y2="339.534"/>
					<path style="fill:#92E3A9;stroke:#263238;stroke-miterlimit:10;" d="M667.988,341.178c0,0,0.149-2.427-2.067-4.406
						c-1.333-1.191-8.35-4.143-9.016-1.671C656.181,337.788,663.363,343.067,667.988,341.178z"/>
					
						<line style="fill:none;stroke:#263238;stroke-width:0.5;stroke-miterlimit:10;" x1="667.988" y1="341.178" x2="661.308" y2="337.015"/>
				</g>
				<g>
					
						<line style="fill:none;stroke:#263238;stroke-width:2;stroke-miterlimit:10;" x1="672.908" y1="357.506" x2="667.713" y2="352.02"/>
					<path style="fill:#92E3A9;stroke:#263238;stroke-miterlimit:10;" d="M669.291,353.664c0,0,0.149-2.427-2.067-4.406
						c-1.333-1.191-8.35-4.143-9.016-1.671C657.484,350.275,664.666,355.553,669.291,353.664z"/>
					
						<line style="fill:none;stroke:#263238;stroke-width:0.5;stroke-miterlimit:10;" x1="669.291" y1="353.664" x2="662.612" y2="349.501"/>
				</g>
				<g>
					
						<line style="fill:none;stroke:#263238;stroke-width:2;stroke-miterlimit:10;" x1="669.488" y1="324.737" x2="664.293" y2="319.251"/>
					<path style="fill:#92E3A9;stroke:#263238;stroke-miterlimit:10;" d="M665.871,320.895c0,0,0.149-2.427-2.067-4.406
						c-1.333-1.191-8.35-4.143-9.016-1.671C654.064,317.506,661.246,322.784,665.871,320.895z"/>
					
						<line style="fill:none;stroke:#263238;stroke-width:0.5;stroke-miterlimit:10;" x1="665.871" y1="320.895" x2="659.191" y2="316.733"/>
				</g>
				<g>
					
						<line style="fill:none;stroke:#263238;stroke-width:2;stroke-miterlimit:10;" x1="667.362" y1="304.366" x2="662.167" y2="298.88"/>
					<path style="fill:#92E3A9;stroke:#263238;stroke-miterlimit:10;" d="M663.746,300.524c0,0,0.149-2.427-2.067-4.406
						c-1.333-1.191-8.35-4.143-9.016-1.672C651.938,297.134,659.12,302.413,663.746,300.524z"/>
					
						<line style="fill:none;stroke:#263238;stroke-width:0.5;stroke-miterlimit:10;" x1="663.746" y1="300.524" x2="657.066" y2="296.361"/>
				</g>
				<g>
					
						<line style="fill:none;stroke:#263238;stroke-width:2;stroke-miterlimit:10;" x1="673.911" y1="368.101" x2="677.861" y2="361.66"/>
					<path style="fill:#92E3A9;stroke:#263238;stroke-miterlimit:10;" d="M676.656,363.595c0,0-0.646-2.344,1.113-4.738
						c1.059-1.44,7.315-5.777,8.477-3.497C687.509,357.84,681.572,364.488,676.656,363.595z"/>
					
						<line style="fill:none;stroke:#263238;stroke-width:0.5;stroke-miterlimit:10;" x1="676.656" y1="363.595" x2="682.671" y2="357.846"/>
				</g>
				<g>
					
						<line style="fill:none;stroke:#263238;stroke-width:2;stroke-miterlimit:10;" x1="670.482" y1="335.244" x2="674.432" y2="328.803"/>
					<path style="fill:#92E3A9;stroke:#263238;stroke-miterlimit:10;" d="M673.227,330.737c0,0-0.646-2.344,1.113-4.738
						c1.059-1.44,7.315-5.777,8.476-3.497C684.08,324.983,678.143,331.631,673.227,330.737z"/>
					
						<line style="fill:none;stroke:#263238;stroke-width:0.5;stroke-miterlimit:10;" x1="673.227" y1="330.737" x2="679.242" y2="324.988"/>
				</g>
				<g>
					
						<line style="fill:none;stroke:#263238;stroke-width:2;stroke-miterlimit:10;" x1="668.975" y1="320.804" x2="672.925" y2="314.364"/>
					<path style="fill:#92E3A9;stroke:#263238;stroke-miterlimit:10;" d="M671.72,316.298c0,0-0.647-2.344,1.113-4.738
						c1.059-1.44,7.315-5.777,8.477-3.497C682.573,310.543,676.636,317.191,671.72,316.298z"/>
					
						<line style="fill:none;stroke:#263238;stroke-width:0.5;stroke-miterlimit:10;" x1="671.72" y1="316.298" x2="677.735" y2="310.549"/>
				</g>
				<g>
					
						<line style="fill:none;stroke:#263238;stroke-width:2;stroke-miterlimit:10;" x1="666.766" y1="299.636" x2="670.716" y2="293.195"/>
					<path style="fill:#92E3A9;stroke:#263238;stroke-miterlimit:10;" d="M669.511,295.129c0,0-0.646-2.344,1.113-4.738
						c1.059-1.44,7.315-5.777,8.477-3.497C680.364,289.375,674.427,296.023,669.511,295.129z"/>
					
						<line style="fill:none;stroke:#263238;stroke-width:0.5;stroke-miterlimit:10;" x1="669.511" y1="295.129" x2="675.526" y2="289.38"/>
					<path style="fill:#92E3A9;stroke:#263238;stroke-miterlimit:10;" d="M665.077,286.101c0,0-0.646-2.344,1.113-4.738
						c1.059-1.44,7.315-5.777,8.477-3.497C675.93,280.347,669.993,286.995,665.077,286.101z"/>
					
						<line style="fill:none;stroke:#263238;stroke-width:0.5;stroke-miterlimit:10;" x1="665.077" y1="286.101" x2="671.092" y2="280.352"/>
					<path style="fill:#92E3A9;stroke:#263238;stroke-miterlimit:10;" d="M665.425,286.349c0,0-2.399,0.397-4.595-1.604
						c-1.321-1.204-4.978-7.88-2.589-8.796C660.841,274.953,666.829,281.554,665.425,286.349z"/>
					
						<line style="fill:none;stroke:#263238;stroke-width:0.5;stroke-miterlimit:10;" x1="665.425" y1="286.349" x2="660.339" y2="279.765"/>
				</g>
			</g>
		</g>
		<g>
			<line style="fill:none;stroke:#263238;stroke-width:2;stroke-miterlimit:10;" x1="695.393" y1="301.831" x2="684" y2="411.626"/>
			<g>
				<g>
					
						<line style="fill:none;stroke:#263238;stroke-width:2;stroke-miterlimit:10;" x1="686.519" y1="390.685" x2="682.566" y2="384.247"/>
					<path style="fill:#92E3A9;stroke:#263238;stroke-miterlimit:10;" d="M683.772,386.18c0,0,0.645-2.344-1.116-4.737
						c-1.06-1.44-7.318-5.773-8.479-3.492C672.915,380.432,678.856,387.077,683.772,386.18z"/>
					
						<line style="fill:none;stroke:#263238;stroke-width:0.5;stroke-miterlimit:10;" x1="683.772" y1="386.18" x2="678.092" y2="380.731"/>
				</g>
				<g>
					
						<line style="fill:none;stroke:#263238;stroke-width:2;stroke-miterlimit:10;" x1="689.681" y1="360.215" x2="685.727" y2="353.777"/>
					<path style="fill:#92E3A9;stroke:#263238;stroke-miterlimit:10;" d="M686.933,355.71c0,0,0.645-2.344-1.116-4.737
						c-1.06-1.44-7.318-5.773-8.479-3.492C676.077,349.962,682.018,356.607,686.933,355.71z"/>
					
						<line style="fill:none;stroke:#263238;stroke-width:0.5;stroke-miterlimit:10;" x1="686.933" y1="355.71" x2="681.253" y2="350.261"/>
				</g>
				<g>
					
						<line style="fill:none;stroke:#263238;stroke-width:2;stroke-miterlimit:10;" x1="688.385" y1="372.702" x2="684.432" y2="366.263"/>
					<path style="fill:#92E3A9;stroke:#263238;stroke-miterlimit:10;" d="M685.638,368.197c0,0,0.645-2.344-1.116-4.737
						c-1.06-1.44-7.318-5.773-8.479-3.492C674.781,362.449,680.722,369.093,685.638,368.197z"/>
					
						<line style="fill:none;stroke:#263238;stroke-width:0.5;stroke-miterlimit:10;" x1="685.638" y1="368.197" x2="679.958" y2="362.748"/>
				</g>
				<g>
					
						<line style="fill:none;stroke:#263238;stroke-width:2;stroke-miterlimit:10;" x1="691.786" y1="339.931" x2="687.832" y2="333.493"/>
					<path style="fill:#92E3A9;stroke:#263238;stroke-miterlimit:10;" d="M689.038,335.426c0,0,0.645-2.344-1.116-4.737
						c-1.06-1.44-7.318-5.773-8.479-3.492C678.182,329.678,684.123,336.323,689.038,335.426z"/>
					
						<line style="fill:none;stroke:#263238;stroke-width:0.5;stroke-miterlimit:10;" x1="689.038" y1="335.426" x2="683.358" y2="329.977"/>
				</g>
				<g>
					
						<line style="fill:none;stroke:#263238;stroke-width:2;stroke-miterlimit:10;" x1="693.9" y1="319.558" x2="689.946" y2="313.12"/>
					<path style="fill:#92E3A9;stroke:#263238;stroke-miterlimit:10;" d="M691.152,315.054c0,0,0.645-2.344-1.116-4.737
						c-1.06-1.44-7.318-5.773-8.479-3.492C680.295,309.306,686.237,315.95,691.152,315.054z"/>
					
						<line style="fill:none;stroke:#263238;stroke-width:0.5;stroke-miterlimit:10;" x1="691.152" y1="315.054" x2="685.472" y2="309.605"/>
				</g>
				<g>
					
						<line style="fill:none;stroke:#263238;stroke-width:2;stroke-miterlimit:10;" x1="687.186" y1="383.276" x2="692.377" y2="377.786"/>
					<path style="fill:#92E3A9;stroke:#263238;stroke-miterlimit:10;" d="M690.8,379.431c0,0-0.15-2.427,2.065-4.407
						c1.333-1.191,8.347-4.148,9.015-1.677C702.605,376.035,695.426,381.318,690.8,379.431z"/>
					
						<line style="fill:none;stroke:#263238;stroke-width:0.5;stroke-miterlimit:10;" x1="690.8" y1="379.431" x2="697.87" y2="375.044"/>
				</g>
				<g>
					
						<line style="fill:none;stroke:#263238;stroke-width:2;stroke-miterlimit:10;" x1="690.595" y1="350.417" x2="695.786" y2="344.927"/>
					<path style="fill:#92E3A9;stroke:#263238;stroke-miterlimit:10;" d="M694.209,346.572c0,0-0.15-2.427,2.065-4.407
						c1.333-1.192,8.348-4.147,9.015-1.677C706.015,343.176,698.836,348.459,694.209,346.572z"/>
					
						<line style="fill:none;stroke:#263238;stroke-width:0.5;stroke-miterlimit:10;" x1="694.209" y1="346.572" x2="701.279" y2="342.184"/>
				</g>
				<g>
					
						<line style="fill:none;stroke:#263238;stroke-width:2;stroke-miterlimit:10;" x1="692.094" y1="335.976" x2="697.285" y2="330.487"/>
					<path style="fill:#92E3A9;stroke:#263238;stroke-miterlimit:10;" d="M695.708,332.132c0,0-0.15-2.427,2.065-4.407
						c1.333-1.191,8.347-4.148,9.015-1.677C707.513,328.735,700.334,334.018,695.708,332.132z"/>
					
						<line style="fill:none;stroke:#263238;stroke-width:0.5;stroke-miterlimit:10;" x1="695.708" y1="332.132" x2="702.778" y2="327.744"/>
				</g>
				<g>
					
						<line style="fill:none;stroke:#263238;stroke-width:2;stroke-miterlimit:10;" x1="694.291" y1="314.806" x2="699.482" y2="309.317"/>
					<path style="fill:#92E3A9;stroke:#263238;stroke-miterlimit:10;" d="M697.904,310.962c0,0-0.15-2.427,2.065-4.407
						c1.333-1.191,8.348-4.147,9.015-1.677C709.71,307.565,702.531,312.849,697.904,310.962z"/>
					
						<line style="fill:none;stroke:#263238;stroke-width:0.5;stroke-miterlimit:10;" x1="697.904" y1="310.962" x2="704.974" y2="306.574"/>
					<path style="fill:#92E3A9;stroke:#263238;stroke-miterlimit:10;" d="M695.424,301.214c0,0-0.15-2.427,2.065-4.407
						c1.332-1.191,8.348-4.147,9.015-1.677C707.23,297.818,700.051,303.101,695.424,301.214z"/>
					
						<line style="fill:none;stroke:#263238;stroke-width:0.5;stroke-miterlimit:10;" x1="695.424" y1="301.214" x2="702.494" y2="296.827"/>
					<path style="fill:#92E3A9;stroke:#263238;stroke-miterlimit:10;" d="M695.714,301.529c0,0-2.429-0.105-4.166-2.516
						c-1.045-1.45-3.249-8.737-0.722-9.141C693.575,289.432,698.076,297.125,695.714,301.529z"/>
					
						<line style="fill:none;stroke:#263238;stroke-width:0.5;stroke-miterlimit:10;" x1="695.714" y1="301.529" x2="692.092" y2="294.038"/>
				</g>
			</g>
		</g>
		
			<line style="fill:none;stroke:#263238;stroke-width:2;stroke-miterlimit:10;" x1="682.337" y1="257.122" x2="682.337" y2="395.965"/>
		<g>
			<g>
				
					<line style="fill:none;stroke:#263238;stroke-width:2;stroke-miterlimit:10;" x1="682.448" y1="375.088" x2="677.851" y2="369.093"/>
				<path style="fill:#92E3A9;stroke:#263238;stroke-miterlimit:10;" d="M679.25,370.892c0,0,0.4-2.398-1.599-4.597
					c-1.202-1.323-7.875-4.987-8.794-2.598C667.858,366.295,674.453,372.29,679.25,370.892z"/>
				
					<line style="fill:none;stroke:#263238;stroke-width:0.5;stroke-miterlimit:10;" x1="679.25" y1="370.892" x2="673.038" y2="366.058"/>
			</g>
			<g>
				
					<line style="fill:none;stroke:#263238;stroke-width:2;stroke-miterlimit:10;" x1="682.448" y1="348.996" x2="677.851" y2="343.001"/>
				<path style="fill:#92E3A9;stroke:#263238;stroke-miterlimit:10;" d="M679.25,344.799c0,0,0.4-2.398-1.599-4.597
					c-1.202-1.323-7.875-4.987-8.794-2.598C667.858,340.203,674.453,346.198,679.25,344.799z"/>
				
					<line style="fill:none;stroke:#263238;stroke-width:0.5;stroke-miterlimit:10;" x1="679.25" y1="344.799" x2="673.038" y2="339.966"/>
			</g>
			<g>
				
					<line style="fill:none;stroke:#263238;stroke-width:2;stroke-miterlimit:10;" x1="682.448" y1="318.362" x2="677.851" y2="312.367"/>
				<path style="fill:#92E3A9;stroke:#263238;stroke-miterlimit:10;" d="M679.25,314.165c0,0,0.4-2.398-1.599-4.597
					c-1.202-1.323-7.875-4.987-8.794-2.598C667.858,309.569,674.453,315.565,679.25,314.165z"/>
				
					<line style="fill:none;stroke:#263238;stroke-width:0.5;stroke-miterlimit:10;" x1="679.25" y1="314.165" x2="673.038" y2="309.332"/>
			</g>
			<g>
				
					<line style="fill:none;stroke:#263238;stroke-width:2;stroke-miterlimit:10;" x1="682.448" y1="297.97" x2="677.851" y2="291.974"/>
				<path style="fill:#92E3A9;stroke:#263238;stroke-miterlimit:10;" d="M679.25,293.773c0,0,0.4-2.398-1.599-4.597
					c-1.202-1.323-7.875-4.987-8.794-2.598C667.858,289.176,674.453,295.172,679.25,293.773z"/>
				
					<line style="fill:none;stroke:#263238;stroke-width:0.5;stroke-miterlimit:10;" x1="679.25" y1="293.773" x2="673.038" y2="288.939"/>
			</g>
			<g>
				
					<line style="fill:none;stroke:#263238;stroke-width:2;stroke-miterlimit:10;" x1="682.448" y1="277.488" x2="677.851" y2="271.492"/>
				<path style="fill:#92E3A9;stroke:#263238;stroke-miterlimit:10;" d="M679.25,273.291c0,0,0.4-2.398-1.599-4.597
					c-1.202-1.323-7.875-4.987-8.794-2.598C667.858,268.694,674.453,274.69,679.25,273.291z"/>
				
					<line style="fill:none;stroke:#263238;stroke-width:0.5;stroke-miterlimit:10;" x1="679.25" y1="273.291" x2="673.038" y2="268.457"/>
			</g>
			<g>
				
					<line style="fill:none;stroke:#263238;stroke-width:2;stroke-miterlimit:10;" x1="682.346" y1="383.056" x2="686.943" y2="377.06"/>
				<path style="fill:#92E3A9;stroke:#263238;stroke-miterlimit:10;" d="M685.544,378.859c0,0-0.399-2.398,1.599-4.597
					c1.202-1.323,7.875-4.987,8.794-2.598C696.936,374.262,690.34,380.258,685.544,378.859z"/>
				
					<line style="fill:none;stroke:#263238;stroke-width:0.5;stroke-miterlimit:10;" x1="685.544" y1="378.859" x2="692.123" y2="373.765"/>
			</g>
			<g>
				
					<line style="fill:none;stroke:#263238;stroke-width:2;stroke-miterlimit:10;" x1="682.346" y1="341.558" x2="686.943" y2="335.562"/>
				<path style="fill:#92E3A9;stroke:#263238;stroke-miterlimit:10;" d="M685.544,337.361c0,0-0.399-2.398,1.599-4.597
					c1.202-1.323,7.875-4.987,8.794-2.598C696.936,332.764,690.34,338.76,685.544,337.361z"/>
				
					<line style="fill:none;stroke:#263238;stroke-width:0.5;stroke-miterlimit:10;" x1="685.544" y1="337.361" x2="692.123" y2="332.267"/>
			</g>
			<g>
				
					<line style="fill:none;stroke:#263238;stroke-width:2;stroke-miterlimit:10;" x1="682.346" y1="321.076" x2="686.943" y2="315.08"/>
				<path style="fill:#92E3A9;stroke:#263238;stroke-miterlimit:10;" d="M685.544,316.879c0,0-0.399-2.398,1.599-4.597
					c1.202-1.323,7.875-4.987,8.794-2.598C696.936,312.282,690.34,318.278,685.544,316.879z"/>
				
					<line style="fill:none;stroke:#263238;stroke-width:0.5;stroke-miterlimit:10;" x1="685.544" y1="316.879" x2="692.123" y2="311.785"/>
			</g>
			<g>
				
					<line style="fill:none;stroke:#263238;stroke-width:2;stroke-miterlimit:10;" x1="682.346" y1="294.004" x2="686.943" y2="288.009"/>
				<path style="fill:#92E3A9;stroke:#263238;stroke-miterlimit:10;" d="M685.544,289.807c0,0-0.399-2.398,1.599-4.597
					c1.202-1.323,7.875-4.987,8.794-2.598C696.936,285.211,690.34,291.206,685.544,289.807z"/>
				
					<line style="fill:none;stroke:#263238;stroke-width:0.5;stroke-miterlimit:10;" x1="685.544" y1="289.807" x2="692.123" y2="284.713"/>
			</g>
			<g>
				
					<line style="fill:none;stroke:#263238;stroke-width:2;stroke-miterlimit:10;" x1="682.346" y1="272.721" x2="686.943" y2="266.725"/>
				<path style="fill:#92E3A9;stroke:#263238;stroke-miterlimit:10;" d="M685.544,268.524c0,0-0.399-2.398,1.599-4.597
					c1.202-1.323,7.875-4.987,8.794-2.598C696.936,263.927,690.34,269.923,685.544,268.524z"/>
				
					<line style="fill:none;stroke:#263238;stroke-width:0.5;stroke-miterlimit:10;" x1="685.544" y1="268.524" x2="692.123" y2="263.43"/>
				<path style="fill:#92E3A9;stroke:#263238;stroke-miterlimit:10;" d="M682.071,259.084c0,0-0.4-2.398,1.599-4.597
					c1.202-1.323,7.875-4.987,8.794-2.598C693.463,254.488,686.867,260.483,682.071,259.084z"/>
				
					<line style="fill:none;stroke:#263238;stroke-width:0.5;stroke-miterlimit:10;" x1="682.071" y1="259.084" x2="688.65" y2="253.991"/>
				<path style="fill:#92E3A9;stroke:#263238;stroke-miterlimit:10;" d="M682.392,259.367c0,0-2.427,0.146-4.404-2.072
					c-1.189-1.335-4.134-8.355-1.661-9.018C679.015,247.556,684.286,254.744,682.392,259.367z"/>
				
					<line style="fill:none;stroke:#263238;stroke-width:0.5;stroke-miterlimit:10;" x1="682.392" y1="259.367" x2="678.016" y2="252.29"/>
			</g>
		</g>
		<polygon style="fill:#263238;stroke:#263238;stroke-miterlimit:10;" points="688.049,431.975 673.345,431.975 671.507,394.839 
			689.887,394.839 		"/>
	</g>
</g>
<g id="File_Cabinet">
	<g>
		<g>
			
				<rect x="50" y="196.975" style="fill:#FFFFFF;stroke:#263238;stroke-linecap:round;stroke-linejoin:round;stroke-miterlimit:10;" width="81" height="235"/>
			<g>
				
					<rect x="57" y="216.975" style="fill:#FFFFFF;stroke:#263238;stroke-linecap:round;stroke-linejoin:round;stroke-miterlimit:10;" width="66" height="40"/>
				
					<rect x="82" y="229.975" style="fill:#263238;stroke:#263238;stroke-linecap:round;stroke-linejoin:round;stroke-miterlimit:10;" width="16" height="14"/>
				
					<rect x="84.857" y="232.475" style="fill:#FFFFFF;stroke:#263238;stroke-linecap:round;stroke-linejoin:round;stroke-miterlimit:10;" width="10.285" height="9"/>
			</g>
			<g>
				
					<rect x="57" y="263.91" style="fill:#FFFFFF;stroke:#263238;stroke-linecap:round;stroke-linejoin:round;stroke-miterlimit:10;" width="66" height="40"/>
				
					<rect x="82" y="276.91" style="fill:#263238;stroke:#263238;stroke-linecap:round;stroke-linejoin:round;stroke-miterlimit:10;" width="16" height="14"/>
				
					<rect x="84.857" y="279.41" style="fill:#FFFFFF;stroke:#263238;stroke-linecap:round;stroke-linejoin:round;stroke-miterlimit:10;" width="10.285" height="9"/>
			</g>
			<g>
				
					<rect x="57" y="310.846" style="fill:#FFFFFF;stroke:#263238;stroke-linecap:round;stroke-linejoin:round;stroke-miterlimit:10;" width="66" height="40"/>
				
					<rect x="82" y="323.846" style="fill:#263238;stroke:#263238;stroke-linecap:round;stroke-linejoin:round;stroke-miterlimit:10;" width="16" height="14"/>
				
					<rect x="84.857" y="326.346" style="fill:#FFFFFF;stroke:#263238;stroke-linecap:round;stroke-linejoin:round;stroke-miterlimit:10;" width="10.285" height="9"/>
			</g>
			<g>
				
					<rect x="57" y="357.781" style="fill:#FFFFFF;stroke:#263238;stroke-linecap:round;stroke-linejoin:round;stroke-miterlimit:10;" width="66" height="40"/>
				
					<rect x="82" y="370.781" style="fill:#263238;stroke:#263238;stroke-linecap:round;stroke-linejoin:round;stroke-miterlimit:10;" width="16" height="14"/>
				
					<rect x="84.857" y="373.282" style="fill:#FFFFFF;stroke:#263238;stroke-linecap:round;stroke-linejoin:round;stroke-miterlimit:10;" width="10.285" height="9"/>
			</g>
		</g>
		<g>
			
				<rect x="55.534" y="165.946" style="fill:none;stroke:#263238;stroke-linecap:round;stroke-linejoin:round;stroke-miterlimit:10;" width="36.632" height="30.668"/>
			<polygon style="fill:#263238;stroke:#263238;stroke-linecap:round;stroke-linejoin:round;stroke-miterlimit:10;" points="
				92.165,184.262 74.701,184.262 67.035,166.372 66.969,165.946 55.534,165.946 55.534,196.614 92.165,196.614 			"/>
		</g>
		<g>
			
				<rect x="109.629" y="181.28" style="fill:#263238;stroke:#263238;stroke-linecap:round;stroke-linejoin:round;stroke-miterlimit:10;" width="12.778" height="15.76"/>
			<path style="fill:#92E3A9;stroke:#263238;stroke-linecap:round;stroke-linejoin:round;stroke-miterlimit:10;" d="
				M115.705,172.204c0,0,5.425-2.85,6.703-7.962c1.278-5.111-5.111-14.908-5.111-14.908s-6.389,7.241-6.389,12.353
				S115.705,172.204,115.705,172.204z"/>
			<path style="fill:#92E3A9;stroke:#263238;stroke-linecap:round;stroke-linejoin:round;stroke-miterlimit:10;" d="M112.41,178.463
				c0,0,1.053-6.98-2.781-9.536c-3.834-2.556-12.778-1.278-12.778-1.278s1.704,10.223,6.389,11.075
				C107.925,179.576,112.41,178.463,112.41,178.463z"/>
			<path style="fill:#92E3A9;stroke:#263238;stroke-linecap:round;stroke-linejoin:round;stroke-miterlimit:10;" d="
				M121.982,176.169c0,0-0.426-5.111,3.408-8.945c3.834-3.833,11.927-1.704,11.927-1.704s-1.704,7.241-6.389,9.797
				C126.241,177.872,121.982,176.169,121.982,176.169z"/>
			
				<line style="fill:none;stroke:#263238;stroke-linecap:round;stroke-linejoin:round;stroke-miterlimit:10;" x1="114.741" y1="181.706" x2="108.777" y2="174.465"/>
			<polyline style="fill:none;stroke:#263238;stroke-linecap:round;stroke-linejoin:round;stroke-miterlimit:10;" points="
				116.019,159.13 116.019,183.41 126.667,171.057 			"/>
		</g>
	</g>
</g>
<g id="Character_3">
	<g>
		<g>
			<path style="fill:#263238;stroke:#263238;stroke-linecap:round;stroke-linejoin:round;stroke-miterlimit:10;" d="
				M601.261,241.269c0,0,5.93,0.539,9.165,4.313c3.235,3.774,4.313,13.747,3.773,18.062c-0.337,2.703,0.678,4.961,2.878,6.572
				c3.004,2.199,5.886,5.151,6.498,9.101c0.57,3.675-0.516,10.277-3.985,12.358c-4.043,2.426-9.434,7.278-6.739,9.165
				c2.695,1.887,5.121,1.617,5.121,1.617s0.27,5.66-7.817,5.66s-9.973-5.93-8.086-12.938c1.887-7.008,6.469-15.095,2.156-18.868
				c-4.313-3.774-6.2-10.782-3.504-15.364c2.695-4.582,3.774-14.286,1.348-16.712C599.644,241.808,601.261,241.269,601.261,241.269z
				"/>
			<path style="fill:#263238;stroke:#263238;stroke-linecap:round;stroke-linejoin:round;stroke-miterlimit:10;" d="
				M518.977,349.257l7.547,65.411l8.106-0.559l1.957-50.036l5.032-0.559l31.587,1.957c0,0,3.913-0.839,5.032-0.839
				c1.118,0,2.516-3.075-4.193-5.87c-6.709-2.795-53.111-11.74-54.229-11.74C518.698,347.02,518.977,349.257,518.977,349.257z"/>
			<path style="fill:#263238;stroke:#263238;stroke-linecap:round;stroke-linejoin:round;stroke-miterlimit:10;" d="
				M562.864,340.032c0,0-29.029-9.611-57.304-3.354c-2.316,0.512-7.268,59.54-7.268,59.54l7.547,2.236l11.74-46.682
				c0,0,49.198,14.256,59.261,12.859C586.904,363.233,562.864,340.032,562.864,340.032z"/>
			<g>
				<path style="fill:#FFFFFF;stroke:#263238;stroke-linecap:round;stroke-linejoin:round;stroke-miterlimit:10;" d="
					M570.97,241.357c0,0-2.236,5.87-2.236,8.665s0.279,4.752,0.279,4.752s-3.914,4.193-2.516,5.591
					c1.398,1.398,1.398,1.398,1.398,1.398s1.957,10.902,3.634,11.461c1.677,0.559,8.666-0.839,8.666-0.839l0.105,15.413
					l13.872-11.779l-1.118-8.945c0,0,3.354-4.752,7.268-10.343c3.913-5.591,1.677-14.536-0.559-18.729
					c-2.236-4.193-19.288-12.859-30.749,1.398L570.97,241.357z"/>
				<polygon style="fill:#263238;stroke:#263238;stroke-linecap:round;stroke-linejoin:round;stroke-miterlimit:10;" points="
					580.195,272.385 584.091,271.37 580.48,278.591 				"/>
				<path style="fill:#263238;stroke:#263238;stroke-linecap:round;stroke-linejoin:round;stroke-miterlimit:10;" d="
					M599.762,238.003c-2.236-4.193-19.288-12.859-30.749,1.398l1.957,1.957l13.977,15.374c0,0,1.434-4.561,4.473-1.957
					c1.957,1.677,1.118,5.311,0.279,5.591c-0.839,0.28-2.795,3.075-2.795,3.075l6.15,3.634c0,0,3.354-4.752,7.268-10.343
					C604.235,251.141,601.998,242.196,599.762,238.003z"/>
				<ellipse style="fill:#263238;" cx="571.406" cy="254.9" rx="0.753" ry="1.722"/>
				<path style="fill:none;stroke:#263238;stroke-linecap:round;stroke-linejoin:round;stroke-miterlimit:10;" d="M570.438,250.596
					c0,0,1.506-0.646,3.228,0.861"/>
				<path style="fill:none;stroke:#263238;stroke-linecap:round;stroke-linejoin:round;stroke-miterlimit:10;" d="M570.007,263.508
					c0,0,2.367,0.43,4.089-0.861"/>
			</g>
			<path style="fill:#263238;stroke:#263238;stroke-linecap:round;stroke-linejoin:round;stroke-miterlimit:10;" d="
				M571.613,312.501l-30.085,2.43l-9.671-0.896c0,0-13.315,4.521-10.719,5.396c2.596,0.875,5.619-0.063,5.619-0.063
				s3.952,1.651,7.864,1.564c3.913-0.088,6.482-0.869,6.482-0.869l33.553,5.048L571.613,312.501z"/>
			<path style="fill:#92E3A9;stroke:#263238;stroke-linecap:round;stroke-linejoin:round;stroke-miterlimit:10;" d="
				M593.613,274.342c0,0-17.331,16.772-20.126,20.965c-2.795,4.193-3.913,7.827-3.913,11.461s2.516,11.74,2.516,11.74l-3.354,12.02
				l-9.784,8.945l15.374,24.599c0,0,6.988,1.398,11.74-1.398c4.752-2.795,7.827-14.815,7.827-20.685s-1.118-18.449-1.118-18.449
				s6.429-20.126,8.386-27.674c1.957-7.547,2.236-14.256,0.28-17.89C599.483,274.342,596.408,272.385,593.613,274.342z"/>
			<path style="fill:#FFFFFF;stroke:#263238;stroke-linecap:round;stroke-linejoin:round;stroke-miterlimit:10;" d="
				M526.525,414.667l-9.504,10.622c0,0-7.268,2.236-8.386,3.354c-1.118,1.118,1.118,1.677,3.913,2.795
				c2.795,1.118,13.138-0.559,16.492-0.839c3.354-0.28,6.429,0,7.547-2.795c1.118-2.795,0-5.87-0.279-6.988
				c-0.28-1.118-1.677-6.709-1.677-6.709L526.525,414.667z"/>
			<path style="fill:#92E3A9;stroke:#263238;stroke-linecap:round;stroke-linejoin:round;stroke-miterlimit:10;" d="
				M516.546,425.439c-1.614,0.512-6.964,2.258-7.911,3.205c-1.118,1.118,1.118,1.677,3.914,2.795
				c2.795,1.118,13.138-0.559,16.492-0.839c3.354-0.279,6.429,0,7.547-2.795c1.118-2.795,0-5.87-0.279-6.988
				c-0.032-0.126-0.079-0.316-0.136-0.542c-4.88,3.06-13.182,6.413-14.959,6.413C520.008,426.687,518.075,426.038,516.546,425.439z"
				/>
			<g>
				<path style="fill:#FFFFFF;stroke:#263238;stroke-linecap:round;stroke-linejoin:round;stroke-miterlimit:10;" d="
					M498.292,396.218c0,0-10.902,12.02-12.299,13.697c-1.398,1.677-5.591,2.236-5.311,4.193c0.279,1.957,4.752,1.398,6.709,1.118
					c1.957-0.28,14.256-3.354,15.933-3.914c1.677-0.559,3.914-1.398,4.193-3.913c0.28-2.516-1.677-8.945-1.677-8.945
					L498.292,396.218z"/>
				<path style="fill:#92E3A9;stroke:#263238;stroke-linecap:round;stroke-linejoin:round;stroke-miterlimit:10;" d="M507.516,407.4
					c0.175-1.57-0.522-4.664-1.07-6.768c-2.744,1.342-5.395,4.969-6.757,5.65c-1.677,0.839-14.536,5.032-14.536,5.032l-0.586-0.33
					c-1.76,0.967-4.097,1.648-3.886,3.125c0.279,1.957,4.752,1.398,6.709,1.118c1.957-0.28,14.256-3.355,15.933-3.914
					C505.001,410.754,507.237,409.915,507.516,407.4z"/>
			</g>
			<g>
				<path style="fill:#92E3A9;stroke:#263238;stroke-linecap:round;stroke-linejoin:round;stroke-miterlimit:10;" d="
					M588.593,288.979l-7.817,26.146l-39.248-0.195l-0.424,5.132c0,0,39.402,8.001,42.098,8.001s5.66-0.809,6.739-2.695
					c1.078-1.887,12.399-29.92,12.938-36.12c0.539-6.2-0.809-10.782-3.235-12.13c-2.426-1.348-7.278,1.078-8.895,3.774"/>
				<path style="fill:#FFFFFF;stroke:#263238;stroke-linecap:round;stroke-linejoin:round;stroke-miterlimit:10;" d="
					M541.528,314.931c0,0-11.109-2.448-12.726-2.411c-1.617,0.036-9.856,5.343-9.838,6.152c0.018,0.809,2.174,0.76,2.174,0.76
					l3.767-0.354l4.024-0.899c0,0,3.527,0.999,5.144,0.963c1.617-0.036,4.03-0.63,4.03-0.63l3,1.551L541.528,314.931z"/>
			</g>
		</g>
		<g>
			<path style="fill:#FFFFFF;stroke:#263238;stroke-linecap:round;stroke-linejoin:round;stroke-miterlimit:10;" d="M611.75,281.2
				l-4.5-0.25c0,0-11.5,33.25-13,45.75s-1,23-0.25,26.5s4.75,10.25,4.75,10.25l5,1.25c0,0-5.25-13.5-5.5-17.25
				s0.395-18.629,0.75-20.5C601.75,312.45,611.75,281.2,611.75,281.2z"/>
			<g>
				<path style="fill:#FFFFFF;stroke:#263238;stroke-linecap:round;stroke-linejoin:round;stroke-miterlimit:10;" d="M571.5,408.7
					c0,0-24.75,12.5-25.25,15.25s0,6.25,0,6.25l0.875-0.875l2.375-5.625l22.25-10.5L571.5,408.7z"/>
				
					<circle style="fill:#263238;stroke:#263238;stroke-linecap:round;stroke-linejoin:round;stroke-miterlimit:10;" cx="548" cy="429.2" r="2.75"/>
			</g>
			<g>
				<path style="fill:#FFFFFF;stroke:#263238;stroke-linecap:round;stroke-linejoin:round;stroke-miterlimit:10;" d="M578.75,408.7
					c0,0,24.75,12.5,25.25,15.25s0,6.25,0,6.25l-0.875-0.875l-2.375-5.625l-22.25-10.5L578.75,408.7z"/>
				
					<circle style="fill:#263238;stroke:#263238;stroke-linecap:round;stroke-linejoin:round;stroke-miterlimit:10;" cx="602.25" cy="429.2" r="2.75"/>
			</g>
			
				<rect x="572.75" y="367.95" style="fill:#FFFFFF;stroke:#263238;stroke-linecap:round;stroke-linejoin:round;stroke-miterlimit:10;" width="4" height="43.5"/>
			
				<rect x="569" y="372.2" style="fill:#263238;stroke:#263238;stroke-linecap:round;stroke-linejoin:round;stroke-miterlimit:10;" width="11.75" height="8"/>
			<g>
				<path style="fill:#FFFFFF;stroke:#263238;stroke-linecap:round;stroke-linejoin:round;stroke-miterlimit:10;" d="
					M602.792,364.146c-8.656-0.907-36.549-3.327-61.55,0.024c-0.949,0.127-1.316,1.304-0.619,1.961
					c2.657,2.508,10.032,7.07,29.128,8.319c19.732,1.291,29.806-4.764,33.734-8.03C604.363,365.689,603.929,364.265,602.792,364.146
					z"/>
				<path style="fill:#92E3A9;stroke:#263238;stroke-linecap:round;stroke-linejoin:round;stroke-miterlimit:10;" d="
					M540.599,366.107c0.016,0.015,0.032,0.03,0.048,0.046c0.206,0.193,0.484,0.297,0.767,0.297h62.03
					c0.014-0.012,0.028-0.023,0.042-0.035c0.874-0.728,0.431-2.151-0.701-2.27c-8.663-0.907-36.55-3.326-61.546,0.025
					C540.307,364.295,539.917,365.46,540.599,366.107z"/>
			</g>
			
				<rect x="570.25" y="404.7" style="fill:#263238;stroke:#263238;stroke-linecap:round;stroke-linejoin:round;stroke-miterlimit:10;" width="9.25" height="9.75"/>
			
				<rect x="573.875" y="409.575" style="fill:#FFFFFF;stroke:#263238;stroke-linecap:round;stroke-linejoin:round;stroke-miterlimit:10;" width="1.375" height="22.375"/>
			
				<rect x="573.342" y="426.114" style="fill:#263238;stroke:#263238;stroke-linecap:round;stroke-linejoin:round;stroke-miterlimit:10;" width="2.422" height="5.86"/>
			<polygon style="fill:#FFFFFF;stroke:#263238;stroke-linecap:round;stroke-linejoin:round;stroke-miterlimit:10;" points="
				584.25,366.45 578.75,366.45 575.25,332.95 579,332.95 			"/>
			<path style="fill:#92E3A9;stroke:#263238;stroke-linecap:round;stroke-linejoin:round;stroke-miterlimit:10;" d="M593.75,335.2
				H556c0,0,2.75-5,4.5-5.5s30.25,0,30.25,0S593.75,330.7,593.75,335.2z"/>
			<path style="fill:#FFFFFF;stroke:#263238;stroke-linecap:round;stroke-linejoin:round;stroke-miterlimit:10;" d="M556,335.2
				h37.75c0-0.455-0.037-0.864-0.092-1.25h-36.92C556.29,334.674,556,335.2,556,335.2z"/>
		</g>
	</g>
</g>
<g id="Character_2">
	<g>
		<g>
			<g>
				<path style="fill:#FFFFFF;stroke:#263238;stroke-linecap:round;stroke-linejoin:round;stroke-miterlimit:10;" d="
					M416.109,279.446h-51.037c-3.442,0-6.205,2.842-6.107,6.283l1.822,64.3l-2,14.203h63.697l-3-14.203l2.729-64.214
					C422.361,282.342,419.585,279.446,416.109,279.446z"/>
				<path style="fill:#92E3A9;stroke:#263238;stroke-linecap:round;stroke-linejoin:round;stroke-miterlimit:10;" d="
					M413.781,283.32h-46.373c-3.128,0-5.638,2.698-5.549,5.964l1.656,61.036l-1.817,13.482h57.877l-2.726-13.482l2.48-60.954
					C419.462,286.069,416.94,283.32,413.781,283.32z"/>
			</g>
			<polygon style="fill:#FFFFFF;stroke:#263238;stroke-linecap:round;stroke-linejoin:round;stroke-miterlimit:10;" points="
				358.5,333.634 355.25,363.134 358,363.134 361.25,333.634 			"/>
			<polygon style="fill:#FFFFFF;stroke:#263238;stroke-linecap:round;stroke-linejoin:round;stroke-miterlimit:10;" points="
				422.5,333.634 425.75,363.134 423,363.134 419.75,333.634 			"/>
			<g>
				<path style="fill:#FFFFFF;stroke:#263238;stroke-linecap:round;stroke-linejoin:round;stroke-miterlimit:10;" d="
					M363.167,334.105h-6.335c-0.628,0-1.136-0.509-1.136-1.136v-3.753c0-0.628,0.509-1.136,1.136-1.136h6.335
					c0.628,0,1.137,0.509,1.137,1.136v3.753C364.304,333.596,363.795,334.105,363.167,334.105z"/>
				<path style="fill:#92E3A9;stroke:#263238;stroke-linecap:round;stroke-linejoin:round;stroke-miterlimit:10;" d="
					M363.167,328.08h-6.335c-0.628,0-1.136,0.509-1.136,1.136v3.42h8.608v-3.42C364.304,328.589,363.795,328.08,363.167,328.08z"/>
			</g>
			<g>
				<path style="fill:#FFFFFF;stroke:#263238;stroke-linecap:round;stroke-linejoin:round;stroke-miterlimit:10;" d="
					M424.342,334.105h-6.335c-0.628,0-1.137-0.509-1.137-1.136v-3.753c0-0.628,0.509-1.136,1.137-1.136h6.335
					c0.628,0,1.136,0.509,1.136,1.136v3.753C425.478,333.596,424.969,334.105,424.342,334.105z"/>
				<path style="fill:#92E3A9;stroke:#263238;stroke-linecap:round;stroke-linejoin:round;stroke-miterlimit:10;" d="
					M424.342,328.08h-6.335c-0.628,0-1.137,0.509-1.137,1.136v3.42h8.608v-3.42C425.478,328.589,424.969,328.08,424.342,328.08z"/>
			</g>
			<g>
				<g>
					<path style="fill:#FFFFFF;stroke:#263238;stroke-linecap:round;stroke-linejoin:round;stroke-miterlimit:10;" d="
						M389.548,407.384c0,0-24.75,12.5-25.25,15.25s0,6.25,0,6.25l0.875-0.875l2.375-5.625l22.25-10.5L389.548,407.384z"/>
					
						<circle style="fill:#263238;stroke:#263238;stroke-linecap:round;stroke-linejoin:round;stroke-miterlimit:10;" cx="366.048" cy="427.884" r="2.75"/>
				</g>
				<g>
					<path style="fill:#FFFFFF;stroke:#263238;stroke-linecap:round;stroke-linejoin:round;stroke-miterlimit:10;" d="
						M396.798,407.384c0,0,24.75,12.5,25.25,15.25s0,6.25,0,6.25l-0.875-0.875l-2.375-5.625l-22.25-10.5L396.798,407.384z"/>
					
						<circle style="fill:#263238;stroke:#263238;stroke-linecap:round;stroke-linejoin:round;stroke-miterlimit:10;" cx="420.298" cy="427.884" r="2.75"/>
				</g>
				
					<rect x="390.798" y="366.634" style="fill:#FFFFFF;stroke:#263238;stroke-linecap:round;stroke-linejoin:round;stroke-miterlimit:10;" width="4" height="43.5"/>
				
					<rect x="387.048" y="370.884" style="fill:#263238;stroke:#263238;stroke-linecap:round;stroke-linejoin:round;stroke-miterlimit:10;" width="11.75" height="8"/>
				<g>
					<path style="fill:#FFFFFF;stroke:#263238;stroke-linecap:round;stroke-linejoin:round;stroke-miterlimit:10;" d="
						M425.549,362.845c-9.721-0.892-41.841-3.35-70.684-0.018c-1.122,0.13-1.499,1.56-0.604,2.249
						c3.314,2.552,11.943,6.85,33.145,8.057c22.673,1.291,34.25-4.762,38.765-8.028
						C427.109,364.427,426.702,362.951,425.549,362.845z"/>
					<path style="fill:#92E3A9;stroke:#263238;stroke-linecap:round;stroke-linejoin:round;stroke-miterlimit:10;" d="
						M354.237,365.056c0.033,0.026,0.067,0.052,0.102,0.078h71.789c0.016-0.012,0.033-0.023,0.049-0.035
						c0.932-0.675,0.517-2.148-0.629-2.253c-9.723-0.892-41.84-3.349-70.679-0.018C353.762,362.955,353.356,364.374,354.237,365.056
						z"/>
				</g>
				
					<rect x="388.298" y="403.384" style="fill:#263238;stroke:#263238;stroke-linecap:round;stroke-linejoin:round;stroke-miterlimit:10;" width="9.25" height="9.75"/>
				
					<rect x="391.923" y="408.259" style="fill:#FFFFFF;stroke:#263238;stroke-linecap:round;stroke-linejoin:round;stroke-miterlimit:10;" width="1.375" height="22.375"/>
				
					<rect x="391.39" y="424.798" style="fill:#263238;stroke:#263238;stroke-linecap:round;stroke-linejoin:round;stroke-miterlimit:10;" width="2.422" height="5.86"/>
			</g>
		</g>
		<g>
			<g>
				<path style="fill:#263238;stroke:#263238;stroke-linecap:round;stroke-linejoin:round;stroke-miterlimit:10;" d="
					M372.044,320.316l-5.64,22.492c0,0-9.322,9.552-10.154,14.963c-0.832,5.41,21.637,55.535,21.637,55.535l9.572-1.248
					l-5.41-50.078l17.063-0.416l-0.175,50.494l9.572,1.248l15.86-49.414c0,0,1.777-5.924,0.395-9.28
					c-2.656-6.451-10.507-11.777-10.507-11.777l-7.745-22.518H372.044z"/>
				<g>
					<path style="fill:#FFFFFF;stroke:#263238;stroke-linecap:round;stroke-linejoin:round;stroke-miterlimit:10;" d="
						M377.887,413.306c0,0-0.062,4.817-1.081,8.892c-1.019,4.075-3.82,7.131-2.547,8.66c1.273,1.528,8.405,1.273,10.952,0.509
						c2.547-0.764,4.075-3.056,4.075-6.877s-1.827-12.433-1.827-12.433L377.887,413.306z"/>
					<path style="fill:#92E3A9;stroke:#263238;stroke-linecap:round;stroke-linejoin:round;stroke-miterlimit:10;" d="
						M374.259,430.858c1.273,1.528,8.405,1.273,10.952,0.509c2.547-0.764,4.075-3.056,4.075-6.877c0-1.051-0.141-2.469-0.341-3.967
						c-0.617,1.827-1.951,3.536-4.753,3.967c-4.804,0.739-7.188,0.273-8.138-0.04C374.853,427.401,373.233,429.626,374.259,430.858z
						"/>
				</g>
				<g>
					<path style="fill:#FFFFFF;stroke:#263238;stroke-linecap:round;stroke-linejoin:round;stroke-miterlimit:10;" d="
						M408.509,413.306c0,0,0.062,4.817,1.081,8.892c1.019,4.075,3.82,7.131,2.547,8.66c-1.273,1.528-8.405,1.273-10.952,0.509
						c-2.547-0.764-4.075-3.056-4.075-6.877s1.827-12.433,1.827-12.433L408.509,413.306z"/>
					<path style="fill:#92E3A9;stroke:#263238;stroke-linecap:round;stroke-linejoin:round;stroke-miterlimit:10;" d="
						M412.137,430.858c-1.273,1.528-8.405,1.273-10.952,0.509c-2.547-0.764-4.075-3.056-4.075-6.877
						c0-1.051,0.141-2.469,0.341-3.967c0.617,1.827,1.951,3.536,4.753,3.967c4.804,0.739,7.188,0.273,8.138-0.04
						C411.543,427.401,413.163,429.626,412.137,430.858z"/>
				</g>
			</g>
			<g>
				<path style="fill:#92E3A9;stroke:#263238;stroke-linecap:round;stroke-linejoin:round;stroke-miterlimit:10;" d="
					M378.77,267.749c0,0-15.763,4.834-17.235,6.726c-1.471,1.892-21.438,30.052-24.381,33.204c-2.942,3.153-3.573,6.726-3.363,8.197
					c0.21,1.471,2.312,5.044,2.312,5.044h8.617l6.095-9.248l15.055-15.87l6.173,24.514h34.469l5.139-25.406
					c0,0,10.834,18.443,11.044,19.074c0.21,0.63,3.363,6.095,9.248,5.675c5.885-0.42,5.044-8.197,2.312-14.712
					s-13.451-28.58-16.604-31.523c-3.153-2.942-20.177-6.726-20.177-6.726L378.77,267.749z"/>
				<g>
					<path style="fill:#FFFFFF;stroke:#263238;stroke-linecap:round;stroke-linejoin:round;stroke-miterlimit:10;" d="
						M421.136,313.041c0,0-2.743-0.354,1.858-3.185s10.971-2.743,13.006-2.3c2.035,0.442,2.389,1.77,3.539,4.689
						c1.15,2.92,0.619,5.574-0.619,6.813c-1.239,1.239-1.062,1.77-5.22,0.708c-4.158-1.062-8.494-3.451-10.352-4.601
						C421.49,314.014,421.136,313.041,421.136,313.041z"/>
					<g>
						<path style="fill:#FFFFFF;stroke:#263238;stroke-linecap:round;stroke-linejoin:round;stroke-miterlimit:10;" d="
							M421.568,313.608c0,0,7.531-2.513,10.362-3.221c2.831-0.708,5.84,1.416,6.547,4.778c0.708,3.362-0.354,6.547-3.982,7.344
							c-3.628,0.796-7.255-0.265-9.29-1.504c-2.035-1.239-5.485-3.097-5.485-3.097L421.568,313.608z"/>
						<g>
							<path style="fill:#FFFFFF;stroke:#263238;stroke-linecap:round;stroke-linejoin:round;stroke-miterlimit:10;" d="
								M413.792,313.218c0,0-2.212,0.885-2.654,1.15c-0.442,0.266-2.566,2.566-3.893,3.097c-1.327,0.531-3.274,0.531-1.77,2.035
								c1.504,1.504,3.362,0.354,4.247-0.265c0.885-0.619,2.212-1.327,2.566-1.327c0.354,0,2.035,0.265,2.389,0.354
								s5.84,1.504,7.255,1.858c1.416,0.354,2.212,0.619,3.185-1.15c0.973-1.77-0.531-4.247-1.681-5.043
								C422.286,313.129,413.792,313.218,413.792,313.218z"/>
							<g>
								<path style="fill:#FFFFFF;stroke:#263238;stroke-linecap:round;stroke-linejoin:round;stroke-miterlimit:10;" d="
									M416.391,311.882c0,0-2.943-0.841-2.943,0.21s-0.841,7.987,1.051,7.356S416.391,311.882,416.391,311.882z"/>
								<path style="fill:#FFFFFF;stroke:#263238;stroke-linecap:round;stroke-linejoin:round;stroke-miterlimit:10;" d="
									M416.391,311.882c0,0-1.681,7.356-0.42,7.566c1.261,0.21,2.732-5.044,2.942-6.726
									C419.124,311.041,417.022,311.041,416.391,311.882z"/>
								<path style="fill:#FFFFFF;stroke:#263238;stroke-linecap:round;stroke-linejoin:round;stroke-miterlimit:10;" d="
									M419.046,312.767c0,0-1.681,7.356-0.42,7.566c1.261,0.21,2.732-5.044,2.943-6.726
									C421.778,311.926,419.676,311.926,419.046,312.767z"/>
								<path style="fill:#FFFFFF;stroke:#263238;stroke-linecap:round;stroke-linejoin:round;stroke-miterlimit:10;" d="
									M421.899,314.502c0,0-1.723,5.715-0.431,5.878c1.292,0.163,2.799-3.919,3.015-5.225
									C424.698,313.849,422.545,313.849,421.899,314.502z"/>
							</g>
						</g>
					</g>
				</g>
				<g>
					<path style="fill:#FFFFFF;stroke:#263238;stroke-linecap:round;stroke-linejoin:round;stroke-miterlimit:10;" d="
						M334.419,311.802c0,0,0.576-3.598,1.583-5.325c1.007-1.727,3.885-2.302,5.612-3.022c1.727-0.72,6.764,1.295,8.491,3.166
						c1.727,1.871,2.159,4.461,1.583,6.332c-0.576,1.871-3.598,3.598-4.029,3.598s-3.166-4.461-5.756-4.749
						C339.312,311.514,334.419,311.802,334.419,311.802z"/>
					<path style="fill:#FFFFFF;stroke:#263238;stroke-linecap:round;stroke-linejoin:round;stroke-miterlimit:10;" d="
						M334.419,311.802c0,0,1.439-5.037,7.483-5.037c6.044,0,7.051,5.9,7.051,7.195c0,1.295-1.727,6.476-3.022,6.908
						c-1.295,0.432-8.576,0.823-9.828,0.052C334.851,320.148,333.124,314.536,334.419,311.802z"/>
					<g>
						<path style="fill:#FFFFFF;stroke:#263238;stroke-linecap:round;stroke-linejoin:round;stroke-miterlimit:10;" d="
							M348.522,318.134c0,0,1.295,1.151,4.317,1.727c3.022,0.576,4.893,1.295,2.878,2.015c-2.015,0.72-4.029,0.432-5.037,0.288
							c-1.007-0.144-2.447-0.72-2.447-0.72L348.522,318.134z"/>
						<g>
							<path style="fill:#FFFFFF;stroke:#263238;stroke-linecap:round;stroke-linejoin:round;stroke-miterlimit:10;" d="
								M344.061,314.392c0,0,3.31,1.583,4.461,3.742c1.151,2.159,1.151,4.317,1.151,4.317h-6.044L344.061,314.392z"/>
							<g>
								<path style="fill:#FFFFFF;stroke:#263238;stroke-linecap:round;stroke-linejoin:round;stroke-miterlimit:10;" d="
									M342.91,312.953c0,0-1.871-0.576-2.446,0.432c-0.576,1.007-8.059,4.317-8.203,5.756c-0.144,1.439-0.144,3.454,1.295,3.742
									c1.439,0.288,11.225,0.144,11.656-0.144c0.432-0.288-1.151-7.771-1.151-8.347
									C344.061,313.816,343.774,312.953,342.91,312.953z"/>
								
									<line style="fill:#FFFFFF;stroke:#263238;stroke-linecap:round;stroke-linejoin:round;stroke-miterlimit:10;" x1="340.464" y1="314.104" x2="341.759" y2="322.451"/>
								
									<line style="fill:#FFFFFF;stroke:#263238;stroke-linecap:round;stroke-linejoin:round;stroke-miterlimit:10;" x1="336.722" y1="315.975" x2="338.305" y2="322.739"/>
								
									<line style="fill:#FFFFFF;stroke:#263238;stroke-linecap:round;stroke-linejoin:round;stroke-miterlimit:10;" x1="334.132" y1="317.414" x2="335.427" y2="322.163"/>
							</g>
						</g>
					</g>
				</g>
				<g>
					<path style="fill:#263238;stroke:#263238;stroke-linecap:round;stroke-linejoin:round;stroke-miterlimit:10;" d="
						M372.519,237.671c0,0-4.625,16.343-4.317,21.277c0.308,4.934,14.185,11.101,22.819,12.335
						c8.634,1.233,20.661-8.943,21.586-12.335c0.925-3.392,0.617-13.26-2.467-20.044c-3.084-6.784-9.251-18.502-16.652-18.81
						C386.087,219.786,375.602,223.486,372.519,237.671z"/>
					<path style="fill:#FFFFFF;stroke:#263238;stroke-linecap:round;stroke-linejoin:round;stroke-miterlimit:10;" d="
						M386.546,263.545c0,0-6.305,0.841-6.305,1.681s-2.522,2.732-2.522,2.732l2.102,16.184l12.4-7.146l10.719,7.566l0.42-15.763
						l-6.305-5.254H386.546z"/>
					<polygon style="fill:#FFFFFF;stroke:#263238;stroke-linecap:round;stroke-linejoin:round;stroke-miterlimit:10;" points="
						382.763,259.341 382.133,270.271 391.17,283.512 399.157,270.271 398.316,259.762 					"/>
					<path style="fill:#FFFFFF;stroke:#263238;stroke-linecap:round;stroke-linejoin:round;stroke-miterlimit:10;" d="
						M378.98,247.361c0,0,6.726-5.465,10.509-7.566c3.783-2.102,5.675-7.987,5.675-7.987s0.631,5.885,2.732,8.197
						c2.102,2.312,3.573,5.675,3.573,5.675l0.841,1.892c0,0,0.21,10.719-0.21,11.35c-0.42,0.63-5.675,6.936-7.987,7.356
						c-2.312,0.42-5.044,0.21-6.305-0.841c-1.261-1.051-6.936-5.465-7.356-6.936C380.031,257.03,378.98,247.361,378.98,247.361z"/>
					<path style="fill:#263238;" d="M386.542,249.38c0,0.766-0.362,1.388-0.81,1.388c-0.447,0-0.809-0.621-0.809-1.388
						s0.362-1.388,0.809-1.388C386.18,247.992,386.542,248.613,386.542,249.38z"/>
					<ellipse style="fill:#263238;" cx="395.794" cy="249.38" rx="0.81" ry="1.388"/>
					<path style="fill:none;stroke:#263238;stroke-linecap:round;stroke-linejoin:round;stroke-miterlimit:10;" d="M389.086,256.781
						c0,0,2.776,1.388,4.626,0"/>
					<path style="fill:none;stroke:#263238;stroke-linecap:round;stroke-linejoin:round;stroke-miterlimit:10;" d="M388.161,259.557
						c0,0,3.932,1.388,6.477-0.231"/>
					<path style="fill:none;stroke:#263238;stroke-linecap:round;stroke-linejoin:round;stroke-miterlimit:10;" d="M382.841,247.067
						c0,0,1.156-2.082,4.164-1.619"/>
					<path style="fill:none;stroke:#263238;stroke-linecap:round;stroke-linejoin:round;stroke-miterlimit:10;" d="M394.638,245.679
						c0,0,1.619-1.157,3.701,1.157"/>
				</g>
			</g>
		</g>
	</g>
</g>
<g id="Character_1">
	<g>
		<g>
			<polygon style="fill:#263238;stroke:#263238;stroke-linecap:round;stroke-linejoin:round;stroke-miterlimit:10;" points="
				260.75,358.037 268.5,416.537 258,417.537 249,384.787 			"/>
			<path style="fill:#263238;stroke:#263238;stroke-linecap:round;stroke-linejoin:round;stroke-miterlimit:10;" d="M213.5,336.787
				c0,0,44,5.75,49.75,9.25s1,9.5,1,10.5s-16,61.25-16,61.25l-11.75-2.5l5.25-54.75l-11.5,1c0,0-42.25-0.25-48.5-2.25
				s-7-12.75-5.75-16.75s1-5,1-5L213.5,336.787z"/>
			<path style="fill:#263238;stroke:#263238;stroke-linecap:round;stroke-linejoin:round;stroke-miterlimit:10;" d="
				M207.275,309.887l34.188,4.166l10.701-3.17c0,0,10.364,4.463,8.847,5.853c-1.518,1.39-6.842-1.759-6.842-1.759
				s-5.996,6.154-8.365,5.025c-2.369-1.129-4.913-1.241-4.913-1.241l-30.342,2.04L207.275,309.887z"/>
			<path style="fill:#92E3A9;stroke:#263238;stroke-linecap:round;stroke-linejoin:round;stroke-miterlimit:10;" d="M184.75,264.037
				c0,0-9,8.75-10.75,16.25s-1.5,15-1.25,16s3.5,39,4.25,41.25s11.25,3.5,17.5,3.5s17-2,19-4.25s1-10.75-0.75-14.75
				s-9-40.5-9.5-44.75s-0.75-5-3.75-8.25S190,262.537,184.75,264.037z"/>
			<g>
				<path style="fill:#FFFFFF;stroke:#263238;stroke-linecap:round;stroke-linejoin:round;stroke-miterlimit:10;" d="
					M208.75,226.537c0,0,4.5,4.75,4.5,7.25s-1,5.5-0.75,6.25s3.75,4.5,3.75,5.75s-2.25,3-2.25,3s-1.25,7.25-2.25,9s-9,2.25-9,2.25
					l-4.5,8.5l-12-6.5l1.5-10c0,0-7.25-12.75-8.5-19.25s6.25-12.5,8-12.5s3.25-0.75,3.25-0.75s-1.25-1.75,0.25-2s6,1,6,1s-4-4,3.5-3
					S215.5,224.037,208.75,226.537z"/>
				<path style="fill:#263238;stroke:#263238;stroke-linecap:round;stroke-linejoin:round;stroke-miterlimit:10;" d="
					M207.426,259.573c0,0-1.168-0.389-3.309-0.584c-2.141-0.195-5.256-1.752-5.256-1.752l2.336,4.867l1.553-2.066L207.426,259.573z"
					/>
				<path style="fill:#263238;stroke:#263238;stroke-linecap:round;stroke-linejoin:round;stroke-miterlimit:10;" d="
					M208.75,226.537c6.75-2.5-1-10-8.5-11s-3.5,3-3.5,3s-4.5-1.25-6-1s-0.25,2-0.25,2s-1.5,0.75-3.25,0.75s-9.25,6-8,12.5
					c1.172,6.093,7.615,17.677,8.418,19.104c1.478-0.785,2.826-2.209,2.332-3.854c-0.75-2.5,1.75-7.25,1.75-7.25s1,1.75,2.25,2.75
					s2,0,2,0l-0.5-4c0,0,2-3.25,4.75-5.25s-3.5-2.25-4-4S208.75,226.537,208.75,226.537z"/>
				<path style="fill:#FFFFFF;stroke:#263238;stroke-linecap:round;stroke-linejoin:round;stroke-miterlimit:10;" d="M195,244.037
					c0,0-2.5-4.25-4.5-3.25s-1.25,8,1.25,8.25s3.75-0.5,3.75-0.5"/>
				<ellipse style="fill:#263238;" cx="209.375" cy="239.912" rx="0.875" ry="1.625"/>
				<path style="fill:none;stroke:#263238;stroke-linecap:round;stroke-linejoin:round;stroke-miterlimit:10;" d="M207,237.537
					c0,0,1.75-2.25,4-1"/>
				<path style="fill:none;stroke:#263238;stroke-linecap:round;stroke-linejoin:round;stroke-miterlimit:10;" d="M208,249.287
					c0,0,1.5,1.5,3.75,1.5"/>
			</g>
			<polygon style="fill:#92E3A9;stroke:#263238;stroke-linecap:round;stroke-linejoin:round;stroke-miterlimit:10;" points="
				184.75,258.787 182.25,263.787 200.75,272.287 202,265.787 			"/>
			<path style="fill:#FFFFFF;stroke:#263238;stroke-linecap:round;stroke-linejoin:round;stroke-miterlimit:10;" d="M248.25,417.787
				l4,8.25c0,0,9.5,3.5,9.25,5s-11.75,0.75-11.75,0.75s-16.25-3-16.5-5.25s3.25-11.25,3.25-11.25L248.25,417.787z"/>
			<path style="fill:#FFFFFF;stroke:#263238;stroke-linecap:round;stroke-linejoin:round;stroke-miterlimit:10;" d="M268.5,416.537
				c0,0,8,3.75,8.75,4.25s9.5,2.75,10.25,3s1,2,1,2s-14.25,3-15.25,3s-8-0.75-9.75-0.75s-6.25,0-6.25,0l0.75-10.5L268.5,416.537z"/>
			<g>
				<path style="fill:#92E3A9;stroke:#263238;stroke-linecap:round;stroke-linejoin:round;stroke-miterlimit:10;" d="
					M181.75,287.037c0,0,7.5,40.5,10,41.75s50.195-7.77,50.195-7.77l-0.398-5.742l-39.048-1.738c0,0-3.25-36.5-7-41s-11.5-4-13-0.75
					"/>
				<path style="fill:#FFFFFF;stroke:#263238;stroke-linecap:round;stroke-linejoin:round;stroke-miterlimit:10;" d="
					M241.548,315.275c0,0,11.72-2.919,13.336-2.848c1.616,0.071,9.738,5.556,9.702,6.364c-0.036,0.808-2.19,0.713-2.19,0.713
					l-3.758-0.436l-4.004-0.986c0,0-3.199,2.709-4.814,2.638c-1.616-0.071-4.016-0.717-4.016-0.717l-3.858,1.014L241.548,315.275z"
					/>
			</g>
		</g>
		<g>
			<path style="fill:#FFFFFF;stroke:#263238;stroke-linecap:round;stroke-linejoin:round;stroke-miterlimit:10;" d="M157.75,278.287
				l4.5-0.25c0,0,11.5,33.25,13,45.75s1,23,0.25,26.5s-4.75,10.25-4.75,10.25l-4.75,1.5c0,0,5-13.75,5.25-17.5
				s-0.395-18.629-0.75-20.5C167.75,309.537,157.75,278.287,157.75,278.287z"/>
			<g>
				<path style="fill:#FFFFFF;stroke:#263238;stroke-linecap:round;stroke-linejoin:round;stroke-miterlimit:10;" d="M198,405.787
					c0,0,24.75,12.5,25.25,15.25s0,6.25,0,6.25l-0.875-0.875L220,420.787l-22.25-10.5L198,405.787z"/>
				
					<circle style="fill:#263238;stroke:#263238;stroke-linecap:round;stroke-linejoin:round;stroke-miterlimit:10;" cx="221.5" cy="426.287" r="2.75"/>
			</g>
			<g>
				<path style="fill:#FFFFFF;stroke:#263238;stroke-linecap:round;stroke-linejoin:round;stroke-miterlimit:10;" d="
					M190.75,405.787c0,0-24.75,12.5-25.25,15.25s0,6.25,0,6.25l0.875-0.875l2.375-5.625l22.25-10.5L190.75,405.787z"/>
				
					<circle style="fill:#263238;stroke:#263238;stroke-linecap:round;stroke-linejoin:round;stroke-miterlimit:10;" cx="167.25" cy="426.287" r="2.75"/>
			</g>
			
				<rect x="192.75" y="365.037" transform="matrix(-1 -1.224647e-16 1.224647e-16 -1 389.5 773.5746)" style="fill:#FFFFFF;stroke:#263238;stroke-linecap:round;stroke-linejoin:round;stroke-miterlimit:10;" width="4" height="43.5"/>
			
				<rect x="188.75" y="369.287" transform="matrix(-1 -1.224647e-16 1.224647e-16 -1 389.25 746.5746)" style="fill:#263238;stroke:#263238;stroke-linecap:round;stroke-linejoin:round;stroke-miterlimit:10;" width="11.75" height="8"/>
			<g>
				<path style="fill:#FFFFFF;stroke:#263238;stroke-linecap:round;stroke-linejoin:round;stroke-miterlimit:10;" d="M166.55,361.25
					c8.496-0.896,36.729-3.38,61.945,0.039c0.834,0.113,1.181,1.141,0.584,1.735c-2.476,2.459-9.728,7.231-29.329,8.514
					c-19.935,1.304-30.012-4.889-33.853-8.129C165.07,362.709,165.473,361.363,166.55,361.25z"/>
				<path style="fill:#92E3A9;stroke:#263238;stroke-linecap:round;stroke-linejoin:round;stroke-miterlimit:10;" d="
					M228.565,363.502l-0.04,0.035h-62.469c-0.057-0.047-0.112-0.093-0.166-0.139c-0.823-0.695-0.404-2.036,0.667-2.149
					c8.432-0.889,36.251-3.337,61.296-0.046C228.968,361.35,229.409,362.759,228.565,363.502z"/>
			</g>
			
				<rect x="190" y="401.787" transform="matrix(-1 -1.224647e-16 1.224647e-16 -1 389.25 813.3246)" style="fill:#263238;stroke:#263238;stroke-linecap:round;stroke-linejoin:round;stroke-miterlimit:10;" width="9.25" height="9.75"/>
			
				<rect x="194.25" y="406.662" transform="matrix(-1 -1.224647e-16 1.224647e-16 -1 389.875 835.6996)" style="fill:#FFFFFF;stroke:#263238;stroke-linecap:round;stroke-linejoin:round;stroke-miterlimit:10;" width="1.375" height="22.375"/>
			
				<rect x="193.736" y="423.202" transform="matrix(-1 -1.224647e-16 1.224647e-16 -1 389.8941 852.2645)" style="fill:#263238;stroke:#263238;stroke-linecap:round;stroke-linejoin:round;stroke-miterlimit:10;" width="2.422" height="5.86"/>
			<polygon style="fill:#FFFFFF;stroke:#263238;stroke-linecap:round;stroke-linejoin:round;stroke-miterlimit:10;" points="
				185.25,363.537 190.75,363.537 194.25,330.037 190.5,330.037 			"/>
			<path style="fill:#92E3A9;stroke:#263238;stroke-linecap:round;stroke-linejoin:round;stroke-miterlimit:10;" d="M175.75,332.287
				h37.75c0,0-2.75-5-4.5-5.5s-30.25,0-30.25,0S175.75,327.787,175.75,332.287z"/>
			<path style="fill:#FFFFFF;stroke:#263238;stroke-linecap:round;stroke-linejoin:round;stroke-miterlimit:10;" d="M213.5,332.287
				h-37.75c0-0.455,0.037-0.864,0.092-1.25h36.919C213.21,331.762,213.5,332.287,213.5,332.287z"/>
		</g>
	</g>
</g>
<g id="Devices">
	<g>
		
			<rect x="365.348" y="321.094" transform="matrix(-1 -1.224647e-16 1.224647e-16 -1 786.9336 644.1582)" style="fill:#FFFFFF;stroke:#263238;stroke-linecap:round;stroke-linejoin:round;stroke-miterlimit:10;" width="56.237" height="1.971"/>
		<g>
			<path style="fill:#FFFFFF;stroke:#263238;stroke-linecap:round;stroke-linejoin:round;stroke-miterlimit:10;" d="
				M420.922,316.235h-59.37c-2.073,0-3.753-1.68-3.753-3.753v-50.353c0-2.073,1.68-3.753,3.753-3.753h59.37
				c2.073,0,3.753,1.681,3.753,3.753v50.353C424.675,314.555,422.995,316.235,420.922,316.235z"/>
			
				<rect x="385.841" y="289.976" style="fill:#263238;stroke:#263238;stroke-linecap:round;stroke-linejoin:round;stroke-miterlimit:10;" width="10.791" height="33.047"/>
		</g>
	</g>
	<g>
		
			<rect x="513.947" y="321.142" style="fill:#FFFFFF;stroke:#263238;stroke-linecap:round;stroke-linejoin:round;stroke-miterlimit:10;" width="31.436" height="1.874"/>
		<g>
			<g>
				<path style="fill:#263238;stroke:#263238;stroke-linecap:round;stroke-linejoin:round;stroke-miterlimit:10;" d="M495.002,322.6
					h-13.709c-2.417,0-4.41-1.891-4.538-4.305c-0.026-0.51,0.032-1.016,0.174-1.505l8.594-24.706
					c0.182-0.522,0.755-0.799,1.272-0.616c0.522,0.182,0.798,0.751,0.616,1.272l-8.577,24.656c-0.064,0.225-0.096,0.509-0.081,0.794
					c0.071,1.351,1.188,2.409,2.54,2.409h13.709c0.553,0,1,0.447,1,1C496.002,322.152,495.555,322.6,495.002,322.6z"/>
			</g>
			<g>
				<path style="fill:#FFFFFF;stroke:#263238;stroke-linecap:round;stroke-linejoin:round;stroke-miterlimit:10;" d="
					M491.463,258.27l15.143,57.979l-1.657,1.243c0,0-19.058-14.915-19.058-27.344c0-12.429,3.314-31.487,3.314-31.487
					L491.463,258.27z"/>
				<polygon style="fill:#263238;stroke:#263238;stroke-linecap:round;stroke-linejoin:round;stroke-miterlimit:10;" points="
					491.463,258.27 489.205,258.661 504.949,317.492 506.606,316.249 				"/>
			</g>
		</g>
	</g>
	<g>
		
			<rect x="244.749" y="321.142" transform="matrix(-1 -1.224647e-16 1.224647e-16 -1 520.9335 644.1581)" style="fill:#FFFFFF;stroke:#263238;stroke-linecap:round;stroke-linejoin:round;stroke-miterlimit:10;" width="31.436" height="1.874"/>
		<g>
			<g>
				<path style="fill:#263238;stroke:#263238;stroke-linecap:round;stroke-linejoin:round;stroke-miterlimit:10;" d="M295.13,322.6
					h13.709c2.417,0,4.41-1.891,4.538-4.305c0.026-0.51-0.032-1.016-0.174-1.505l-8.594-24.706
					c-0.182-0.522-0.755-0.799-1.272-0.616c-0.523,0.182-0.798,0.751-0.616,1.272l8.577,24.656c0.064,0.225,0.096,0.509,0.081,0.794
					c-0.071,1.351-1.188,2.409-2.54,2.409H295.13c-0.553,0-1,0.447-1,1C294.13,322.152,294.577,322.6,295.13,322.6z"/>
			</g>
			<g>
				<path style="fill:#FFFFFF;stroke:#263238;stroke-linecap:round;stroke-linejoin:round;stroke-miterlimit:10;" d="
					M298.669,258.27l-15.143,57.979l1.657,1.243c0,0,19.058-14.915,19.058-27.344c0-12.429-3.314-31.487-3.314-31.487
					L298.669,258.27z"/>
				<polygon style="fill:#263238;stroke:#263238;stroke-linecap:round;stroke-linejoin:round;stroke-miterlimit:10;" points="
					298.669,258.27 300.927,258.661 285.183,317.492 283.526,316.249 				"/>
			</g>
		</g>
	</g>
</g>
<g id="Table">
	<g>
		<path style="fill:#FFFFFF;stroke:#263238;stroke-linecap:round;stroke-linejoin:round;stroke-miterlimit:10;" d="M240.975,328.454
			l4.26,10.969c1.511,3.111,2.101,8.401,1.699,11.836l-9.994,79.21c-0.115,0.912,0.596,1.718,1.515,1.718l0,0
			c0.734,0,1.365-0.523,1.5-1.244l19.085-101.431h-6.994l-1.228,5.834c-0.209,0.991-1.597,1.061-1.904,0.096l-2.364-7.429
			L240.975,328.454z"/>
		<path style="fill:#FFFFFF;stroke:#263238;stroke-linecap:round;stroke-linejoin:round;stroke-miterlimit:10;" d="M546.493,328.454
			l-4.26,10.969c-1.511,3.111-2.101,8.401-1.699,11.836l9.994,79.21c0.115,0.912-0.596,1.718-1.515,1.718l0,0
			c-0.734,0-1.365-0.523-1.5-1.244l-19.085-101.431h6.995l1.228,5.834c0.209,0.991,1.597,1.061,1.904,0.096l2.364-7.429
			L546.493,328.454z"/>
		<path style="fill:#FFFFFF;stroke:#263238;stroke-linecap:round;stroke-linejoin:round;stroke-miterlimit:10;" d="M392.166,432.278
			L392.166,432.278c-1.355,0-2.461-1.085-2.486-2.44l-1.954-103.297h8.88l-1.954,103.297
			C394.627,431.194,393.521,432.278,392.166,432.278z"/>
		
			<rect x="233.5" y="322.975" style="fill:#FFFFFF;stroke:#263238;stroke-linecap:round;stroke-linejoin:round;stroke-miterlimit:10;" width="321" height="6.5"/>
	</g>
</g>
</svg>
